<svg viewBox="0 0 422 306" fill="none" xmlns="http://www.w3.org/2000/svg">
<line x1="77.6569" y1="107.343" x2="247.657" y2="277.343" stroke="url(#paint0_linear)" stroke-width="16"/>
<line x1="33.6569" y1="141.343" x2="169.657" y2="277.343" stroke="url(#paint1_linear)" stroke-width="16"/>
<path d="M291.099 250.649C335.033 206.715 335.033 135.483 291.099 91.5495C247.165 47.6155 175.934 47.6155 132 91.5495" stroke="url(#paint2_linear)" stroke-width="16"/>
<path d="M411 170.5C411 170.5 321.457 283 211 283C100.543 283 11 170.5 11 170.5C11 170.5 100.543 58 211 58C321.457 58 411 170.5 411 170.5Z" stroke="url(#paint3_linear)" stroke-width="16"/>
<path d="M254.903 214.855C276.968 192.79 276.968 157.016 254.903 134.952C232.838 112.887 197.065 112.887 175 134.952" stroke="url(#paint4_linear)" stroke-width="16"/>
<line x1="88.3137" y1="37" x2="345.017" y2="293.703" stroke="url(#paint5_linear)" stroke-width="16" stroke-linecap="round"/>
<defs>
<linearGradient id="paint0_linear" x1="74.4542" y1="112.449" x2="242.425" y2="280.017" gradientUnits="userSpaceOnUse">
<stop stop-color="#FE5196"/>
<stop offset="1" stop-color="#F77062"/>
</linearGradient>
<linearGradient id="paint1_linear" x1="30.2639" y1="146.258" x2="164.609" y2="280.345" gradientUnits="userSpaceOnUse">
<stop stop-color="#FE5196"/>
<stop offset="1" stop-color="#F77062"/>
</linearGradient>
<linearGradient id="paint2_linear" x1="171.775" y1="51.7748" x2="330.874" y2="210.874" gradientUnits="userSpaceOnUse">
<stop stop-color="#243949"/>
<stop offset="1" stop-color="#517FA4"/>
</linearGradient>
<linearGradient id="paint3_linear" x1="211" y1="58" x2="211" y2="283" gradientUnits="userSpaceOnUse">
<stop stop-color="#243949"/>
<stop offset="1" stop-color="#517FA4"/>
</linearGradient>
<linearGradient id="paint4_linear" x1="194.976" y1="114.976" x2="274.879" y2="194.879" gradientUnits="userSpaceOnUse">
<stop stop-color="#243949"/>
<stop offset="1" stop-color="#517FA4"/>
</linearGradient>
<linearGradient id="paint5_linear" x1="80.0027" y1="36.9973" x2="345.003" y2="300.997" gradientUnits="userSpaceOnUse">
<stop stop-color="#FE5196"/>
<stop offset="1" stop-color="#F77062"/>
</linearGradient>
</defs>
</svg>
