<svg width="538" height="538" viewBox="0 0 538 538" fill="none" xmlns="http://www.w3.org/2000/svg">
<circle cx="269" cy="269" r="269" fill="url(#paint0_linear)"/>
<mask id="mask0" mask-type="alpha" maskUnits="userSpaceOnUse" x="0" y="0" width="538" height="538">
<rect width="538" height="538" fill="#C4C4C4"/>
</mask>
<g mask="url(#mask0)">
</g>
<mask id="mask1" mask-type="alpha" maskUnits="userSpaceOnUse" x="0" y="0" width="538" height="538">
<circle cx="269" cy="269" r="269" fill="#C4C4C4"/>
</mask>
<g mask="url(#mask1)">
<path d="M128.432 90.5786L161.235 131.012L150.075 181.868L103.357 204.851L56.2588 182.655L44.2476 131.993L76.3676 91.0154L128.432 90.5786Z" fill="url(#paint1_linear)"/>
<path d="M76.5311 358.216L67.1139 377.968L45.7996 382.921L28.6383 369.345L28.5528 347.463L45.6075 333.753L66.9599 338.539L76.5311 358.216Z" fill="url(#paint2_linear)"/>
<path d="M434.006 229.919L457.669 204.793L492.068 207.628L511.298 236.289L500.88 269.194L468.658 281.565L438.896 264.086L434.006 229.919Z" fill="url(#paint3_linear)"/>
<path fill-rule="evenodd" clip-rule="evenodd" d="M93.6766 649.343C124.993 650.22 154.576 651.187 185.833 649.343C235.85 646.249 382.634 651.826 414.898 649.343C417.333 649.156 425.706 651.826 425.881 649.343C427.299 632.054 428.219 457.131 424.005 445.095C419.791 433.059 398.992 375.2 372.489 348.221C365.099 340.932 353.854 338.109 347.642 329.686C342.286 320.501 342.702 315.111 337.412 310.278C335.117 308.181 329.703 307.331 325.681 304.42C321.637 300.401 325.466 291.554 323.806 285.957C320.384 271.982 307.779 263.016 294.001 260.903C274.851 256.322 254.635 260.654 245.463 275.695C242.048 281.294 243.865 288.099 239.666 297.07C239.966 303.85 232.05 305.488 227.319 308.175L217.923 317.67C188.975 333.957 154.921 342.751 129.557 364.633C107.993 386.508 86.544 411.791 76.9759 441.387C74.995 449.451 74.3486 457.786 73.5277 466.027C71.1843 490.108 64.6588 513.481 59.0431 536.938C52.6398 566.493 46.671 597.866 55.3011 627.699C57.7892 634.014 88.0124 649.048 93.6766 649.343Z" fill="white"/>
<path fill-rule="evenodd" clip-rule="evenodd" d="M243.803 278.103C244.054 277.284 245.134 277.514 245.215 278.292C246.029 286.004 245.006 294.064 244.024 301.725C243.553 305.423 243.282 309.268 242.566 312.914C242.474 313.303 242.387 313.697 242.305 314.086C242.54 314.505 243.236 314.975 243.568 315.297L245.012 316.701L247.905 319.502C253.567 324.984 259.228 330.471 264.89 335.954L273.201 344.009C276.05 346.77 279.288 349.414 281.788 352.493C283.144 354.165 283.45 356.216 282.116 358.006C281.456 358.89 280.27 359.535 279.067 359.668C279.538 360.322 279.901 361.064 280.131 361.888C280.602 363.565 278.904 365.626 277.099 364.925C275.048 364.138 273.354 362.726 271.268 362.051C269.161 361.366 266.87 361.233 264.686 361.601C263.683 361.77 262.701 362.021 261.745 362.338C271.979 367.048 283.051 369.753 294.344 370.142C296.646 370.219 298.943 370.188 301.228 370.035C305.075 369.784 308.895 369.201 312.649 368.26C315.6 367.519 318.521 366.587 321.354 365.462C322.745 364.91 324.12 364.302 325.451 363.611L325.567 363.542C325.868 363.354 331.425 360.203 331.521 359.73C331.618 359.256 331.618 359.091 331.438 358.679C331.257 358.267 330.755 357.982 330.755 357.982C329.038 357.249 327.26 356.566 325.384 356.553C321.067 356.528 316.357 359.719 312.787 361.893C308.865 364.281 305.258 367.073 301.484 369.661C301.397 369.722 301.3 369.748 301.208 369.748C300.809 369.748 300.441 369.257 300.696 368.873C303.401 364.891 307.053 361.574 310.872 358.679L312.411 357.525C315.909 354.917 320.001 352.028 324.254 351.398C329.465 350.631 334.907 353.879 339.556 355.781L347.79 359.151C349.258 359.75 350.854 360.261 352.332 360.941L348.881 350.146C347.157 344.748 345.438 339.348 343.735 333.944L343.404 332.886C341.708 327.4 340.151 321.695 337.326 316.684C336.651 315.482 335.878 314.352 335.116 313.211C334.324 312.03 334.027 310.726 333.03 309.672C331.056 307.58 328.227 306.353 325.527 305.55C324.867 305.356 325.062 304.487 325.681 304.42C328.452 304.128 331.094 304.774 333.599 305.943L334.639 306.44C337.007 307.56 339.316 308.602 341.075 310.613C345.084 315.205 347.166 320.988 349.079 326.694L349.591 328.227C350.306 327.991 355.17 329.474 355.779 329.827C374.012 337.534 388.056 351.884 398.326 368.699C409.578 387.126 415.705 408.181 420.763 429.016C422.324 435.446 423.817 441.896 425.251 448.361C418.861 450.819 412.07 452.105 406.089 455.568C403.81 456.887 405.868 460.424 408.154 459.101C413.756 455.858 420.137 454.66 426.134 452.382C429.385 467.347 432.277 482.395 434.7 497.505C442.142 543.88 446.841 591.012 446.545 638.021C446.54 639.06 446.233 640.22 445.665 641.217C445.998 641.054 446.259 640.859 446.407 640.625C448.294 637.663 453.025 640.41 451.127 643.386L450.85 643.818C449.426 646.013 448.097 647.69 445.594 648.93C443.072 650.178 440.341 650.388 437.559 650.459C428.103 650.708 418.639 650.87 409.173 650.987C407.875 640.862 407.347 630.64 405.559 620.575C405.099 617.986 401.155 619.083 401.613 621.662C403.34 631.382 403.893 641.25 405.099 651.036C384.861 651.254 364.612 651.256 344.389 651.313C316.984 651.394 289.581 651.337 262.177 651.321L250.432 651.318C218.774 651.318 187.115 651.216 155.457 651.006L147.928 650.953C144.933 633.298 142.894 615.493 142.857 597.552C142.851 594.92 138.759 594.915 138.765 597.552C138.803 615.473 140.819 633.28 143.786 650.93C136.291 650.897 128.798 650.924 121.302 651.19L117.487 651.326C109.853 651.587 102.204 651.748 94.5844 651.139C86.1252 650.459 77.5692 648.904 69.9845 644.921C66.5686 643.123 63.5608 640.825 60.9903 638.123C63.6032 636.603 66.2535 635.145 68.7847 633.489C70.9793 632.053 68.932 628.51 66.7195 629.957C63.9919 631.742 61.1248 633.296 58.3164 634.947C56.2829 632.233 54.6141 629.222 53.3467 625.973C51.347 620.843 50.5747 615.324 49.9047 609.893C49.1125 603.496 48.7847 597.046 48.7847 590.603C48.7847 577.051 50.2116 563.539 52.2016 550.15C54.1046 537.323 56.6202 524.6 59.2792 511.917L59.6426 510.188C62.2663 497.719 64.7673 485.215 67.7746 472.834C70.5553 461.385 73.7687 449.989 77.5984 438.814C81.0072 440.922 84.5745 442.766 87.9301 444.961C90.14 446.407 92.1924 442.866 89.9953 441.429C86.4152 439.086 82.5967 437.139 78.9839 434.85C83.2662 422.884 88.2927 411.197 94.319 400.004C106.389 377.588 122.653 357.535 143.484 342.735C153.912 335.33 165.353 329.27 177.367 324.861C189.616 320.361 202.31 317.895 215.29 316.883C215.661 316.854 215.869 317.197 215.854 317.514L215.848 317.573L216.36 317.656C216.549 316.372 216.938 315.129 217.679 313.989C219.367 311.391 222.568 309.724 225.125 308.128L225.732 307.751C228.774 305.865 231.985 304.007 235.523 303.346C235.646 303.325 235.722 303.453 235.641 303.551C233.307 306.226 230.323 308.27 227.588 310.533L226.96 311.057C224.693 312.922 221.532 315.039 221.448 318.156C221.351 321.829 222.103 325.648 222.374 329.311C222.645 332.962 222.834 336.608 222.931 340.27C223.285 353.388 222.86 366.511 221.699 379.578L226.833 376.14C234.824 370.792 242.841 365.458 251.025 360.45C255.976 357.418 261.541 354.825 267.473 354.943C269.135 354.973 271.012 355.214 272.813 355.725C270.874 353.889 269.018 351.936 267.12 350.09C263.995 347.046 260.87 344.004 257.746 340.966L248.736 332.19L239.722 323.414C236.93 320.688 233.656 318.177 233.953 313.881C234.194 310.455 235.937 307.044 237.129 303.74C237.298 303.264 237.451 302.794 237.594 302.328C239.999 294.34 241.364 286.06 243.803 278.103ZM360.254 620.85C358.391 618.986 355.497 621.878 357.362 623.743L358.348 624.725C359.994 626.368 361.627 628.061 362.767 630.092L362.934 630.399C364.162 632.729 367.695 630.664 366.466 628.334C364.948 625.454 362.532 623.129 360.254 620.85ZM280.402 620.324C274.468 619.191 268.75 619.191 262.817 620.324C260.233 620.817 261.327 624.762 263.904 624.27C269.094 623.278 274.124 623.278 279.314 624.27C281.887 624.76 282.989 620.818 280.402 620.324ZM200.273 579.083C197.72 578.437 196.63 582.382 199.186 583.029L200.444 583.344C204.72 584.401 208.793 585.188 213.235 584.207C215.771 583.647 214.746 579.797 212.248 580.242L212.147 580.262C208.037 581.17 204.25 580.091 200.273 579.083ZM342.579 552.509C340.69 550.672 337.794 553.562 339.686 555.401C342.047 557.698 344.83 559.443 348.203 559.536C350.797 559.608 350.834 555.639 348.319 555.45L348.203 555.444C345.943 555.381 344.142 554.028 342.579 552.509ZM101.779 541.582C104.135 540.404 102.065 536.874 99.7144 538.05L85.574 545.119C83.2182 546.297 85.2881 549.827 87.6387 548.652L101.779 541.582ZM381.197 542.484C378.563 542.409 378.565 546.501 381.197 546.575C383.672 546.644 386.208 547.581 388.413 548.652C390.772 549.797 392.849 546.271 390.478 545.119C387.596 543.72 384.431 542.574 381.197 542.484ZM249.075 522.73C251.24 521.258 249.195 517.711 247.009 519.197C244.027 521.223 241.324 523.618 238.389 525.705L237.583 526.267C235.417 527.738 237.462 531.284 239.648 529.799C242.901 527.589 245.821 524.939 249.075 522.73ZM401.229 492.994C398.596 492.993 398.592 497.085 401.229 497.086L401.729 497.084C403.902 497.072 406.192 497.012 408.213 497.88L408.445 497.985C410.814 499.101 412.893 495.574 410.51 494.452C407.548 493.057 404.45 492.996 401.229 492.994ZM174.005 490.072L174.349 489.943C176.809 489.06 175.748 485.104 173.261 485.998C169.513 487.345 166.597 489.888 163.346 492.095C161.18 493.567 163.224 497.113 165.411 495.629C168.212 493.726 170.818 491.317 174.005 490.072ZM327.473 479.428L328.025 479.132C330.367 477.927 328.299 474.396 325.96 475.6C324.103 476.555 322.441 477.826 320.619 478.839L320.068 479.134C317.726 480.339 319.793 483.871 322.133 482.667C323.99 481.711 325.652 480.44 327.473 479.428ZM265.229 439.799L264.807 439.392C262.924 437.549 260.029 440.44 261.914 442.285C266.623 446.893 272.189 450.392 277.804 453.774L278.826 454.388C281.089 455.746 283.148 452.21 280.891 450.855L279.392 449.954C274.399 446.944 269.465 443.836 265.229 439.799ZM152.004 435.98C153.591 433.92 150.141 431.904 148.528 433.844L148.471 433.915C146.82 436.058 144.86 437.999 142.812 439.771L142.427 440.101C141.208 441.138 138.989 443.36 137.276 443.506C134.672 443.728 134.648 447.821 137.276 447.598C139.926 447.372 142.207 445.507 144.209 443.909C147.123 441.583 149.73 438.932 152.004 435.98ZM369.681 421.076C371.583 419.29 368.774 416.447 366.856 418.122L366.789 418.183C363.236 421.52 358.125 422.416 353.551 423.548C350.996 424.181 352.079 428.127 354.639 427.493L356.723 426.979C361.397 425.812 366.086 424.454 369.681 421.076ZM288.65 395.269C286.097 394.62 285.008 398.565 287.563 399.214C291.902 400.317 296.013 401.742 300.035 403.721C302.39 404.879 304.465 401.352 302.101 400.188C297.773 398.059 293.323 396.457 288.65 395.269ZM330.447 309.023C330.386 308.839 330.58 308.629 330.769 308.695C335.361 310.407 332.92 316.42 331.493 320.02L331.235 320.678C329 326.447 325.875 332.062 322.469 337.227C318.904 342.633 314.946 347.809 310.66 352.667C308.8 354.776 306.872 356.825 304.879 358.813L304.128 359.555C302.114 361.535 299.515 365.013 296.39 364.629C293.025 364.224 291.148 360.63 293.603 357.899C295.337 355.966 297.741 354.426 299.679 352.667C301.602 350.928 303.464 349.133 305.279 347.287C308.992 343.497 312.511 339.493 315.728 335.274C318.839 331.194 321.817 327.001 324.524 322.641L325.062 321.767C327.123 318.377 331.88 313.39 330.447 309.023ZM167.767 351.878C165.588 350.388 163.539 353.932 165.702 355.411C169.68 358.13 173.18 361.423 177.486 363.659C179.791 364.857 181.842 361.425 179.633 360.171L179.551 360.127C175.248 357.891 171.743 354.595 167.767 351.878Z" fill="black"/>
<path fill-rule="evenodd" clip-rule="evenodd" d="M366.48 194.963C365.379 184.388 366.804 162.284 366.9 160.941C367.503 152.451 363.863 118.927 356.982 122.016C345.438 112.03 330.064 109.825 315.687 108.772C285.824 106.583 254.056 111.607 230.997 133.567C219.593 144.972 208.491 161.56 209.384 178.831C199.023 195.202 184.416 217.659 197.326 236.798C201.714 242.912 208.688 245.19 214.2 249.82C225.288 259.593 232.244 273.618 243.438 283.333C273.092 312.452 323.445 318.534 352.58 285.414C375.109 261.428 371.466 225.542 367.503 194.963C364.839 174.404 368.629 215.593 366.48 194.963Z" fill="white"/>
<path fill-rule="evenodd" clip-rule="evenodd" d="M275.794 63.9264C283.781 62.1652 291.982 61.0694 300.138 61.3993L300.766 61.426C306.903 61.694 314.674 62.2868 320.028 66.1862C320.336 65.8485 320.831 65.6752 321.28 65.9094C327.642 69.2276 334.639 71.6266 341.337 74.0105C348.004 76.3827 354.922 77.9487 361.91 78.5799C364.539 78.8175 366.789 81.9199 365.125 84.7024C364.729 85.3655 364.343 86.0353 363.959 86.7067C364.601 86.6335 365.244 86.558 365.886 86.487C368.001 86.2544 370.113 88.7206 369.988 90.9703C369.91 92.3853 369.77 93.7836 369.563 95.1651C370.369 95.1467 371.169 95.2786 371.943 95.6358C375.86 97.4434 375.587 102.542 375.294 106.421C374.888 111.803 373.046 117.505 369.625 121.534C372.179 124.433 373.987 127.894 375.065 132.006C375.848 135.008 376.283 138.206 376.068 141.331L376 142.267C375.734 145.659 375.206 149.413 372.973 151.853C371.827 153.111 370.415 153.57 369.069 153.424C369.883 161.24 370.405 169.101 370.896 176.934L371.126 180.677C372.222 198.78 373.045 217.001 372.83 235.134C372.63 252.08 369.565 268.528 360.054 282.287C351.392 294.816 338.955 304.052 324.885 307.563C317.303 309.459 309.562 309.593 301.887 308.385C298.167 307.798 294.423 306.898 290.892 305.478C286.984 303.901 284.175 301.581 281.545 298.104C280.301 296.454 280.9 292.943 283.377 293.273C287.122 293.77 290.542 294.368 294.133 295.578L294.647 295.756C298.224 297.008 301.928 297.942 305.668 298.339C313.327 299.149 321.104 298.333 328.441 295.795C340.387 291.658 350.676 282.438 357.271 270.854C365.099 257.123 365.984 241.536 365.871 225.747C365.75 208.422 365.234 191.087 364.392 173.78L364.249 170.896C363.804 161.989 363.374 153.078 362.996 144.166C362.879 141.37 362.699 138.553 362.377 135.763C359.425 133.873 356.78 131.268 355.056 128.053C351.592 129.619 347.949 130.748 344.598 131.648C336.834 133.735 328.774 134.241 320.872 132.934C318.74 133.897 316.566 134.743 314.359 135.471C313.763 135.76 313.166 136.044 312.57 136.322C307.249 138.81 301.851 140.918 296.234 142.461L294.854 142.837C291.898 143.633 288.687 144.417 285.541 144.663C285.024 144.882 284.466 145.066 283.857 145.228C280.992 145.989 278.019 146.229 275.083 145.961C272.223 145.698 270.156 142.539 271.732 139.581C272.883 137.423 274.045 135.271 275.216 133.124C271.139 134.98 266.928 136.523 262.681 137.832C258.394 139.151 254.045 140.264 249.691 141.287C247.363 141.829 245.025 142.31 242.702 142.852C241.039 143.238 238.486 143.439 237.13 144.636C235.632 145.949 235.207 149.013 234.638 150.903C233.892 153.357 233.191 155.823 232.551 158.316C231.278 163.292 230.234 168.341 229.426 173.439C228.617 178.544 228.074 183.699 227.772 188.87C227.471 194.036 227.604 199.236 227.118 204.379C226.857 207.107 224.176 208.511 222.196 206.604C221.964 206.381 221.73 206.155 221.498 205.926L221.152 205.581C219.458 203.904 217.816 202.126 216.461 200.125C216.215 199.756 215.98 199.37 215.76 198.978C215.724 198.978 215.693 198.967 215.658 198.939L215.282 198.63C211.144 195.265 204.231 190.877 200.196 196.468C198.911 198.249 198.252 200.517 197.706 202.705L196.747 206.621C196.127 209.178 195.544 211.749 195.202 214.364C194.43 220.224 194.818 226.977 198.508 231.674C199.981 233.552 202.012 234.894 204.278 235.246C205.543 235.436 206.791 235.201 208.045 235.028C209.319 234.855 210.546 235.134 211.82 235C213.846 234.782 214.732 237.432 213.974 239.098C213.565 239.993 213.084 240.764 212.537 241.418C212.976 241.832 213.396 242.279 213.8 242.749C214.998 243.168 216.072 244.068 216.875 245.259C217.525 246.221 217.862 247.266 217.919 248.368C217.99 248.642 218.052 248.921 218.108 249.206L219.206 251.153C219.447 251.58 219.688 252.002 219.929 252.416C222.723 257.224 225.824 261.294 229.676 265.129C233.386 268.819 237.412 272.123 240.896 276.082L241.307 276.551C244.555 280.292 247.98 284.821 246.708 290.26C246.381 291.658 244.595 292.664 243.429 291.719C239.679 288.678 237.79 283.858 234.608 280.168C231.333 276.367 227.706 272.951 224.422 269.16C221.316 265.582 218.865 261.529 217.019 257.067C216.281 257.956 215.207 258.588 213.719 258.834C211.16 259.253 208.776 257.615 207.661 255.194C206.944 255.541 206.213 255.854 205.476 256.1C201.598 257.397 199.158 252.684 200.621 249.201C201.403 247.333 202.38 245.712 203.593 244.348C199.802 243.778 195.944 241.636 193.452 238.964C187.201 232.249 186.341 222.158 187.748 213.185C188.495 208.427 189.784 203.613 191.458 199.146C191.749 198.369 192.061 197.586 192.404 196.815C192.214 196.809 192.02 196.72 191.897 196.546C190.766 194.858 189.391 193.477 188.551 191.587C187.778 189.854 186.919 188.099 186.31 186.293C185.057 182.597 184.443 178.427 184.034 174.519C183.19 166.518 183.517 158.568 184.638 150.618C186.545 137.077 191.154 124.118 197.944 112.748C197.574 112.535 197.22 112.279 196.89 111.976L196.727 111.821L196.462 111.559C194.524 109.643 194.692 106.052 196.462 104.112L197.021 103.499C197.729 102.731 198.339 102.122 199.483 101.285C199.652 101.161 199.824 101.045 199.999 100.937C199.4 99.7278 199.192 98.3144 199.609 96.7551C201.062 91.3231 208.215 91.5154 212.748 93.8842C217.764 88.9928 223.325 84.7466 229.353 81.3082C243.71 73.1233 259.944 67.415 275.794 63.9264ZM201.583 206.996C204.264 206.04 207.825 208.047 210.235 209.254C213.289 210.786 215.888 213.051 218.405 215.443C219.659 216.64 219.883 218.597 219.572 220.268C219.541 220.436 219.511 220.609 219.474 220.783C219.142 222.566 217.32 223.969 215.709 223.919C212.337 223.818 210.731 220.637 208.822 217.943C208.597 218.379 208.316 218.781 207.968 219.083L207.732 219.284C206.94 219.943 206.067 220.47 205.021 220.419C204.279 220.38 203.568 220.173 202.913 219.799C201.276 218.854 200.555 216.539 200.999 214.655C201.276 213.47 201.91 212.542 202.739 211.899L202.43 211.668C201.769 211.165 201.166 210.635 200.696 209.853L200.59 209.668H200.631C200.119 208.706 200.452 207.398 201.583 206.996Z" fill="black"/>
<path fill-rule="evenodd" clip-rule="evenodd" d="M328 266.342C324.253 267.579 320.231 267.69 316.412 266.412C312.948 265.252 309.39 262.7 306.841 259.323C304.576 256.323 303.109 252.677 303.167 248.786C303.173 248.341 303.312 247.97 303.527 247.682C303.757 247.372 304.08 247.159 304.425 247.067C304.78 246.972 305.155 247.006 305.475 247.171C305.764 247.321 306.012 247.576 306.167 247.948C306.559 248.535 306.949 249.114 307.341 249.676C310.492 254.114 313.543 257.43 318.28 258.619C320.851 259.265 323.418 258.979 325.773 257.994C328.295 256.94 330.574 255.086 332.36 252.714C333.167 251.642 334.12 251.204 335.052 251.197C336.108 251.189 337.152 251.748 337.938 252.643C338.711 253.522 339.229 254.717 339.276 255.967C339.317 257.064 339.003 258.21 338.168 259.233C335.419 262.601 331.856 265.068 328 266.342ZM327.885 210.763C331.726 213.426 337.579 219.636 333.447 226.238C328.583 232.06 321.58 225.385 318.129 222.366C314.929 220.027 311.334 226.044 314.303 228.775C339.239 249.834 349.358 211.459 329.828 207.631C327.677 207.21 326.879 209.939 327.885 210.763ZM291.954 199.044C290.72 198.144 289.268 197.835 287.658 198.67C286.401 199.322 284.195 201.497 282.659 204.356C281.609 206.312 280.864 208.607 281.019 210.997C281.055 211.552 280.876 211.961 280.592 212.264C280.368 212.503 280.044 212.679 279.664 212.733C279.342 212.78 278.981 212.738 278.687 212.633C278.128 212.435 277.833 212.021 277.721 211.684C276.646 208.428 277.11 204.794 278.314 201.516C279.94 197.092 282.892 193.386 284.827 192.191C288.137 190.146 292.042 190.052 295.357 192.135C298.179 193.909 299.943 196.772 301.698 199.69C302.071 200.311 302.441 200.926 302.824 201.531C303.591 202.744 303.667 203.946 303.37 204.977C303.041 206.119 302.202 207.083 301.153 207.588C300.183 208.054 299.058 208.12 298.062 207.64C297.221 207.236 296.449 206.447 295.961 205.108C295.138 202.854 293.767 200.367 291.954 199.044ZM354.653 204.06C353.808 204.562 353.146 204.714 352.208 204.393C351.69 204.215 351.177 203.875 350.776 203.417C350.378 202.963 350.091 202.399 349.979 201.773C349.705 200.229 348.964 198.783 347.908 197.84C347.006 197.034 345.867 196.607 344.603 196.848C343.24 197.108 341.941 198.105 341.046 199.281C340.747 199.675 340.513 200.122 340.277 200.566C339.836 201.396 339.408 202.167 338.8 202.777C338.57 203.009 338.222 203.169 337.886 203.169C337.749 203.169 337.611 203.144 337.478 203.097C336.121 201.543 335.86 200.365 335.904 199.196C335.95 197.97 336.374 196.729 337.058 195.571C338.665 192.854 341.714 190.627 343.772 190.123C346.59 189.432 349.389 190.261 351.633 192.056C353.942 193.904 355.653 196.772 356.186 200.005C356.314 200.783 356.26 201.623 356 202.352C355.746 203.064 355.303 203.674 354.653 204.06ZM298.17 170.082C296.478 171.961 294.477 172.253 292.451 172.512C291.326 172.657 290.428 172.774 289.544 173.001C287.115 173.627 284.713 174.569 282.522 175.926C280.232 177.344 277.736 179.055 275.94 181.247C275.514 181.768 275.111 182.315 274.708 182.864C274.34 183.364 273.986 183.845 273.613 184.309C273.185 184.843 272.778 185.401 272.373 185.959C272.123 186.429 272.073 186.545 272.023 186.665C271.947 186.846 271.859 187.048 271.758 187.266C271.62 187.563 271.458 187.889 271.289 188.184C271.008 188.724 270.856 188.872 270.726 188.939C270.509 189.049 270.304 189.103 270.104 189.074C269.917 189.046 269.741 188.944 269.567 188.776C268.699 187.939 268.443 186.566 268.469 185.108C268.509 182.896 269.224 180.447 269.884 178.941C271.417 175.443 273.543 171.806 276.1 169.195C279.018 166.214 282.21 163.958 285.876 162.403C288.155 161.437 290.793 160.549 293.275 160.661C295.062 160.742 296.767 161.348 298.176 162.861C299.041 163.79 299.456 165.111 299.456 166.431C299.456 167.777 299.025 169.131 298.17 170.082ZM358.093 187.294C357.985 187.495 357.837 187.633 357.671 187.717C357.497 187.804 357.303 187.829 357.117 187.793C356.932 187.758 356.756 187.662 356.616 187.515C356.483 187.375 356.381 187.189 356.335 186.961C355.212 181.336 353.032 177.15 348.378 174.451C346.089 173.124 343.457 172.28 340.965 171.608C340.241 171.412 339.476 171.285 338.705 171.157C336.29 170.755 333.858 170.294 332.283 168.068C331.335 166.726 330.937 165.011 331.162 163.442C331.374 161.965 332.13 160.611 333.506 159.799C336.93 157.779 341.186 159.761 344.644 161.449C344.901 161.575 345.152 161.698 345.399 161.816C348.781 163.445 351.865 165.594 354.4 168.668C356.412 171.106 358.276 174.711 359.027 178.42C359.651 181.505 359.505 184.655 358.093 187.294Z" fill="black"/>
<path fill-rule="evenodd" clip-rule="evenodd" d="M282.124 269.735C286.259 259.427 295.283 251.851 305.674 249.081C313.304 247.052 321.312 247.117 329.09 247.922C333.165 248.341 337.536 248.685 341.376 250.295C344.656 251.671 347.329 254.272 349.338 257.324C351.73 260.942 353.357 265.082 354.5 269.326C354.662 269.929 354.814 270.537 354.957 271.148C354.46 274.35 353.405 277.075 350.618 279.088C347.899 281.053 344.654 281.858 341.419 282.143C341.102 281.981 340.795 281.815 340.514 281.644C335.474 278.573 331.926 271.316 325.564 272.298C319.886 273.175 316.148 280.778 312.772 285.236C301.934 286.579 291.104 283.114 282.285 276.519C281.837 274.261 281.811 271.985 282.124 269.735ZM362.323 261.916C361.456 259.326 360.364 256.819 359.069 254.457C354.79 246.644 348.221 240.42 340.422 236.862C321.974 228.456 298.105 234.381 283.207 248.167C278.117 252.88 272.972 259.805 271.415 267.254C270.951 267.352 270.512 267.61 270.151 267.972C259.387 260.761 248.303 253.822 239.629 243.826C233.33 236.562 228.949 227.967 226.266 218.521C226.047 217.744 224.869 217.858 224.904 218.718C224.914 218.919 224.925 219.12 224.935 219.321C224.823 218.951 224.292 219.142 224.251 219.501C222.808 230.975 221.002 243.14 222.665 254.674C223.66 261.557 226.598 266.595 230.525 272.036C234.733 277.867 239.496 283.292 244.367 288.493C247.458 291.795 250.687 295.604 254.471 298.025C258.873 300.838 263.866 302.976 268.563 305.147C273.342 307.361 278.193 309.407 283.135 311.18C293.015 314.738 303.225 317.197 313.615 318.275C321.934 319.134 331.441 320.071 339.413 316.74C345.523 314.189 350.455 309.576 354.367 304.026C358.626 297.981 361.992 291.096 363.854 283.836C365.788 276.294 362.73 263.132 362.323 261.916Z" fill="black"/>
</g>
<defs>
<linearGradient id="paint0_linear" x1="-2.71978e-06" y1="274.978" x2="538" y2="274.978" gradientUnits="userSpaceOnUse">
<stop stop-color="#FFE2A0"/>
<stop offset="1" stop-color="#FF739C"/>
</linearGradient>
<linearGradient id="paint1_linear" x1="48.0102" y1="120.481" x2="156.559" y2="171.638" gradientUnits="userSpaceOnUse">
<stop stop-color="#E0F787"/>
<stop offset="1" stop-color="#4EE3FA"/>
</linearGradient>
<linearGradient id="paint2_linear" x1="50.6559" y1="333.101" x2="50.8528" y2="383.533" gradientUnits="userSpaceOnUse">
<stop stop-color="#E0F787"/>
<stop offset="1" stop-color="#4EE3FA"/>
</linearGradient>
<linearGradient id="paint3_linear" x1="460.762" y1="280.111" x2="484.773" y2="204.272" gradientUnits="userSpaceOnUse">
<stop stop-color="#E0F787"/>
<stop offset="1" stop-color="#4EE3FA"/>
</linearGradient>
</defs>
</svg>
