<svg viewBox="0 0 964 769" fill="none" xmlns="http://www.w3.org/2000/svg">
<rect x="362" y="76" width="159" height="302" rx="8" fill="#F2F2F2"/>
<path fill-rule="evenodd" clip-rule="evenodd" d="M441 359C449.284 359 456 352.284 456 344C456 335.716 449.284 329 441 329C432.716 329 426 335.716 426 344C426 352.284 432.716 359 441 359Z" fill="white"/>
<path fill-rule="evenodd" clip-rule="evenodd" d="M428 96C429.105 96 430 95.1046 430 94C430 92.8954 429.105 92 428 92C426.895 92 426 92.8954 426 94C426 95.1046 426.895 96 428 96Z" fill="white"/>
<rect x="435" y="92" width="21" height="4" rx="2" fill="white"/>
<rect x="376" y="104" width="131" height="54" rx="4" fill="white"/>
<g clip-path="url(#clip0)">
<rect x="415" y="120.2" width="73" height="8.1" rx="3" fill="#DDE3E9"/>
<rect x="415" y="133.7" width="49" height="8.1" rx="3" fill="#DDE3E9"/>
</g>
<path fill-rule="evenodd" clip-rule="evenodd" d="M397 143C403.627 143 409 137.627 409 131C409 124.373 403.627 119 397 119C390.373 119 385 124.373 385 131C385 137.627 390.373 143 397 143Z" fill="#C5CFD6"/>
<rect x="376" y="166" width="131" height="42" rx="4" fill="white"/>
<g clip-path="url(#clip1)">
<rect x="415" y="178.6" width="73" height="6.3" rx="3" fill="#DDE3E9"/>
<rect x="415" y="189.1" width="49" height="6.3" rx="3" fill="#DDE3E9"/>
</g>
<path fill-rule="evenodd" clip-rule="evenodd" d="M397 199C403.627 199 409 193.627 409 187C409 180.373 403.627 175 397 175C390.373 175 385 180.373 385 187C385 193.627 390.373 199 397 199Z" fill="#C5CFD6"/>
<rect x="376" y="216" width="131" height="42" rx="4" fill="white"/>
<g clip-path="url(#clip2)">
<rect x="415" y="228.6" width="73" height="6.3" rx="3" fill="#DDE3E9"/>
<rect x="415" y="239.1" width="49" height="6.3" rx="3" fill="#DDE3E9"/>
</g>
<path fill-rule="evenodd" clip-rule="evenodd" d="M397 249C403.627 249 409 243.627 409 237C409 230.373 403.627 225 397 225C390.373 225 385 230.373 385 237C385 243.627 390.373 249 397 249Z" fill="#AFB9C5"/>
<rect x="376" y="266" width="131" height="42" rx="4" fill="white"/>
<g clip-path="url(#clip3)">
<rect x="415" y="278.6" width="73" height="6.3" rx="3" fill="#DDE3E9"/>
<rect x="415" y="289.1" width="49" height="6.3" rx="3" fill="#DDE3E9"/>
</g>
<path fill-rule="evenodd" clip-rule="evenodd" d="M397 299C403.627 299 409 293.627 409 287C409 280.373 403.627 275 397 275C390.373 275 385 280.373 385 287C385 293.627 390.373 299 397 299Z" fill="#C5CFD6"/>
<rect x="428" y="102" width="159" height="302" rx="8" fill="#DDE3E9"/>
<path fill-rule="evenodd" clip-rule="evenodd" d="M507 385C515.284 385 522 378.284 522 370C522 361.716 515.284 355 507 355C498.716 355 492 361.716 492 370C492 378.284 498.716 385 507 385Z" fill="white"/>
<path fill-rule="evenodd" clip-rule="evenodd" d="M494 122C495.105 122 496 121.105 496 120C496 118.895 495.105 118 494 118C492.895 118 492 118.895 492 120C492 121.105 492.895 122 494 122Z" fill="white"/>
<rect x="501" y="118" width="21" height="4" rx="2" fill="white"/>
<rect x="442" y="130" width="131" height="54" rx="4" fill="white"/>
<g clip-path="url(#clip4)">
<rect x="451" y="146.2" width="73" height="8.1" rx="3" fill="#DDE3E9"/>
<rect x="451" y="159.7" width="49" height="8.1" rx="3" fill="#DDE3E9"/>
</g>
<path fill-rule="evenodd" clip-rule="evenodd" d="M559 164C562.866 164 566 160.866 566 157C566 153.134 562.866 150 559 150C555.134 150 552 153.134 552 157C552 160.866 555.134 164 559 164Z" fill="#DDE3E9"/>
<path fill-rule="evenodd" clip-rule="evenodd" d="M559 160C560.657 160 562 158.657 562 157C562 155.343 560.657 154 559 154C557.343 154 556 155.343 556 157C556 158.657 557.343 160 559 160Z" fill="#F2F2F2"/>
<rect x="442" y="192" width="131" height="42" rx="4" fill="white"/>
<g clip-path="url(#clip5)">
<rect x="481" y="204.6" width="73" height="6.3" rx="3" fill="#DDE3E9"/>
<rect x="481" y="215.1" width="49" height="6.3" rx="3" fill="#DDE3E9"/>
</g>
<path fill-rule="evenodd" clip-rule="evenodd" d="M463 225C469.627 225 475 219.627 475 213C475 206.373 469.627 201 463 201C456.373 201 451 206.373 451 213C451 219.627 456.373 225 463 225Z" fill="#C5CFD6"/>
<rect x="442" y="242" width="131" height="42" rx="4" fill="white"/>
<g clip-path="url(#clip6)">
<rect x="451" y="254.6" width="73" height="6.3" rx="3" fill="#DDE3E9"/>
<rect x="451" y="265.1" width="49" height="6.3" rx="3" fill="#AFB9C5"/>
</g>
<path fill-rule="evenodd" clip-rule="evenodd" d="M559 270C562.866 270 566 266.866 566 263C566 259.134 562.866 256 559 256C555.134 256 552 259.134 552 263C552 266.866 555.134 270 559 270Z" fill="#DDE3E9"/>
<path fill-rule="evenodd" clip-rule="evenodd" d="M559 266C560.657 266 562 264.657 562 263C562 261.343 560.657 260 559 260C557.343 260 556 261.343 556 263C556 264.657 557.343 266 559 266Z" fill="#F2F2F2"/>
<rect x="442" y="292" width="131" height="42" rx="4" fill="white"/>
<g clip-path="url(#clip7)">
<rect x="481" y="304.6" width="73" height="6.3" rx="3" fill="#DDE3E9"/>
<rect x="481" y="315.1" width="49" height="6.3" rx="3" fill="#DDE3E9"/>
</g>
<path fill-rule="evenodd" clip-rule="evenodd" d="M463 325C469.627 325 475 319.627 475 313C475 306.373 469.627 301 463 301C456.373 301 451 306.373 451 313C451 319.627 456.373 325 463 325Z" fill="#C5CFD6"/>
<rect x="494" y="127" width="335" height="346" rx="8" fill="#F2F2F2"/>
<rect x="743" y="170" width="70" height="81" rx="8" fill="white"/>
<path fill-rule="evenodd" clip-rule="evenodd" d="M778 217C786.837 217 794 209.837 794 201C794 192.163 786.837 185 778 185C769.163 185 762 192.163 762 201C762 209.837 769.163 217 778 217Z" fill="#DDE3E9"/>
<rect x="753" y="221" width="50" height="6" rx="3" fill="#DDE3E9"/>
<rect x="761" y="231" width="34" height="6" rx="3" fill="#DDE3E9"/>
<path d="M494 135C494 130.582 497.582 127 502 127H821C825.418 127 829 130.582 829 135V154H494V135Z" fill="#C5CFD6"/>
<path fill-rule="evenodd" clip-rule="evenodd" d="M507 145C509.209 145 511 143.209 511 141C511 138.791 509.209 137 507 137C504.791 137 503 138.791 503 141C503 143.209 504.791 145 507 145Z" fill="#F2F2F2"/>
<path fill-rule="evenodd" clip-rule="evenodd" d="M519 145C521.209 145 523 143.209 523 141C523 138.791 521.209 137 519 137C516.791 137 515 138.791 515 141C515 143.209 516.791 145 519 145Z" fill="#F2F2F2"/>
<path fill-rule="evenodd" clip-rule="evenodd" d="M531 145C533.209 145 535 143.209 535 141C535 138.791 533.209 137 531 137C528.791 137 527 138.791 527 141C527 143.209 528.791 145 531 145Z" fill="#F2F2F2"/>
<rect x="743" y="259" width="70" height="194" rx="8" fill="white"/>
<rect x="761" y="277" width="34" height="26" rx="4" fill="#DDE3E9"/>
<rect x="761" y="311" width="34" height="25" rx="4" fill="#AFB9C5"/>
<rect x="761" y="344" width="34" height="25" rx="4" fill="#DDE3E9"/>
<rect x="761" y="410" width="34" height="25" rx="4" fill="#DDE3E9"/>
<rect x="761" y="377" width="34" height="25" rx="4" fill="#C5CFD6"/>
<rect x="510" y="171" width="225" height="47" rx="4" fill="white"/>
<g clip-path="url(#clip8)">
<rect x="519" y="185.1" width="167" height="7.05" rx="3" fill="#DDE3E9"/>
<rect x="519" y="196.85" width="112.096" height="7.05" rx="3" fill="#DDE3E9"/>
</g>
<path fill-rule="evenodd" clip-rule="evenodd" d="M710.954 201.5C714.82 201.5 717.954 198.366 717.954 194.5C717.954 190.634 714.82 187.5 710.954 187.5C707.088 187.5 703.954 190.634 703.954 194.5C703.954 198.366 707.088 201.5 710.954 201.5Z" fill="#DDE3E9"/>
<path fill-rule="evenodd" clip-rule="evenodd" d="M710.954 197.5C712.611 197.5 713.954 196.157 713.954 194.5C713.954 192.843 712.611 191.5 710.954 191.5C709.297 191.5 707.954 192.843 707.954 194.5C707.954 196.157 709.297 197.5 710.954 197.5Z" fill="#F2F2F2"/>
<rect x="510" y="226" width="225" height="39" rx="4" fill="white"/>
<g clip-path="url(#clip9)">
<rect x="519" y="237.7" width="167" height="5.85" rx="2.925" fill="#DDE3E9"/>
<rect x="519" y="247.45" width="112.096" height="5.85" rx="2.925" fill="#DDE3E9"/>
</g>
<path fill-rule="evenodd" clip-rule="evenodd" d="M710.954 252.5C714.82 252.5 717.954 249.366 717.954 245.5C717.954 241.634 714.82 238.5 710.954 238.5C707.088 238.5 703.954 241.634 703.954 245.5C703.954 249.366 707.088 252.5 710.954 252.5Z" fill="#DDE3E9"/>
<path fill-rule="evenodd" clip-rule="evenodd" d="M710.954 248.5C712.611 248.5 713.954 247.157 713.954 245.5C713.954 243.843 712.611 242.5 710.954 242.5C709.297 242.5 707.954 243.843 707.954 245.5C707.954 247.157 709.297 248.5 710.954 248.5Z" fill="#F2F2F2"/>
<rect x="510" y="273" width="225" height="39" rx="4" fill="white"/>
<g clip-path="url(#clip10)">
<rect x="519" y="284.7" width="167" height="5.85" rx="2.925" fill="#DDE3E9"/>
<rect x="519" y="294.45" width="112.096" height="5.85" rx="2.925" fill="#DDE3E9"/>
</g>
<path fill-rule="evenodd" clip-rule="evenodd" d="M710.954 299.5C714.82 299.5 717.954 296.366 717.954 292.5C717.954 288.634 714.82 285.5 710.954 285.5C707.088 285.5 703.954 288.634 703.954 292.5C703.954 296.366 707.088 299.5 710.954 299.5Z" fill="#DDE3E9"/>
<path fill-rule="evenodd" clip-rule="evenodd" d="M710.954 295.5C712.611 295.5 713.954 294.157 713.954 292.5C713.954 290.843 712.611 289.5 710.954 289.5C709.297 289.5 707.954 290.843 707.954 292.5C707.954 294.157 709.297 295.5 710.954 295.5Z" fill="#AFB9C5"/>
<rect x="510" y="414" width="225" height="39" rx="4" fill="white"/>
<g clip-path="url(#clip11)">
<rect x="519" y="425.7" width="167" height="5.85" rx="2.925" fill="#DDE3E9"/>
<rect x="519" y="435.45" width="112.096" height="5.85" rx="2.925" fill="#DDE3E9"/>
</g>
<path fill-rule="evenodd" clip-rule="evenodd" d="M710.954 440.5C714.82 440.5 717.954 437.366 717.954 433.5C717.954 429.634 714.82 426.5 710.954 426.5C707.088 426.5 703.954 429.634 703.954 433.5C703.954 437.366 707.088 440.5 710.954 440.5Z" fill="#DDE3E9"/>
<path fill-rule="evenodd" clip-rule="evenodd" d="M710.954 436.5C712.611 436.5 713.954 435.157 713.954 433.5C713.954 431.843 712.611 430.5 710.954 430.5C709.297 430.5 707.954 431.843 707.954 433.5C707.954 435.157 709.297 436.5 710.954 436.5Z" fill="#F2F2F2"/>
<rect x="510" y="367" width="225" height="39" rx="4" fill="white"/>
<g clip-path="url(#clip12)">
<rect x="519" y="378.7" width="167" height="5.85" rx="2.925" fill="#DDE3E9"/>
<rect x="519" y="388.45" width="112.096" height="5.85" rx="2.925" fill="#DDE3E9"/>
</g>
<path fill-rule="evenodd" clip-rule="evenodd" d="M710.954 393.5C714.82 393.5 717.954 390.366 717.954 386.5C717.954 382.634 714.82 379.5 710.954 379.5C707.088 379.5 703.954 382.634 703.954 386.5C703.954 390.366 707.088 393.5 710.954 393.5Z" fill="#DDE3E9"/>
<path fill-rule="evenodd" clip-rule="evenodd" d="M710.954 389.5C712.611 389.5 713.954 388.157 713.954 386.5C713.954 384.843 712.611 383.5 710.954 383.5C709.297 383.5 707.954 384.843 707.954 386.5C707.954 388.157 709.297 389.5 710.954 389.5Z" fill="#F2F2F2"/>
<rect x="510" y="320" width="225" height="39" rx="4" fill="white"/>
<g clip-path="url(#clip13)">
<rect x="519" y="331.7" width="167" height="5.85" rx="2.925" fill="#DDE3E9"/>
<rect x="519" y="341.45" width="112.096" height="5.85" rx="2.925" fill="#DDE3E9"/>
</g>
<path fill-rule="evenodd" clip-rule="evenodd" d="M710.954 346.5C714.82 346.5 717.954 343.366 717.954 339.5C717.954 335.634 714.82 332.5 710.954 332.5C707.088 332.5 703.954 335.634 703.954 339.5C703.954 343.366 707.088 346.5 710.954 346.5Z" fill="#DDE3E9"/>
<path fill-rule="evenodd" clip-rule="evenodd" d="M710.954 342.5C712.611 342.5 713.954 341.157 713.954 339.5C713.954 337.843 712.611 336.5 710.954 336.5C709.297 336.5 707.954 337.843 707.954 339.5C707.954 341.157 709.297 342.5 710.954 342.5Z" fill="#F2F2F2"/>
<rect x="744" y="84" width="6" height="25" rx="3" fill="#DDE3E9"/>
<rect x="758" y="68" width="6" height="41" rx="3" fill="#DDE3E9"/>
<rect x="772" y="60" width="6" height="49" rx="3" fill="#DDE3E9"/>
<rect x="786" y="68" width="6" height="41" rx="3" fill="#DDE3E9"/>
<rect x="800" y="52" width="6" height="57" rx="3" fill="#C5CFD6"/>
<path fill-rule="evenodd" clip-rule="evenodd" d="M358 426.256C358 415.117 367.002 406 378 406V426.256L364.332 441C360.444 437.395 358 432.107 358 426.256Z" fill="#F2F2F2"/>
<path fill-rule="evenodd" clip-rule="evenodd" d="M377.471 426H397.668C397.668 431.221 395.538 436.113 392.171 439.668C388.468 443.556 383.195 446 377.471 446C372.198 446 367.372 443.891 363.668 440.557L377.471 426Z" fill="#AFB9C5"/>
<path fill-rule="evenodd" clip-rule="evenodd" d="M398 426C398 415.002 388.998 406 378 406V426H398ZM368 406L376 424L358 416C359.78 411.334 363.777 407.78 368 406Z" fill="#C5CFD6"/>
<path fill-rule="evenodd" clip-rule="evenodd" d="M902.766 367.179C900.845 369.219 898.123 370.5 895.095 370.5C889.278 370.5 884.562 365.799 884.562 360C884.562 354.201 889.278 349.5 895.095 349.5V330C878.546 330 865 343.503 865 360C865 376.497 878.546 390 895.095 390C903.788 390 911.645 386.334 917 380.502L902.766 367.179Z" fill="#F2F2F2"/>
<path fill-rule="evenodd" clip-rule="evenodd" d="M895 330V349.5C900.799 349.5 905.5 354.201 905.5 360H925C925 343.503 911.497 330 895 330Z" fill="#AFB9C5"/>
<path fill-rule="evenodd" clip-rule="evenodd" d="M905.097 360C905.097 363.407 903.492 366.435 901 368.391L913.262 384C920.399 378.412 925 369.749 925 360H905.097Z" fill="#C5CFD6"/>
<path fill-rule="evenodd" clip-rule="evenodd" d="M712.051 91.5039C710.573 93.0679 708.479 94.05 706.15 94.05C701.675 94.05 698.048 90.4459 698.048 86C698.048 81.5541 701.675 77.95 706.15 77.95V63C693.42 63 683 73.3523 683 86C683 98.6477 693.42 109 706.15 109C712.837 109 718.88 106.189 723 101.718L712.051 91.5039Z" fill="#F2F2F2"/>
<path fill-rule="evenodd" clip-rule="evenodd" d="M706 63V77.95C710.446 77.95 714.05 81.5541 714.05 86H729C729 73.3523 718.648 63 706 63Z" fill="#AFB9C5"/>
<path fill-rule="evenodd" clip-rule="evenodd" d="M714.073 86C714.073 88.5552 712.869 90.8266 711 92.2931L720.196 104C725.55 99.8088 729 93.312 729 86H714.073Z" fill="#C5CFD6"/>
<path fill-rule="evenodd" clip-rule="evenodd" d="M348.007 108.986C348.003 108.996 347.999 109.006 347.993 109.018C347.999 109.008 348.007 108.968 348.007 108.986" fill="#C5CFD6"/>
<path fill-rule="evenodd" clip-rule="evenodd" d="M347.998 109.001C347.998 109.003 347.996 109.007 347.996 109.011C347.996 109.001 348.014 108.971 347.998 109.001" fill="#C5CFD6"/>
<path fill-rule="evenodd" clip-rule="evenodd" d="M348.067 108.832C348.053 108.872 348.035 108.91 348.019 108.95C348.027 108.93 348.035 108.914 348.043 108.894C347.835 109.414 347.967 109.076 348.067 108.832" fill="#C5CFD6"/>
<path fill-rule="evenodd" clip-rule="evenodd" d="M348.022 108.953C348.014 108.971 348.006 108.991 347.998 109.009C347.94 109.121 348.022 108.953 348.022 108.953" fill="#C5CFD6"/>
<path fill-rule="evenodd" clip-rule="evenodd" d="M347.999 109.002C347.999 109 347.999 109 348.001 108.998C347.999 109 347.999 109 347.999 109.002" fill="#C5CFD6"/>
<path fill-rule="evenodd" clip-rule="evenodd" d="M347.99 109.016C347.978 109.04 348.046 108.924 347.99 109.016Z" fill="#C5CFD6"/>
<path fill-rule="evenodd" clip-rule="evenodd" d="M347.998 109.002L348.002 108.998C348 109 348 109.002 347.998 109.002" fill="#C5CFD6"/>
<rect x="300" y="57" width="95" height="63" rx="4" fill="#DDE3E9"/>
<path fill-rule="evenodd" clip-rule="evenodd" d="M336 75L308 120H364L336 75Z" fill="#AFB9C5"/>
<path fill-rule="evenodd" clip-rule="evenodd" d="M363.5 87L339 120H388L363.5 87Z" fill="#C5CFD6"/>
<path fill-rule="evenodd" clip-rule="evenodd" d="M374 87C378.971 87 383 82.9706 383 78C383 73.0294 378.971 69 374 69C369.029 69 365 73.0294 365 78C365 82.9706 369.029 87 374 87Z" fill="white"/>
<path fill-rule="evenodd" clip-rule="evenodd" d="M824.993 535.986C824.997 535.996 825.001 536.006 825.007 536.018C825.001 536.008 824.993 535.968 824.993 535.986" fill="#C5CFD6"/>
<path fill-rule="evenodd" clip-rule="evenodd" d="M825.002 536.001C825.002 536.003 825.004 536.007 825.004 536.011C825.004 536.001 824.986 535.971 825.002 536.001" fill="#C5CFD6"/>
<path fill-rule="evenodd" clip-rule="evenodd" d="M824.933 535.832C824.947 535.872 824.965 535.91 824.981 535.95C824.973 535.93 824.965 535.914 824.957 535.894C825.165 536.414 825.033 536.076 824.933 535.832" fill="#C5CFD6"/>
<path fill-rule="evenodd" clip-rule="evenodd" d="M824.978 535.953C824.986 535.971 824.994 535.991 825.002 536.009C825.06 536.121 824.978 535.953 824.978 535.953" fill="#C5CFD6"/>
<path fill-rule="evenodd" clip-rule="evenodd" d="M825.001 536.002C825.001 536 825.001 536 824.999 535.998C825.001 536 825.001 536 825.001 536.002" fill="#C5CFD6"/>
<path fill-rule="evenodd" clip-rule="evenodd" d="M825.01 536.016C825.022 536.04 824.954 535.924 825.01 536.016Z" fill="#C5CFD6"/>
<path fill-rule="evenodd" clip-rule="evenodd" d="M825.002 536.002L824.998 535.998C825 536 825 536.002 825.002 536.002" fill="#C5CFD6"/>
<rect width="142" height="94" rx="4" transform="matrix(-1 0 0 1 896 459)" fill="#DDE3E9"/>
<path fill-rule="evenodd" clip-rule="evenodd" d="M843.274 486L884.329 553H802.219L843.274 486Z" fill="#AFB9C5"/>
<path fill-rule="evenodd" clip-rule="evenodd" d="M800.944 503.946L837.239 553H764.649L800.944 503.946Z" fill="#C5CFD6"/>
<path fill-rule="evenodd" clip-rule="evenodd" d="M785.5 504C778.044 504 772 497.956 772 490.5C772 483.044 778.044 477 785.5 477C792.956 477 799 483.044 799 490.5C799 497.956 792.956 504 785.5 504Z" fill="white"/>
<path fill-rule="evenodd" clip-rule="evenodd" d="M155.935 418.244C162.411 422.147 168.774 424.033 171.76 423.263C179.25 421.333 179.938 393.935 174.143 383.134C168.349 372.333 138.558 367.625 137.057 389.025C136.536 396.453 139.654 403.081 144.262 408.49L136 447H160L155.935 418.244Z" fill="#D4A181"/>
<path fill-rule="evenodd" clip-rule="evenodd" d="M142.418 413.308C139.406 399.906 130.825 390.771 132.135 384.782C133.446 378.792 139.121 377.332 139.121 377.332C139.121 377.332 142.057 365.457 158.056 367.23C174.055 369.004 183.819 375.648 179.602 390.268C175.726 390.268 171.046 388.866 164.576 391.268C161.496 392.411 160.17 398.358 160.17 398.358H157.246C157.246 398.358 152.989 391.301 148.851 393.171C144.713 395.042 146.97 402.259 146.97 402.259L145.529 413.308H142.418Z" fill="#3D2216"/>
<path fill-rule="evenodd" clip-rule="evenodd" d="M92.6226 572H169.877L180 696H65L92.6226 572Z" fill="#C5CFD6"/>
<path fill-rule="evenodd" clip-rule="evenodd" d="M92.6226 572H116.383L130.604 696H65L92.6226 572Z" fill="black" fill-opacity="0.1"/>
<path fill-rule="evenodd" clip-rule="evenodd" d="M212.323 596.567C203.642 614.978 190.077 659.672 190.077 659.672L201.593 664.934C201.593 664.934 230.814 617.952 248.672 585.836C247.84 593.066 246.993 601.206 246.208 609.763C244.347 630.033 246.207 673.827 247.208 686.477C247.837 694.428 258.64 692.762 259.648 686.457C259.819 685.389 260.515 681.639 261.554 676.045C266.647 648.613 279.976 576.818 280 559.238C280.009 552.165 266.19 545.81 257.953 550.756C252.295 544.719 241.588 541.24 235.436 551.212C231.525 557.552 222.233 575.55 212.323 596.567Z" fill="#D4A181"/>
<path fill-rule="evenodd" clip-rule="evenodd" d="M190.9 643.125L230.427 549.487C239.897 534.255 266.446 552.587 263.217 561.422C255.885 581.479 218.6 646.414 216.415 652.39L190.9 643.125Z" fill="#2F3676"/>
<path fill-rule="evenodd" clip-rule="evenodd" d="M191.664 654.185C190.971 653.241 189.63 653.017 188.734 653.771C187.099 655.146 184.748 657.264 183.899 658.734C182.547 661.076 180.733 666.021 180.733 666.021C183.45 667.59 229.578 694.222 229.578 694.222C229.578 694.222 235.116 689.027 231.304 686.156C227.491 683.286 225.012 681.315 225.012 681.315L208.152 658.087C207.821 657.631 207.179 657.538 206.733 657.882L203.23 660.579C203.23 660.579 198.409 660.158 196.035 658.788C194.589 657.953 192.824 655.767 191.664 654.185Z" fill="#E4E4E4"/>
<path fill-rule="evenodd" clip-rule="evenodd" d="M247.45 680.284C246.378 679.813 245.104 680.29 244.705 681.391C243.977 683.398 243 686.409 243 688.106C243 690.811 243.901 696 243.901 696C247.039 696 300.303 696 300.303 696C300.303 696 302.502 688.732 297.765 688.152C293.028 687.573 289.895 687.106 289.895 687.106L263.68 675.419C263.165 675.189 262.563 675.43 262.348 675.951L260.663 680.039C260.663 680.039 256.278 682.085 253.537 682.085C251.868 682.085 249.246 681.074 247.45 680.284Z" fill="#E4E4E4"/>
<path fill-rule="evenodd" clip-rule="evenodd" d="M282.77 566.433C282.77 593 270.154 654.97 270.146 660.82L243 660.841C243 660.841 248.96 577.898 247.227 577.004C245.493 576.111 176.176 583.925 155.386 583.925C125.408 583.925 113.006 565.02 112 530H171.386C183.478 531.294 246.549 544.015 269.972 548.388C280 550.261 282.77 559.115 282.77 566.433Z" fill="#5C63AB"/>
<path fill-rule="evenodd" clip-rule="evenodd" d="M251.36 415.962L213.456 427.341L223.134 443.463L252.605 426.118C266.362 425.299 272.862 423.942 272.105 422.048C271.466 420.451 269.947 420.179 268.548 419.928C267.458 419.733 266.441 419.55 265.969 418.765C264.892 416.971 268.667 412.301 272.438 408.023C276.21 403.745 273.192 403.546 271.369 403.889C265.101 406.433 258.431 410.458 251.36 415.962ZM242.005 517.592L210.107 494.168L203.055 511.599L234.643 524.698C243.577 535.192 248.572 539.566 249.629 537.822C250.521 536.351 249.824 534.974 249.182 533.705C248.682 532.717 248.215 531.795 248.559 530.946C249.344 529.006 255.345 529.21 261.031 529.648C266.717 530.085 265.06 527.555 263.689 526.305C257.885 522.831 250.657 519.926 242.005 517.592Z" fill="#D4A181"/>
<path fill-rule="evenodd" clip-rule="evenodd" d="M160.561 431.087C177.931 463.476 203.05 488.305 239.466 514.116L225.677 529.663C185.018 514.553 163.559 505.436 153.021 474.835C150.376 467.154 148.528 442.671 146.942 429.789L160.561 431.087Z" fill="url(#paint0_linear)"/>
<path fill-rule="evenodd" clip-rule="evenodd" d="M112 539H189C189 539 162.837 459.208 162.27 429.472C162.251 428.461 160.384 426.68 159.559 426.913C150.5 429.472 140.172 425 140.172 425C121.917 454.358 115.605 490.505 112 539Z" fill="#DDE3E9"/>
<path fill-rule="evenodd" clip-rule="evenodd" d="M159.486 469.791C171.512 521.377 170.958 563.606 144.407 563.606H103.351C96.8304 519.784 113.968 459.024 129.856 428.377C130.463 427.206 131.754 425 134.797 425H146.727C146.732 425.016 146.737 425.032 146.743 425.047C150.332 425.077 154.286 425.208 158.567 425.35C180.608 426.082 211.341 427.102 245.923 416L250 436.373C218.787 456.448 187.181 471.999 159.486 469.791Z" fill="url(#paint1_linear)"/>
<defs>
<linearGradient id="paint0_linear" x1="201.233" y1="441.985" x2="180.951" y2="517.679" gradientUnits="userSpaceOnUse">
<stop stop-color="#F8C6D7"/>
<stop offset="1" stop-color="#AFE9F9"/>
</linearGradient>
<linearGradient id="paint1_linear" x1="175.965" y1="416" x2="175.965" y2="563.606" gradientUnits="userSpaceOnUse">
<stop stop-color="#F8C6D7"/>
<stop offset="1" stop-color="#AFE9F9"/>
</linearGradient>
<clipPath id="clip0">
<rect x="415" y="120.2" width="73" height="21.6" fill="white"/>
</clipPath>
<clipPath id="clip1">
<rect x="415" y="178.6" width="73" height="16.8" fill="white"/>
</clipPath>
<clipPath id="clip2">
<rect x="415" y="228.6" width="73" height="16.8" fill="white"/>
</clipPath>
<clipPath id="clip3">
<rect x="415" y="278.6" width="73" height="16.8" fill="white"/>
</clipPath>
<clipPath id="clip4">
<rect x="451" y="146.2" width="73" height="21.6" fill="white"/>
</clipPath>
<clipPath id="clip5">
<rect x="481" y="204.6" width="73" height="16.8" fill="white"/>
</clipPath>
<clipPath id="clip6">
<rect x="451" y="254.6" width="73" height="16.8" fill="white"/>
</clipPath>
<clipPath id="clip7">
<rect x="481" y="304.6" width="73" height="16.8" fill="white"/>
</clipPath>
<clipPath id="clip8">
<rect x="519" y="185.1" width="167" height="18.8" fill="white"/>
</clipPath>
<clipPath id="clip9">
<rect x="519" y="237.7" width="167" height="15.6" fill="white"/>
</clipPath>
<clipPath id="clip10">
<rect x="519" y="284.7" width="167" height="15.6" fill="white"/>
</clipPath>
<clipPath id="clip11">
<rect x="519" y="425.7" width="167" height="15.6" fill="white"/>
</clipPath>
<clipPath id="clip12">
<rect x="519" y="378.7" width="167" height="15.6" fill="white"/>
</clipPath>
<clipPath id="clip13">
<rect x="519" y="331.7" width="167" height="15.6" fill="white"/>
</clipPath>
</defs>
</svg>
