<?xml version="1.0" encoding="UTF-8" standalone="no"?><!DOCTYPE svg PUBLIC "-//W3C//DTD SVG 1.1//EN" "http://www.w3.org/Graphics/SVG/1.1/DTD/svg11.dtd"><svg width="100%" height="100%" viewBox="0 0 320 304" version="1.1" xmlns="http://www.w3.org/2000/svg" xmlns:xlink="http://www.w3.org/1999/xlink" xml:space="preserve" xmlns:serif="http://www.serif.com/" style="fill-rule:evenodd;clip-rule:evenodd;stroke-linecap:round;stroke-linejoin:round;stroke-miterlimit:1.5;"><g id="queen"><g id="legs"><path id="back-right" d="M196.046,157.078c7.428,6.81 14.42,14.754 21.524,23.365l17.843,27.188c-0.723,1.968 -0.788,3.906 0,5.806l6.042,9.03c0.732,9.712 2.672,19.152 5.627,28.364l0,2.9c-1.297,0.977 -1.644,2.059 0,3.364l12.238,22.505c2.985,1.374 4.581,0.248 4.988,-3.016c-2.92,-6.982 -4.998,-14.115 -6.206,-21.403l0,-3.016c0.909,-4.97 0.14,-10.224 -1.149,-15.567c-2.384,-10.656 -6.472,-20.806 -11.575,-30.654c-11.485,-22.043 -26.986,-40.639 -46.376,-55.899l-11.895,-2.407l0,7.08l8.939,2.36Z" style="fill:#060709;"/><path id="back-left" d="M125.315,156.539c-7.301,6.947 -14.145,15.018 -21.089,23.759l-17.338,27.514c0.759,1.954 0.86,3.891 0.108,5.805l-5.875,9.14c-0.552,9.723 -2.318,19.197 -5.101,28.462l0.053,2.9c1.314,0.953 1.681,2.029 0.062,3.363l-11.82,22.727c-2.96,1.429 -4.576,0.334 -5.043,-2.923c2.79,-7.034 4.736,-14.204 5.809,-21.514l-0.055,-3.015c-1.002,-4.952 -0.329,-10.22 0.861,-15.586c2.186,-10.698 6.086,-20.921 11.007,-30.862c11.075,-22.251 26.23,-41.131 45.335,-56.746l11.848,-2.627l0.131,7.079l-8.893,2.524Z" style="fill:#060709;"/><path id="mid-right" d="M186.747,134.521l4.772,-1.027l28.063,-10.714c5.23,-1.528 9.323,-3.775 11.329,-7.341l0.815,-0.544c3.026,0.196 5.546,1.076 7.432,2.81l3.353,-0.907l0.725,0.997c10.423,-0.045 20.026,-0.651 26.826,-3.172c-0.727,-1.194 -2.213,-2.022 -4.531,-2.447c-6.023,0.69 -12.035,0.959 -18.035,0.725l-2.266,-1.359c-3.52,-1.063 -6.831,-2.568 -9.969,-4.441c-2.239,-0.128 -4.018,0.131 -5.075,0.997c-4.062,0.365 -7.78,1.491 -11.329,2.991c-10.7,4.704 -21.12,9.539 -31.086,14.772l-6.706,3.172l5.682,5.488Z" style="fill:#060709;"/><path id="mid-left" d="M133.379,133.521l-4.771,-1.027l-28.063,-10.714c-5.23,-1.528 -9.323,-3.775 -11.329,-7.341l-0.815,-0.544c-3.027,0.196 -5.546,1.076 -7.432,2.81l-3.353,-0.907l-0.725,0.997c-10.423,-0.045 -20.026,-0.651 -26.826,-3.172c0.727,-1.194 2.212,-2.022 4.531,-2.447c6.023,0.69 12.035,0.959 18.035,0.725l2.266,-1.359c3.52,-1.063 6.831,-2.568 9.969,-4.441c2.239,-0.128 4.018,0.131 5.075,0.997c4.062,0.365 7.78,1.491 11.329,2.991c10.7,4.704 21.12,9.539 31.086,14.772l6.706,3.172l-5.683,5.488Z" style="fill:#060709;"/><path id="front-right" d="M187.913,71.281l6.38,-2.03l12.76,-14.791l0,-2.538l0.58,-1.812c2.161,-1.915 5.136,-2.503 8.628,-2.248l1.192,-1.796c1.568,-0.119 2.89,-1.215 4.01,-3.119c3.466,-5.354 7.479,-10.658 11.88,-15.926c0.514,-2.568 -0.121,-3.263 -1.903,-2.084c-5.081,5.151 -9.972,10.392 -14.101,15.989l-1.076,0.186c-5.265,-0.862 -9.95,0.3 -13.661,4.863l-0.694,1.253c-4.059,2.118 -8.003,6.075 -11.846,11.649l-5.409,3.175l3.26,9.229Z" style="fill:#060709;"/><path id="front-left" d="M131.84,72.254l-6.149,-2.649l-11.24,-15.977l0.251,-2.525l-0.399,-1.861c-1.961,-2.119 -4.863,-2.997 -8.364,-3.088l-1.009,-1.905c-1.548,-0.273 -2.756,-1.493 -3.682,-3.499c-2.921,-5.669 -6.392,-11.343 -10.252,-17.02c-0.258,-2.606 0.442,-3.235 2.1,-1.887c4.548,5.628 8.898,11.326 12.454,17.303l1.053,0.291c5.324,-0.338 9.872,1.28 13.115,6.186l0.568,1.316c3.83,2.508 7.364,6.834 10.638,12.76l5.07,3.693l-4.154,8.862Z" style="fill:#060709;"/></g><g id="body"><path id="butt-outline" d="M145.041,112.91c-13.163,6.674 -20.105,20.51 -23.099,38.703c-4.716,12.755 -6.552,24.754 -3.487,34.78c-3.244,14.472 -2.686,24.156 2.179,28.417c-0.046,16.746 2.32,29.412 9.415,34.083c0.242,12.089 2.225,20.658 7.758,25.192c3.928,17.811 10.72,28.168 21.094,29.201l0.013,0c10.374,-1.033 17.669,-11.39 21.597,-29.201c5.533,-4.534 7.516,-13.103 7.758,-25.192c7.095,-4.671 9.461,-17.337 9.415,-34.083c4.865,-4.261 5.423,-13.945 2.179,-28.417c3.065,-10.026 1.229,-22.025 -3.487,-34.78c-2.994,-18.193 -9.936,-32.029 -23.1,-38.703l-28.235,0Z" style="fill:url(#_Radial1);"/><path id="head-outline" d="M145.487,18.626c10.782,-4.654 22.473,-4.086 35.072,1.702c8.394,4.082 14.13,9.766 15.833,17.877c-0.912,8.497 -3.908,13.877 -9.194,15.833l-24.005,2.213l-25.367,-4.767c-4.386,-2.405 -7.281,-6.555 -7.832,-13.45c0.214,-8.08 4.584,-14.808 15.493,-19.408Z" style="fill:url(#_Radial2);"/><path id="middle-outline" d="M147.485,47.622c-9.043,2.286 -15.361,6.542 -18.496,13.102c-3.254,11.03 -4.434,21.042 -3.95,30.237c1.905,10.482 5.71,19.148 12.394,25.06c6.156,5.442 13.493,7.792 21.792,7.628c11.123,0.2 18.831,-2.425 24.244,-6.947c7.294,-6.953 11.987,-15.882 13.484,-27.24c1.28,-10.901 -0.342,-19.851 -4.086,-27.376c-3.559,-6.93 -8.401,-11.828 -15.119,-13.756c-5.162,-1.068 -10.37,-1.627 -15.626,-1.652c-4.784,0.03 -9.668,0.361 -14.637,0.944Z" style="fill:url(#_Radial3);"/></g><g id="higher-body"><path id="eyes-area" d="M141.378,23.757c-10.025,8.185 -12.113,16.009 -1.831,23.274c18.191,-2.353 33.977,-1.29 47.332,3.225c9.118,-6.733 8.808,-14.313 -0.087,-22.663c-15.69,11.984 -30.88,11.953 -45.414,-3.836Z" style="fill:#2b2622;"/><path id="left-eye" d="M142.447,26.865c3.206,0.713 5.012,4.873 4.031,9.284c-0.981,4.41 -4.381,7.412 -7.587,6.698c-3.207,-0.713 -5.013,-4.873 -4.032,-9.283c0.982,-4.411 4.381,-7.413 7.588,-6.699Z"/><path id="right-eye" d="M184.809,30.43c-3.206,0.713 -5.013,4.873 -4.031,9.283c0.981,4.411 4.381,7.412 7.587,6.699c3.206,-0.713 5.012,-4.873 4.031,-9.284c-0.981,-4.41 -4.381,-7.412 -7.587,-6.698Z"/><path id="back" d="M161.401,49.287c-15.761,-0.606 -26.196,4.541 -29.846,17.015c-3.972,17.372 -2.923,31.286 3.468,40.311c3.651,8.935 10.92,14.312 23.589,15.686c13.813,0.908 23.291,-5.803 28.382,-20.223c5.201,-11.215 7.368,-23.273 4.906,-36.217c-4.009,-11.889 -14.287,-17.508 -30.499,-16.572" style="fill:#2b2622;"/><path id="stripe-1" d="M122.758,147.231c-0.307,1.462 -0.576,2.923 -0.816,4.382c24.837,-0.241 49.915,-0.213 74.434,0c-0.283,-1.759 -0.622,-3.507 -1.002,-5.247c-24.394,-0.443 -48.694,-0.286 -72.616,0.865Z" style="fill:#2b2622;"/><path id="stripe-2" d="M117.064,178.812c0.069,2.55 0.347,5.197 1.391,7.581c26.698,1.782 54.162,1.67 81.408,0c1.028,-2.978 1.422,-6.167 1.479,-9.188c-28.558,1.357 -56.765,1.939 -84.278,1.607Z" style="fill:#2b2622;"/><path id="stripe-3" d="M116.452,203.538c0.081,4.681 1.235,8.656 4.182,11.272c26.916,7.321 52.773,7.118 77.05,0c2.919,-2.556 4.353,-6.696 4.205,-11.939c-28.709,8.622 -57.481,9.363 -85.437,0.667Z" style="fill:#2b2622;"/><path id="stripe-4" d="M122.268,234.677c0.85,5.885 3.054,11.003 7.781,14.216c19.302,2.438 38.906,2.396 58.22,0c4.484,-2.994 6.935,-8.502 7.864,-14.615c-24.497,7.06 -49.367,7.742 -73.865,0.399Z" style="fill:#2b2622;"/><path id="stripe-5" d="M130.312,254.498c0.339,8.221 2.183,15.159 7.495,19.587c14.381,1.944 28.759,1.84 42.691,0.059c4.494,-3.796 6.741,-9.988 7.381,-18.199c-19.164,7.051 -38.273,6.885 -57.567,-1.447Z" style="fill:#2b2622;"/><path id="stripe-6" d="M140.257,283.107c3.008,10.939 8.377,19.712 18.7,20.19c8.798,-0.961 15.184,-8.283 19.139,-20.422c-11.259,7.64 -23.76,8.198 -37.839,0.232Z" style="fill:#2b2622;"/><path id="right-antenna" d="M178.179,23.103c3.769,-1.909 8.037,-3.245 12.761,-4.06l1.885,-1.813l2.392,-0.725c6.985,-6.218 15.952,-10.492 27.334,-12.398c0.961,-0.683 1.083,-1.302 -0.218,-1.812c-12.013,1.888 -21.878,6.161 -29.581,12.833c-5.345,0.946 -10.55,2.921 -15.659,5.594c-0.857,0.347 -1.436,0.855 -1.485,1.67c0.278,0.705 0.643,0.982 1.114,0.743l1.457,-0.032Z" style="fill:#060709;"/><path id="left-antenna" d="M149.436,18.701c-5.025,-2.018 -9.916,-3.298 -14.646,-3.698c-8.54,-10.94 -20.58,-15.926 -36.179,-14.863c-1.103,0.649 -1.161,1.228 0.014,1.727c13.985,-0.447 25.527,4.601 34.746,14.879c5.528,0.901 10.172,1.951 13.951,3.147c0.481,-0.117 0.96,-0.205 1.425,-0.089l0.689,-1.103Z" style="fill:#060709;"/></g><g id="wings"><path id="right-wing-joint" d="M191.304,86.408c0.865,0.214 1.183,1.946 0.709,3.865c-0.475,1.92 -1.562,3.304 -2.427,3.091c-0.865,-0.214 -1.183,-1.946 -0.709,-3.865c0.474,-1.92 1.562,-3.305 2.427,-3.091Z" style="fill:#060709;"/><path id="left-wing-joint" d="M128.586,86.408c-0.865,0.214 -1.183,1.946 -0.709,3.865c0.474,1.92 1.562,3.304 2.427,3.091c0.865,-0.214 1.183,-1.946 0.709,-3.865c-0.475,-1.92 -1.562,-3.305 -2.427,-3.091Z" style="fill:#060709;"/><g id="right-wing"><path id="right-wing-outline" d="M191.834,86.077c38.824,-1.993 76.076,-11.295 112.946,-17.22c7.014,0.659 12.186,3.674 14.614,10.196c1.256,20.307 -4.182,36.066 -19.372,45.201c-6.285,3.87 -13.501,4.657 -21.59,2.553c0.935,2.99 0.459,5.817 -1.949,8.42c-8.235,6.817 -18.303,7.983 -29.907,4.418c-9.397,-2.16 -18.388,-5.81 -26.622,-12.234c-10.274,-0.488 -17.678,-4.79 -21.185,-14.274l-9.402,-19.825l2.467,-7.235Z" style="fill:#ebeff3;fill-opacity:0.443137;stroke:#371f00;stroke-opacity:0.439216;stroke-width:0.73px;"/><path d="M192.77,88.412c14.03,2.404 28.099,4.007 42.167,4.418c4.102,-2.843 8.68,-4.963 13.796,-6.344l14.274,0.793c3.942,-2.666 6.987,-5.218 9.516,-7.704c2.397,1.007 4.924,1.357 7.59,1.02c6.527,-0.65 12.147,-1.368 16.88,-2.153c6.663,-0.963 15.111,-0.717 22.018,-0.339" style="fill:none;stroke:#371f00;stroke-opacity:0.439216;stroke-width:0.73px;"/><path d="M234.951,92.819c7.207,1.938 15.202,3.466 22.732,3.976c5.145,-0.792 9.414,-2.163 12.688,-4.192c-2.368,-1.468 -4.969,-3.286 -7.361,-5.323" style="fill:none;stroke:#371f00;stroke-opacity:0.439216;stroke-width:0.73px;"/><path d="M270.36,92.594c5.133,-2.142 13.01,-2.285 21.53,-1.96c8.962,1.077 18.204,2.797 26.782,5.172" style="fill:none;stroke:#371f00;stroke-opacity:0.439216;stroke-width:0.73px;"/><path d="M280.152,80.605c1.295,2.175 3.194,3.849 5.976,4.789c2.722,1.055 4.558,2.88 5.768,5.242" style="fill:none;stroke:#371f00;stroke-opacity:0.439216;stroke-width:0.73px;"/><path d="M296.994,78.444c1.882,3.906 4.78,6.728 9.068,7.952c4.255,2.311 8.792,3.97 13.196,4.973" style="fill:none;stroke:#371f00;stroke-opacity:0.439216;stroke-width:0.73px;"/><path d="M248.735,86.48c2.741,-2.586 4.89,-5.486 6.243,-8.584" style="fill:none;stroke:#371f00;stroke-opacity:0.439216;stroke-width:0.73px;"/><path d="M272.567,79.391l-3.727,-4.075" style="fill:none;stroke:#371f00;stroke-opacity:0.439216;stroke-width:0.73px;"/><path d="M191.963,89.734c21.95,4.274 43.551,9.502 64.119,17.559c11.79,5.655 23.602,13.131 33.16,20.545" style="fill:none;stroke:#371f00;stroke-opacity:0.439216;stroke-width:0.73px;"/><path d="M257.683,96.795c0.296,3.844 -0.257,7.079 -1.936,10.367" style="fill:none;stroke:#371f00;stroke-opacity:0.439216;stroke-width:0.73px;"/><path d="M257.359,102.412c13.536,0.619 25.661,1.74 35.806,3.564c5.813,3.118 11.837,6.897 16.647,10.001" style="fill:none;stroke:#371f00;stroke-opacity:0.439216;stroke-width:0.73px;"/><path d="M293.217,105.914c6.57,-1.487 15.044,-1.568 23,-0.937" style="fill:none;stroke:#371f00;stroke-opacity:0.439216;stroke-width:0.73px;"/><path d="M191.551,90.873c13.67,7.04 24.781,12.063 39.514,16.11c11.64,4.393 25.647,10.298 36.274,16.063c3.323,2.011 8.092,3.221 11.092,3.763" style="fill:none;stroke:#371f00;stroke-opacity:0.439216;stroke-width:0.73px;"/><path d="M231.072,106.968c14.053,10.959 28.9,20.813 43.881,29.438" style="fill:none;stroke:#371f00;stroke-opacity:0.439216;stroke-width:0.73px;"/><path d="M191.468,91.652l27.913,19.847c10.966,2.749 19.093,9.305 24.379,19.667l6.032,9.351" style="fill:none;stroke:#371f00;stroke-opacity:0.439216;stroke-width:0.73px;"/><path d="M235.087,119.656c6.684,0.095 12.292,1.085 18.417,3.462" style="fill:none;stroke:#371f00;stroke-opacity:0.439216;stroke-width:0.73px;"/><path d="M218.804,111.091c-0.854,2.473 -3.333,5.803 -4.893,7.363" style="fill:none;stroke:#371f00;stroke-opacity:0.439216;stroke-width:0.73px;"/><path d="M190.743,91.561c11.908,10.472 22.133,22.547 27.594,35.731" style="fill:none;stroke:#371f00;stroke-opacity:0.439216;stroke-width:0.73px;"/><path d="M216.531,123.313c4.73,-1.454 10.316,-4.214 14.195,-6.978" style="fill:none;stroke:#371f00;stroke-opacity:0.439216;stroke-width:0.73px;"/></g><g id="left-wing"><path id="left-wing-outline" d="M128.101,86.077c-38.824,-1.993 -76.076,-11.295 -112.946,-17.22c-7.014,0.659 -12.186,3.674 -14.614,10.196c-1.256,20.307 4.182,36.066 19.372,45.201c6.285,3.87 13.501,4.657 21.59,2.553c-0.935,2.99 -0.459,5.817 1.949,8.42c8.235,6.817 18.303,7.983 29.907,4.418c9.397,-2.16 18.388,-5.81 26.622,-12.234c10.274,-0.488 17.678,-4.79 21.185,-14.274l9.402,-19.825l-2.467,-7.235Z" style="fill:#ebeff3;fill-opacity:0.443137;stroke:#371f00;stroke-opacity:0.439216;stroke-width:0.73px;"/><path d="M127.165,88.412c-14.03,2.404 -28.099,4.007 -42.167,4.418c-4.102,-2.843 -8.68,-4.963 -13.796,-6.344l-14.274,0.793c-3.942,-2.666 -6.987,-5.218 -9.516,-7.704c-2.397,1.007 -4.924,1.357 -7.59,1.02c-6.527,-0.65 -12.147,-1.368 -16.88,-2.153c-6.663,-0.963 -15.111,-0.717 -22.018,-0.339" style="fill:none;stroke:#371f00;stroke-opacity:0.439216;stroke-width:0.73px;"/><path d="M84.984,92.819c-7.207,1.938 -15.202,3.466 -22.732,3.976c-5.145,-0.792 -9.414,-2.163 -12.688,-4.192c2.368,-1.468 4.969,-3.286 7.361,-5.323" style="fill:none;stroke:#371f00;stroke-opacity:0.439216;stroke-width:0.73px;"/><path d="M49.575,92.594c-5.133,-2.142 -13.01,-2.285 -21.53,-1.96c-8.962,1.077 -18.204,2.797 -26.782,5.172" style="fill:none;stroke:#371f00;stroke-opacity:0.439216;stroke-width:0.73px;"/><path d="M39.783,80.605c-1.295,2.175 -3.194,3.849 -5.976,4.789c-2.722,1.055 -4.558,2.88 -5.768,5.242" style="fill:none;stroke:#371f00;stroke-opacity:0.439216;stroke-width:0.73px;"/><path d="M22.941,78.444c-1.882,3.906 -4.78,6.728 -9.068,7.952c-4.255,2.311 -8.792,3.97 -13.196,4.973" style="fill:none;stroke:#371f00;stroke-opacity:0.439216;stroke-width:0.73px;"/><path d="M71.2,86.48c-2.741,-2.586 -4.89,-5.486 -6.243,-8.584" style="fill:none;stroke:#371f00;stroke-opacity:0.439216;stroke-width:0.73px;"/><path d="M47.368,79.391l3.727,-4.075" style="fill:none;stroke:#371f00;stroke-opacity:0.439216;stroke-width:0.73px;"/><path d="M127.972,89.734c-21.95,4.274 -43.551,9.502 -64.119,17.559c-11.79,5.655 -23.602,13.131 -33.16,20.545" style="fill:none;stroke:#371f00;stroke-opacity:0.439216;stroke-width:0.73px;"/><path d="M62.252,96.795c-0.296,3.844 0.257,7.079 1.936,10.367" style="fill:none;stroke:#371f00;stroke-opacity:0.439216;stroke-width:0.73px;"/><path d="M62.576,102.412c-13.536,0.619 -25.661,1.74 -35.806,3.564c-5.813,3.118 -11.837,6.897 -16.647,10.001" style="fill:none;stroke:#371f00;stroke-opacity:0.439216;stroke-width:0.73px;"/><path d="M26.718,105.914c-6.57,-1.487 -15.044,-1.568 -23,-0.937" style="fill:none;stroke:#371f00;stroke-opacity:0.439216;stroke-width:0.73px;"/><path d="M128.384,90.873c-13.67,7.04 -24.781,12.063 -39.514,16.11c-11.64,4.393 -25.647,10.298 -36.274,16.063c-3.323,2.011 -8.092,3.221 -11.092,3.763" style="fill:none;stroke:#371f00;stroke-opacity:0.439216;stroke-width:0.73px;"/><path d="M88.862,106.968c-14.052,10.959 -28.899,20.813 -43.88,29.438" style="fill:none;stroke:#371f00;stroke-opacity:0.439216;stroke-width:0.73px;"/><path d="M128.467,91.652l-27.913,19.847c-10.966,2.749 -19.093,9.305 -24.379,19.667l-6.032,9.351" style="fill:none;stroke:#371f00;stroke-opacity:0.439216;stroke-width:0.73px;"/><path d="M84.848,119.656c-6.684,0.095 -12.292,1.085 -18.417,3.462" style="fill:none;stroke:#371f00;stroke-opacity:0.439216;stroke-width:0.73px;"/><path d="M101.131,111.091c0.854,2.473 3.333,5.803 4.893,7.363" style="fill:none;stroke:#371f00;stroke-opacity:0.439216;stroke-width:0.73px;"/><path d="M129.192,91.561c-11.908,10.472 -22.133,22.547 -27.594,35.731" style="fill:none;stroke:#371f00;stroke-opacity:0.439216;stroke-width:0.73px;"/><path d="M103.404,123.313c-4.73,-1.454 -10.316,-4.214 -14.195,-6.978" style="fill:none;stroke:#371f00;stroke-opacity:0.439216;stroke-width:0.73px;"/></g></g></g><defs><radialGradient id="_Radial1" cx="0" cy="0" r="1" gradientUnits="userSpaceOnUse" gradientTransform="matrix(42.7423,0,0,143.885,159.159,159.401)"><stop offset="0" style="stop-color:#ffa200;stop-opacity:1"/><stop offset="0.49" style="stop-color:#fc0;stop-opacity:1"/><stop offset="1" style="stop-color:#ffd900;stop-opacity:1"/></radialGradient><radialGradient id="_Radial2" cx="0" cy="0" r="1" gradientUnits="userSpaceOnUse" gradientTransform="matrix(42.7423,0,0,143.885,159.159,159.401)"><stop offset="0" style="stop-color:#ffa200;stop-opacity:1"/><stop offset="0.49" style="stop-color:#fc0;stop-opacity:1"/><stop offset="1" style="stop-color:#ffd900;stop-opacity:1"/></radialGradient><radialGradient id="_Radial3" cx="0" cy="0" r="1" gradientUnits="userSpaceOnUse" gradientTransform="matrix(42.7423,0,0,143.885,159.159,159.401)"><stop offset="0" style="stop-color:#ffa200;stop-opacity:1"/><stop offset="0.49" style="stop-color:#fc0;stop-opacity:1"/><stop offset="1" style="stop-color:#ffd900;stop-opacity:1"/></radialGradient></defs></svg>