<svg viewBox="0 0 100 100" fill="none" xmlns="http://www.w3.org/2000/svg">
<g clip-path="url(#clip0)">
<path d="M43.8463 7.17025C48.7469 5.14037 54.2531 5.14037 59.1537 7.17025L77.4339 14.7422C82.3345 16.7721 86.2279 20.6655 88.2578 25.5661L95.8298 43.8463C97.8596 48.7469 97.8596 54.2531 95.8297 59.1537L88.2578 77.4339C86.2279 82.3345 82.3345 86.2279 77.4339 88.2578L59.1537 95.8298C54.2531 97.8596 48.7469 97.8596 43.8463 95.8297L25.5661 88.2578C20.6655 86.2279 16.7721 82.3345 14.7422 77.4339L7.17025 59.1537C5.14037 54.2531 5.14037 48.7469 7.17025 43.8463L14.7422 25.5661C16.7721 20.6655 20.6655 16.7721 25.5661 14.7422L43.8463 7.17025Z" fill="url(#paint0_linear)"/>
<path d="M48.3472 13.0574C50.2087 11.978 52.5056 11.978 54.3671 13.0574L69.0649 21.5807C70.3916 22.35 71.3734 23.5982 71.8085 25.0688L79.1249 49.7977C79.4537 50.9088 79.4537 52.0912 79.1249 53.2023L71.8085 77.9312C71.3734 79.4018 70.3916 80.65 69.0649 81.4193L54.3671 89.9426C52.5056 91.022 50.2087 91.022 48.3472 89.9426L33.6493 81.4193C32.3226 80.65 31.3409 79.4018 30.9058 77.9312L23.5893 53.2023C23.2606 52.0912 23.2606 50.9088 23.5893 49.7977L30.9058 25.0688C31.3409 23.5982 32.3226 22.35 33.6493 21.5807L48.3472 13.0574Z" stroke="url(#paint1_linear)" stroke-width="4"/>
<path d="M26.5316 80.8291C24.4521 80.2762 22.8279 78.652 22.2749 76.5725L17.9088 60.1526C17.5147 58.6705 17.7031 57.0937 18.4354 55.7461L30.7478 33.0867C31.301 32.0686 32.1371 31.2325 33.1552 30.6793L55.8147 18.3668C57.1622 17.6346 58.739 17.4462 60.2211 17.8403L76.641 22.2064C78.7205 22.7594 80.3447 24.3836 80.8976 26.4631L85.2637 42.8829C85.6579 44.3651 85.4695 45.9418 84.7372 47.2894L72.4248 69.9489C71.8716 70.967 71.0355 71.8031 70.0174 72.3562L47.3579 84.6687C46.0104 85.4009 44.4336 85.5893 42.9514 85.1952L26.5316 80.8291Z" stroke="url(#paint2_linear)" stroke-width="4"/>
<path d="M22.2064 26.5316C22.7594 24.4521 24.3836 22.8279 26.4631 22.2749L42.8829 17.9088C44.3651 17.5147 45.9419 17.7031 47.2894 18.4354L69.9489 30.7478C70.967 31.301 71.8031 32.1371 72.3563 33.1552L84.6687 55.8147C85.4009 57.1622 85.5893 58.739 85.1952 60.2211L80.8291 76.641C80.2762 78.7205 78.652 80.3447 76.5725 80.8976L60.1526 85.2637C58.6705 85.6579 57.0937 85.4695 55.7462 84.7372L33.0867 72.4248C32.0686 71.8716 31.2325 71.0355 30.6793 70.0174L18.3668 47.3579C17.6346 46.0104 17.4462 44.4336 17.8403 42.9514L22.2064 26.5316Z" stroke="url(#paint3_linear)" stroke-width="4"/>
<path d="M13.0574 54.6528C11.978 52.7913 11.978 50.4944 13.0574 48.6329L21.5807 33.9351C22.35 32.6084 23.5982 31.6266 25.0688 31.1915L49.7977 23.8751C50.9088 23.5463 52.0912 23.5463 53.2023 23.8751L77.9312 31.1915C79.4018 31.6266 80.65 32.6084 81.4193 33.9351L89.9426 48.6329C91.022 50.4944 91.022 52.7913 89.9426 54.6528L81.4193 69.3507C80.65 70.6774 79.4018 71.6591 77.9312 72.0942L53.2023 79.4107C52.0912 79.7394 50.9088 79.7394 49.7977 79.4107L25.0688 72.0942C23.5982 71.6591 22.35 70.6774 21.5807 69.3507L13.0574 54.6528Z" stroke="url(#paint4_linear)" stroke-width="4"/>
<path d="M48.0557 64.324C47.5517 63.532 47.1437 62.872 46.8317 62.344C46.5437 61.792 46.2677 61.288 46.0037 60.832C45.7637 60.352 45.4997 59.836 45.2117 59.284C44.7557 58.444 44.3117 57.676 43.8797 56.98C43.4477 56.26 42.9437 55.552 42.3677 54.856C41.8157 54.136 41.1197 53.332 40.2797 52.444L41.2157 52.912C40.5917 52.96 40.0037 52.984 39.4517 52.984C38.9237 52.984 38.4317 52.96 37.9757 52.912V51.22C38.3117 51.268 38.6237 51.304 38.9117 51.328C39.1997 51.352 39.4997 51.364 39.8117 51.364C41.1077 51.364 42.2837 51.184 43.3397 50.824C44.4197 50.44 45.2717 49.852 45.8957 49.06C46.5197 48.268 46.8317 47.248 46.8317 46C46.8317 44.584 46.3757 43.432 45.4637 42.544C44.5757 41.632 43.0517 41.176 40.8917 41.176C40.3397 41.176 39.8357 41.2 39.3797 41.248C38.9477 41.296 38.5037 41.38 38.0477 41.5L38.2277 41.104V59.428C38.2277 60.22 38.2997 60.844 38.4437 61.3C38.5877 61.732 38.8277 62.044 39.1637 62.236C39.4997 62.404 39.9797 62.512 40.6037 62.56C40.6757 62.776 40.7237 63.028 40.7477 63.316C40.7717 63.58 40.7837 63.844 40.7837 64.108C40.2797 64.084 39.7517 64.06 39.1997 64.036C38.6477 64.012 38.1317 64 37.6517 64C37.1717 64 36.7877 64 36.4997 64C35.8757 64 35.1317 64.012 34.2677 64.036C33.4037 64.06 32.7077 64.084 32.1797 64.108C32.1797 63.844 32.1917 63.58 32.2157 63.316C32.2397 63.052 32.2877 62.8 32.3597 62.56C33.0077 62.512 33.5117 62.404 33.8717 62.236C34.2317 62.044 34.4837 61.732 34.6277 61.3C34.7717 60.844 34.8437 60.22 34.8437 59.428V44.236C34.8437 43.444 34.7717 42.82 34.6277 42.364C34.4837 41.908 34.2317 41.584 33.8717 41.392C33.5117 41.2 33.0077 41.104 32.3597 41.104C32.2877 40.864 32.2397 40.624 32.2157 40.384C32.1917 40.144 32.1797 39.88 32.1797 39.592C32.5397 39.616 33.1397 39.64 33.9797 39.664C34.8197 39.664 35.6597 39.664 36.4997 39.664C37.4837 39.664 38.4797 39.652 39.4877 39.628C40.4957 39.604 41.5037 39.592 42.5117 39.592C44.3117 39.592 45.7877 39.856 46.9397 40.384C48.1157 40.912 48.9797 41.632 49.5317 42.544C50.0837 43.456 50.3597 44.488 50.3597 45.64C50.3597 46.744 50.0957 47.752 49.5677 48.664C49.0397 49.552 48.2837 50.308 47.2997 50.932C46.3397 51.532 45.1877 51.988 43.8437 52.3L44.0237 51.868C44.6717 52.564 45.2357 53.224 45.7157 53.848C46.1957 54.472 46.6877 55.18 47.1917 55.972C47.6957 56.764 48.2957 57.76 48.9917 58.96C49.4957 59.824 49.9397 60.496 50.3237 60.976C50.7317 61.456 51.1997 61.816 51.7277 62.056C52.2557 62.272 52.9637 62.404 53.8517 62.452C53.8517 62.74 53.8397 63.016 53.8157 63.28C53.8157 63.52 53.7797 63.76 53.7077 64C52.7957 64 51.8477 64.012 50.8637 64.036C49.8797 64.084 48.9437 64.18 48.0557 64.324ZM62.729 64.324C61.241 64.324 59.933 64.12 58.805 63.712C57.701 63.28 56.573 62.716 55.421 62.02C55.565 61.132 55.649 60.232 55.673 59.32C55.721 58.384 55.745 57.58 55.745 56.908C56.009 56.836 56.321 56.788 56.681 56.764C57.041 56.716 57.377 56.692 57.689 56.692C57.761 57.916 57.977 58.972 58.337 59.86C58.721 60.748 59.309 61.432 60.101 61.912C60.917 62.368 61.961 62.596 63.233 62.596C64.889 62.596 66.065 62.236 66.761 61.516C67.481 60.772 67.841 59.884 67.841 58.852C67.841 57.796 67.553 56.932 66.977 56.26C66.401 55.564 65.657 54.976 64.745 54.496C63.833 54.016 62.861 53.548 61.829 53.092C60.821 52.636 59.861 52.108 58.949 51.508C58.037 50.908 57.293 50.164 56.717 49.276C56.141 48.364 55.853 47.212 55.853 45.82C55.853 44.476 56.141 43.324 56.717 42.364C57.317 41.38 58.157 40.636 59.237 40.132C60.317 39.604 61.601 39.34 63.089 39.34C63.929 39.34 64.721 39.412 65.465 39.556C66.233 39.7 66.917 39.904 67.517 40.168C68.141 40.408 68.669 40.66 69.101 40.924C69.101 41.62 69.113 42.424 69.137 43.336C69.161 44.248 69.221 45.028 69.317 45.676C69.053 45.796 68.729 45.88 68.345 45.928C67.985 45.976 67.637 46 67.301 46C67.061 44.608 66.749 43.552 66.365 42.832C65.981 42.112 65.513 41.62 64.961 41.356C64.409 41.068 63.773 40.924 63.053 40.924C61.781 40.924 60.785 41.236 60.065 41.86C59.345 42.484 58.985 43.36 58.985 44.488C58.985 45.544 59.273 46.42 59.849 47.116C60.425 47.812 61.169 48.412 62.081 48.916C62.993 49.42 63.953 49.912 64.961 50.392C65.969 50.848 66.929 51.376 67.841 51.976C68.753 52.552 69.497 53.272 70.073 54.136C70.649 55 70.937 56.092 70.937 57.412C70.937 58.612 70.649 59.74 70.073 60.796C69.497 61.852 68.597 62.704 67.373 63.352C66.173 64 64.625 64.324 62.729 64.324Z" fill="#F2F2F2"/>
</g>
<defs>
<linearGradient id="paint0_linear" x1="51.5" y1="4" x2="51.5" y2="99" gradientUnits="userSpaceOnUse">
<stop stop-color="#FFE2A0"/>
<stop offset="1" stop-color="#FF739C"/>
</linearGradient>
<linearGradient id="paint1_linear" x1="51.3571" y1="9" x2="51.3571" y2="94" gradientUnits="userSpaceOnUse">
<stop stop-color="#E0F787"/>
<stop offset="1" stop-color="#4EE3FA"/>
</linearGradient>
<linearGradient id="paint2_linear" x1="21.5343" y1="81.5698" x2="81.6383" y2="21.4657" gradientUnits="userSpaceOnUse">
<stop stop-color="#E0F787"/>
<stop offset="1" stop-color="#4EE3FA"/>
</linearGradient>
<linearGradient id="paint3_linear" x1="21.4657" y1="21.5343" x2="81.5698" y2="81.6383" gradientUnits="userSpaceOnUse">
<stop stop-color="#E0F787"/>
<stop offset="1" stop-color="#4EE3FA"/>
</linearGradient>
<linearGradient id="paint4_linear" x1="9" y1="51.6429" x2="94" y2="51.6429" gradientUnits="userSpaceOnUse">
<stop stop-color="#E0F787"/>
<stop offset="1" stop-color="#4EE3FA"/>
</linearGradient>
<clipPath id="clip0">
<path d="M0 0H100V100H0V0Z" fill="white"/>
</clipPath>
</defs>
</svg>
