<svg width="909" height="1278" viewBox="0 0 909 1278" fill="none" xmlns="http://www.w3.org/2000/svg">
<g id="A Human/Sitting">
<g id="Head/Front">
<g id="Head">
<path id="Head_2" fill-rule="evenodd" clip-rule="evenodd" d="M467.806 225.733C487.233 237.442 506.321 243.1 515.281 240.79C537.749 234.999 539.814 152.805 522.43 120.402C505.046 87.9984 415.675 73.8749 411.17 138.076C409.607 160.359 418.963 180.244 432.787 196.47L408 312H480L467.806 225.733Z" fill="#D4A181"/>
</g>
<path id="Hair" fill-rule="evenodd" clip-rule="evenodd" d="M427.254 210.923C418.218 170.719 392.474 143.314 396.405 125.345C400.337 107.376 417.364 102.996 417.364 102.996C417.364 102.996 426.17 67.3716 474.167 72.6911C522.164 78.0107 551.458 97.9433 538.807 141.804C527.178 141.804 513.139 137.598 493.727 144.804C484.487 148.233 480.51 166.074 480.51 166.074H471.737C471.737 166.074 458.966 144.902 446.552 150.514C434.139 156.125 440.909 177.776 440.909 177.776L436.587 210.923H427.254Z" fill="#3D2216"/>
</g>
<g id="Bottom/Skinny Jeans 1">
<g id="Seat">
<g id="Seat_2">
<path id="Seat Stuff" fill-rule="evenodd" clip-rule="evenodd" d="M277.868 687H509.632L540 1059H195L277.868 687Z" fill="#C5CFD6"/>
<path id="Seat Stuff_2" fill-rule="evenodd" clip-rule="evenodd" d="M277.868 687H349.148L391.811 1059H195L277.868 687Z" fill="black" fill-opacity="0.1"/>
</g>
</g>
<path id="Skin" fill-rule="evenodd" clip-rule="evenodd" d="M636.97 760.699C610.926 815.934 570.23 950.017 570.23 950.017L604.779 965.801C604.779 965.801 692.443 824.857 746.017 728.509C743.521 750.199 740.979 774.618 738.623 800.288C733.04 861.099 738.62 992.48 741.623 1030.43C743.51 1054.28 775.919 1049.29 778.945 1030.37C779.457 1027.17 781.545 1015.92 784.661 999.134C799.941 916.838 839.929 701.453 840 648.715C840.028 627.494 798.57 608.43 773.86 623.268C756.886 605.158 724.763 594.719 706.308 624.636C694.576 643.655 666.7 697.649 636.97 760.699Z" fill="#D4A181"/>
<path id="LegLower" fill-rule="evenodd" clip-rule="evenodd" d="M572.7 900.376L691.282 619.462C719.69 573.764 799.339 628.761 789.651 655.265C767.657 715.438 655.799 910.243 649.246 928.17L572.7 900.376Z" fill="#2F3676"/>
<g id="Right Shoe">
<path id="shoe" fill-rule="evenodd" clip-rule="evenodd" d="M574.991 933.555C572.914 930.722 568.889 930.052 566.201 932.313C561.297 936.437 554.244 942.793 551.698 947.201C547.641 954.229 542.198 969.063 542.198 969.063C550.351 973.77 688.735 1053.67 688.735 1053.67C688.735 1053.67 705.349 1038.08 693.912 1029.47C682.475 1020.86 675.035 1014.95 675.035 1014.95L624.457 945.26C623.464 943.892 621.538 943.614 620.198 944.645L609.689 952.738C609.689 952.738 595.228 951.476 588.105 947.363C583.769 944.86 578.472 938.302 574.991 933.555Z" fill="#E4E4E4"/>
</g>
<g id="Right Shoe_2">
<path id="shoe_2" fill-rule="evenodd" clip-rule="evenodd" d="M742.349 1011.85C739.134 1010.44 735.313 1011.87 734.115 1015.17C731.931 1021.2 729 1030.23 729 1035.32C729 1043.43 731.704 1059 731.704 1059C741.117 1059 900.909 1059 900.909 1059C900.909 1059 907.505 1037.2 893.294 1035.46C879.084 1033.72 869.685 1032.32 869.685 1032.32L791.04 997.257C789.496 996.568 787.689 997.291 787.045 998.853L781.99 1011.12C781.99 1011.12 768.835 1017.25 760.61 1017.25C755.603 1017.25 747.737 1014.22 742.349 1011.85Z" fill="#E4E4E4"/>
</g>
<path id="Leg and Butt" fill-rule="evenodd" clip-rule="evenodd" d="M848.311 670.299C848.311 750 810.461 935.911 810.437 953.46L729 953.523C729 953.523 746.88 704.693 741.68 702.013C736.48 699.332 528.528 722.775 466.159 722.775C376.223 722.775 339.019 666.061 336 561H514.159C550.434 564.882 739.646 603.046 809.916 616.165C840 621.782 848.311 648.344 848.311 670.299Z" fill="#5C63AB"/>
</g>
<g id="Body/Long Sleeve 1">
<path id="Skin_2" fill-rule="evenodd" clip-rule="evenodd" d="M754.08 218.887L640.369 253.023L669.401 301.388L757.814 249.355C799.085 246.898 818.585 242.827 816.314 237.144C814.399 232.352 809.842 231.536 805.644 230.784C802.374 230.198 799.322 229.651 797.907 227.294C794.677 221.913 806.001 207.904 817.315 195.069C828.629 182.234 819.575 181.637 814.106 182.666C795.302 190.3 775.293 202.374 754.08 218.887ZM726.015 523.775L630.321 453.504L609.166 505.797L703.929 545.093C730.73 576.575 745.716 589.699 748.888 584.465C751.563 580.052 749.472 575.921 747.546 572.115C746.046 569.151 744.646 566.385 745.677 563.837C748.031 558.018 766.034 558.631 783.093 559.943C800.152 561.255 795.181 553.664 791.068 549.916C773.654 539.492 751.97 530.779 726.015 523.775Z" fill="#D4A181"/>
<path id="Coat Back" fill-rule="evenodd" clip-rule="evenodd" d="M481.682 264.26C533.794 361.429 609.151 435.916 718.397 513.348L677.032 559.988C555.054 514.658 490.677 487.309 459.063 395.504C451.128 372.463 445.583 299.013 440.826 260.366L481.682 264.26Z" fill="url(#paint0_linear)"/>
<path id="Shirt" fill-rule="evenodd" clip-rule="evenodd" d="M336 588H567C567 588 488.512 348.624 486.811 259.415C486.753 256.383 481.153 251.04 478.676 251.74C451.5 259.415 420.515 246 420.515 246C365.752 334.075 346.814 442.514 336 588Z" fill="#DDE3E9"/>
<path id="Coat Front" fill-rule="evenodd" clip-rule="evenodd" d="M478.459 380.372C514.537 535.131 512.874 661.818 433.222 661.818H310.053C290.491 530.352 341.904 348.071 389.568 256.13C391.388 252.619 395.263 246 404.391 246H440.18C440.196 246.047 440.212 246.095 440.228 246.142C450.997 246.23 462.858 246.624 475.702 247.05C541.825 249.246 634.024 252.306 737.768 219L750 280.12C656.361 340.345 561.543 386.997 478.459 380.372Z" fill="url(#paint1_linear)"/>
</g>
</g>
<defs>
<linearGradient id="paint0_linear" x1="603.7" y1="296.955" x2="542.854" y2="524.036" gradientUnits="userSpaceOnUse">
<stop stop-color="#F8C6D7"/>
<stop offset="1" stop-color="#AFE9F9"/>
</linearGradient>
<linearGradient id="paint1_linear" x1="527.895" y1="219" x2="527.895" y2="661.818" gradientUnits="userSpaceOnUse">
<stop stop-color="#F8C6D7"/>
<stop offset="1" stop-color="#AFE9F9"/>
</linearGradient>
</defs>
</svg>
