<svg viewBox="0 0 92 37" fill="none" xmlns="http://www.w3.org/2000/svg">
<g clip-path="url(#clip0)">
<rect width="92" height="37" fill="white"/>
<line x1="19.4472" y1="23.7764" x2="20.4472" y2="25.7764" stroke="black"/>
<ellipse cx="39.6612" cy="28.9454" rx="3.5" ry="4.50617" transform="rotate(45 39.6612 28.9454)" fill="url(#paint0_linear)"/>
<path d="M12.9538 18.448C12.9298 19.024 12.9058 19.636 12.8818 20.284C12.8818 20.932 12.9298 21.568 13.0258 22.192C12.7858 22.336 12.5098 22.444 12.1978 22.516C11.8858 22.588 11.5618 22.624 11.2258 22.624C11.1778 21.952 10.9738 21.316 10.6138 20.716C10.2778 20.116 9.82183 19.624 9.24583 19.24C8.66983 18.856 7.98583 18.664 7.19383 18.664C6.44983 18.664 5.84983 18.844 5.39383 19.204C4.96183 19.564 4.74583 20.044 4.74583 20.644C4.74583 21.052 4.82983 21.412 4.99783 21.724C5.18983 22.036 5.58583 22.372 6.18583 22.732C6.78583 23.068 7.73383 23.488 9.02983 23.992C10.3258 24.472 11.3458 24.952 12.0898 25.432C12.8338 25.912 13.3618 26.452 13.6738 27.052C13.9858 27.652 14.1418 28.384 14.1418 29.248C14.1418 30.256 13.8538 31.144 13.2778 31.912C12.7018 32.68 11.9098 33.28 10.9018 33.712C9.91783 34.12 8.80183 34.324 7.55383 34.324C6.11383 34.324 4.96183 34.216 4.09783 34C3.25783 33.76 2.42983 33.424 1.61383 32.992C1.66183 32.608 1.68583 32.14 1.68583 31.588C1.70983 31.036 1.70983 30.484 1.68583 29.932C1.68583 29.38 1.67383 28.912 1.64983 28.528C1.84183 28.384 2.10583 28.288 2.44183 28.24C2.80183 28.168 3.16183 28.132 3.52183 28.132C3.68983 29.644 4.14583 30.772 4.88983 31.516C5.65783 32.26 6.66583 32.632 7.91383 32.632C8.89783 32.632 9.65383 32.416 10.1818 31.984C10.7338 31.552 11.0098 31 11.0098 30.328C11.0098 29.896 10.9018 29.524 10.6858 29.212C10.4938 28.9 10.1218 28.588 9.56983 28.276C9.01783 27.964 8.20183 27.592 7.12183 27.16C5.82583 26.632 4.78183 26.14 3.98983 25.684C3.22183 25.228 2.65783 24.688 2.29783 24.064C1.96183 23.44 1.79383 22.648 1.79383 21.688C1.79383 20.92 1.98583 20.26 2.36983 19.708C2.75383 19.132 3.24583 18.664 3.84583 18.304C4.46983 17.92 5.12983 17.644 5.82583 17.476C6.52183 17.284 7.16983 17.188 7.76983 17.188C8.84983 17.188 9.79783 17.296 10.6138 17.512C11.4298 17.728 12.2098 18.04 12.9538 18.448ZM15.0683 34.108C15.0683 33.868 15.0803 33.616 15.1043 33.352C15.1283 33.064 15.1763 32.8 15.2483 32.56C16.2083 32.56 16.8563 32.344 17.1923 31.912C17.5523 31.456 17.7323 30.628 17.7323 29.428V13.3C17.7323 12.748 17.6723 12.28 17.5523 11.896C17.4563 11.512 17.2163 11.224 16.8323 11.032C16.4483 10.84 15.8483 10.744 15.0323 10.744C15.0323 10.48 15.0563 10.24 15.1043 10.024C15.1523 9.808 15.2363 9.604 15.3563 9.412C15.7163 9.412 16.2203 9.352 16.8683 9.232C17.5403 9.112 18.1883 8.968 18.8123 8.8C19.4363 8.608 19.8923 8.404 20.1803 8.188C20.3963 8.26 20.5763 8.404 20.7203 8.62C20.8883 8.836 20.9723 9.172 20.9723 9.628V29.428C20.9723 30.628 21.1283 31.456 21.4403 31.912C21.7763 32.344 22.3283 32.56 23.0963 32.56C23.1683 32.8 23.2163 33.076 23.2403 33.388C23.2643 33.7 23.2763 33.94 23.2763 34.108C22.6523 34.084 21.9923 34.06 21.2963 34.036C20.6003 34.012 19.9043 34 19.2083 34C18.7523 34 18.2723 34 17.7683 34C17.2883 34.024 16.8083 34.036 16.3283 34.036C15.8723 34.06 15.4523 34.084 15.0683 34.108ZM27.8843 34.324C27.3323 33.484 26.6123 32.5 25.7243 31.372C24.8363 30.244 23.8883 29.116 22.8803 27.988C21.8963 26.86 20.9723 25.876 20.1083 25.036L20.0723 25.612L23.6363 22.372C24.4523 21.628 25.0403 21.028 25.4003 20.572C25.7603 20.116 25.9403 19.756 25.9403 19.492C25.9403 19.3 25.8443 19.156 25.6523 19.06C25.4603 18.964 25.2083 18.916 24.8963 18.916C24.8243 18.676 24.7643 18.436 24.7163 18.196C24.6923 17.956 24.6803 17.704 24.6803 17.44C25.1843 17.464 25.6643 17.488 26.1203 17.512C26.5763 17.512 26.9963 17.512 27.3803 17.512C27.7643 17.512 28.1123 17.512 28.4243 17.512C28.8323 17.512 29.3363 17.512 29.9363 17.512C30.5363 17.512 31.1603 17.488 31.8083 17.44C31.8083 17.68 31.7843 17.944 31.7363 18.232C31.7123 18.496 31.6523 18.736 31.5563 18.952C31.0763 18.952 30.6203 19.024 30.1883 19.168C29.7563 19.312 29.2883 19.54 28.7843 19.852C28.3043 20.164 27.7643 20.596 27.1643 21.148L23.2043 24.748L23.1323 23.596C23.9723 24.46 24.8243 25.396 25.6883 26.404C26.5763 27.388 27.6563 28.648 28.9283 30.184C29.4083 30.76 29.8163 31.204 30.1523 31.516C30.5123 31.828 30.8843 32.056 31.2683 32.2C31.6523 32.32 32.1203 32.404 32.6723 32.452C32.6723 32.788 32.6603 33.088 32.6363 33.352C32.6123 33.592 32.5643 33.808 32.4923 34C31.9163 34 31.3763 34.012 30.8723 34.036C30.3683 34.06 29.8763 34.096 29.3963 34.144C28.9163 34.192 28.4123 34.252 27.8843 34.324ZM43.9375 34.324C43.6735 34.204 43.4575 33.988 43.2895 33.676C43.1455 33.364 43.0735 32.872 43.0735 32.2C43.0735 31.984 43.0855 31.732 43.1095 31.444C43.1335 31.132 43.1815 30.856 43.2535 30.616H43.3255C43.2535 31 43.0855 31.42 42.8215 31.876C42.5815 32.308 42.2575 32.692 41.8495 33.028C41.4415 33.388 40.9255 33.688 40.3015 33.928C39.6775 34.144 38.9215 34.252 38.0335 34.252C36.5215 34.252 35.3695 33.916 34.5775 33.244C33.7855 32.548 33.3895 31.612 33.3895 30.436C33.3895 29.5 33.6055 28.708 34.0375 28.06C34.4935 27.388 35.0695 26.836 35.7655 26.404C36.4855 25.948 37.2535 25.588 38.0695 25.324C38.9095 25.06 39.7255 24.856 40.5175 24.712C41.3095 24.568 42.0055 24.448 42.6055 24.352C42.6055 23.368 42.5815 22.6 42.5335 22.048C42.5095 21.496 42.4375 21.064 42.3175 20.752C42.2215 20.416 42.0655 20.128 41.8495 19.888C41.5615 19.528 41.2255 19.264 40.8415 19.096C40.4815 18.904 40.0735 18.808 39.6175 18.808C38.8255 18.808 38.2015 19.06 37.7455 19.564C37.2895 20.044 36.9655 20.608 36.7735 21.256C36.5815 21.904 36.4735 22.48 36.4495 22.984C36.1855 22.984 35.8495 22.972 35.4415 22.948C35.0335 22.9 34.7455 22.828 34.5775 22.732C34.6255 22.132 34.6255 21.46 34.5775 20.716C34.5535 19.972 34.4935 19.336 34.3975 18.808C35.3575 18.304 36.3895 17.908 37.4935 17.62C38.5975 17.332 39.6055 17.188 40.5175 17.188C41.4055 17.188 42.1615 17.32 42.7855 17.584C43.4335 17.824 43.9495 18.148 44.3335 18.556C44.9575 19.156 45.3655 19.948 45.5575 20.932C45.7495 21.892 45.8455 23.176 45.8455 24.784V28.744C45.8455 29.416 45.8935 29.956 45.9895 30.364C46.0855 30.772 46.2895 31.06 46.6015 31.228C46.9375 31.396 47.4295 31.504 48.0775 31.552C48.0775 31.792 48.0655 32.068 48.0415 32.38C48.0175 32.692 47.9575 32.968 47.8615 33.208C47.2615 33.256 46.5895 33.376 45.8455 33.568C45.1255 33.76 44.4895 34.012 43.9375 34.324ZM39.0415 32.272C39.5695 32.272 40.1095 32.104 40.6615 31.768C41.2135 31.408 41.6695 30.856 42.0295 30.112C42.4135 29.368 42.6055 28.396 42.6055 27.196V25.828C41.9815 25.9 41.3335 26.008 40.6615 26.152C40.0135 26.272 39.4015 26.464 38.8255 26.728C38.2495 26.992 37.7815 27.364 37.4215 27.844C37.0615 28.3 36.8815 28.924 36.8815 29.716C36.8815 30.604 37.0975 31.252 37.5295 31.66C37.9615 32.068 38.4655 32.272 39.0415 32.272ZM49.0511 34.108C49.0511 33.868 49.0631 33.616 49.0871 33.352C49.1111 33.064 49.1591 32.8 49.2311 32.56C50.1911 32.56 50.8391 32.344 51.1751 31.912C51.5351 31.456 51.7151 30.628 51.7151 29.428V22.3C51.7151 21.748 51.6551 21.28 51.5351 20.896C51.4391 20.512 51.1991 20.224 50.8151 20.032C50.4311 19.84 49.8311 19.744 49.0151 19.744C49.0151 19.48 49.0391 19.24 49.0871 19.024C49.1351 18.808 49.2191 18.604 49.3391 18.412C49.6991 18.412 50.2031 18.352 50.8511 18.232C51.4991 18.112 52.1351 17.968 52.7591 17.8C53.4071 17.608 53.8751 17.404 54.1631 17.188C54.3791 17.26 54.5591 17.404 54.7031 17.62C54.8711 17.836 54.9551 18.172 54.9551 18.628V29.428C54.9551 30.628 55.1111 31.456 55.4231 31.912C55.7591 32.344 56.3111 32.56 57.0791 32.56C57.1511 32.8 57.1991 33.076 57.2231 33.388C57.2471 33.7 57.2591 33.94 57.2591 34.108C56.8511 34.084 56.4191 34.06 55.9631 34.036C55.5071 34.036 55.0391 34.024 54.5591 34C54.1031 34 53.6471 34 53.1911 34C52.7351 34 52.2551 34 51.7511 34C51.2711 34.024 50.8031 34.036 50.3471 34.036C49.8911 34.06 49.4591 34.084 49.0511 34.108ZM53.0471 13.12C52.4471 13.12 51.9431 12.916 51.5351 12.508C51.1271 12.1 50.9231 11.608 50.9231 11.032C50.9231 10.384 51.1391 9.856 51.5711 9.448C52.0031 9.04 52.4951 8.836 53.0471 8.836C53.6951 8.836 54.2111 9.04 54.5951 9.448C55.0031 9.856 55.2071 10.384 55.2071 11.032C55.2071 11.584 54.9911 12.076 54.5591 12.508C54.1511 12.916 53.6471 13.12 53.0471 13.12ZM60.7433 26.296V22.3C60.7433 21.748 60.6833 21.292 60.5633 20.932C60.4433 20.548 60.1913 20.26 59.8073 20.068C59.4233 19.876 58.8353 19.768 58.0433 19.744C58.0433 19.48 58.0673 19.24 58.1153 19.024C58.1633 18.808 58.2473 18.604 58.3673 18.412C59.1113 18.364 59.9633 18.22 60.9233 17.98C61.8833 17.74 62.6393 17.476 63.1913 17.188C63.4073 17.26 63.5873 17.416 63.7313 17.656C63.8993 17.872 63.9833 18.244 63.9833 18.772L60.7433 26.296ZM74.6393 29.428C74.6393 30.676 74.8073 31.516 75.1433 31.948C75.5033 32.356 76.0433 32.56 76.7633 32.56C76.8353 32.776 76.8833 33.016 76.9073 33.28C76.9313 33.52 76.9433 33.796 76.9433 34.108C76.4153 34.084 75.8153 34.06 75.1433 34.036C74.4713 34.012 73.7633 34 73.0193 34C72.5393 34 72.0353 34 71.5073 34C70.9793 34.024 70.4753 34.036 69.9953 34.036C69.5153 34.06 69.0953 34.084 68.7353 34.108C68.7353 33.796 68.7473 33.508 68.7713 33.244C68.7953 32.98 68.8433 32.752 68.9153 32.56C69.7793 32.56 70.4033 32.344 70.7873 31.912C71.1953 31.456 71.3993 30.628 71.3993 29.428V23.956C71.3993 22.252 71.0753 21.1 70.4273 20.5C69.8033 19.876 69.0113 19.564 68.0513 19.564C67.4273 19.564 66.8033 19.768 66.1793 20.176C65.5553 20.56 65.0273 21.196 64.5953 22.084C64.1873 22.948 63.9833 24.112 63.9833 25.576V29.428C63.9833 30.628 64.1633 31.456 64.5233 31.912C64.8833 32.344 65.5313 32.56 66.4673 32.56C66.5393 32.776 66.5873 33.016 66.6113 33.28C66.6353 33.52 66.6473 33.796 66.6473 34.108C66.3113 34.084 65.9033 34.06 65.4233 34.036C64.9433 34.036 64.4273 34.024 63.8753 34C63.3473 34 62.8433 34 62.3633 34C61.8833 34 61.3793 34 60.8513 34C60.3233 34.024 59.8193 34.036 59.3393 34.036C58.8593 34.06 58.4393 34.084 58.0793 34.108C58.0793 33.796 58.0913 33.508 58.1153 33.244C58.1393 32.98 58.1873 32.752 58.2593 32.56C59.1953 32.56 59.8433 32.344 60.2033 31.912C60.5633 31.456 60.7433 30.628 60.7433 29.428V22.3L63.9833 18.772C63.9833 19.06 63.9593 19.384 63.9113 19.744C63.8873 20.104 63.8273 20.488 63.7313 20.896C63.8033 20.776 63.8753 20.644 63.9473 20.5C64.0193 20.332 64.1273 20.152 64.2713 19.96C64.6793 19.408 65.3273 18.844 66.2153 18.268C67.1273 17.668 68.2193 17.368 69.4913 17.368C70.4033 17.368 71.2433 17.56 72.0113 17.944C72.8033 18.304 73.4393 18.916 73.9193 19.78C74.3993 20.62 74.6393 21.772 74.6393 23.236V29.428ZM89.2077 18.448C89.1837 19.024 89.1597 19.636 89.1357 20.284C89.1357 20.932 89.1837 21.568 89.2797 22.192C89.0397 22.336 88.7637 22.444 88.4517 22.516C88.1397 22.588 87.8157 22.624 87.4797 22.624C87.4317 21.952 87.2277 21.316 86.8677 20.716C86.5317 20.116 86.0757 19.624 85.4997 19.24C84.9237 18.856 84.2397 18.664 83.4477 18.664C82.7037 18.664 82.1037 18.844 81.6477 19.204C81.2157 19.564 80.9997 20.044 80.9997 20.644C80.9997 21.052 81.0837 21.412 81.2517 21.724C81.4437 22.036 81.8397 22.372 82.4397 22.732C83.0397 23.068 83.9877 23.488 85.2837 23.992C86.5797 24.472 87.5997 24.952 88.3437 25.432C89.0877 25.912 89.6157 26.452 89.9277 27.052C90.2397 27.652 90.3957 28.384 90.3957 29.248C90.3957 30.256 90.1077 31.144 89.5317 31.912C88.9557 32.68 88.1637 33.28 87.1557 33.712C86.1717 34.12 85.0557 34.324 83.8077 34.324C82.3677 34.324 81.2157 34.216 80.3517 34C79.5117 33.76 78.6837 33.424 77.8677 32.992C77.9157 32.608 77.9397 32.14 77.9397 31.588C77.9637 31.036 77.9637 30.484 77.9397 29.932C77.9397 29.38 77.9277 28.912 77.9037 28.528C78.0957 28.384 78.3597 28.288 78.6957 28.24C79.0557 28.168 79.4157 28.132 79.7757 28.132C79.9437 29.644 80.3997 30.772 81.1437 31.516C81.9117 32.26 82.9197 32.632 84.1677 32.632C85.1517 32.632 85.9077 32.416 86.4357 31.984C86.9877 31.552 87.2637 31 87.2637 30.328C87.2637 29.896 87.1557 29.524 86.9397 29.212C86.7477 28.9 86.3757 28.588 85.8237 28.276C85.2717 27.964 84.4557 27.592 83.3757 27.16C82.0797 26.632 81.0357 26.14 80.2437 25.684C79.4757 25.228 78.9117 24.688 78.5517 24.064C78.2157 23.44 78.0477 22.648 78.0477 21.688C78.0477 20.92 78.2397 20.26 78.6237 19.708C79.0077 19.132 79.4997 18.664 80.0997 18.304C80.7237 17.92 81.3837 17.644 82.0797 17.476C82.7757 17.284 83.4237 17.188 84.0237 17.188C85.1037 17.188 86.0517 17.296 86.8677 17.512C87.6837 17.728 88.4637 18.04 89.2077 18.448Z" fill="black"/>
<circle cx="53" cy="11" r="3" fill="url(#paint1_linear)"/>
</g>
<defs>
<linearGradient id="paint0_linear" x1="39.6612" y1="24.4392" x2="39.6612" y2="33.4516" gradientUnits="userSpaceOnUse">
<stop stop-color="#FFE2A0"/>
<stop offset="1" stop-color="#FF739C"/>
</linearGradient>
<linearGradient id="paint1_linear" x1="53" y1="8" x2="53" y2="14" gradientUnits="userSpaceOnUse">
<stop stop-color="#E0F787"/>
<stop offset="1" stop-color="#4EE3FA"/>
</linearGradient>
<clipPath id="clip0">
<rect width="92" height="37" fill="white"/>
</clipPath>
</defs>
</svg>
