<svg width="652" height="553" viewBox="0 0 652 553" fill="none" xmlns="http://www.w3.org/2000/svg">
<rect width="652" height="553" fill="white"/>
<g opacity="0.5">
<path fill-rule="evenodd" clip-rule="evenodd" d="M52.9081 63.6722C51.3351 65.2427 51.9461 70.8242 51.9131 72.8897C51.8625 76.1053 52.0626 79.2921 52.3314 82.4961C52.5116 84.6414 53.5269 105.114 56.3526 103.541C57.9456 102.656 56.9469 96.7334 56.9441 94.8602C56.9376 90.6957 56.7644 86.5415 56.4868 82.3863C56.2286 78.5287 56.0666 74.7161 56.2152 70.851C56.2514 69.9077 57.134 59.4386 52.9081 63.6722" fill="url(#paint0_linear)"/>
<path fill-rule="evenodd" clip-rule="evenodd" d="M121.409 61.1485C107.896 61.256 94.388 61.9226 80.881 62.331C74.3815 62.5275 67.8861 62.7774 61.3935 63.1375C59.1812 63.2604 54.4362 62.5521 52.593 63.7309C48.5013 66.348 55.1001 66.9599 56.8593 66.8959C83.5896 65.9267 110.329 64.6501 137.082 64.5898C150.206 64.5606 163.323 64.9342 176.448 64.8503C181.465 64.8183 187.02 62.6568 188.287 68.4965C189.717 75.0862 188.074 82.4232 187.627 89.0449C187.329 93.4652 187.435 97.7938 187.634 102.21C187.762 105.04 187.429 108.228 187.93 111.005C188.411 113.678 190.333 115.282 192.095 112.287C193.148 110.497 192.624 106.078 192.694 104.005C192.788 101.212 192.7 98.4209 192.7 95.6281C192.699 88.8112 193.661 82.0213 193.534 75.2058C193.452 70.811 193.219 62.8436 187.676 61.7877C181.572 60.6247 174.069 61.7942 167.822 61.7228C152.344 61.5462 136.892 61.0275 121.409 61.1485" fill="url(#paint1_linear)"/>
<path fill-rule="evenodd" clip-rule="evenodd" d="M84.1738 103.786C79.0783 103.786 73.9823 103.817 68.8872 103.901C64.5174 103.973 57.6469 103.062 53.5797 104.626C50.7954 105.696 50.0558 108.805 53.5797 109.633C57.4231 110.536 63.2155 109.059 67.2367 108.988C87.4006 108.632 107.759 108.168 127.894 109.444C146.762 110.638 165.993 111.796 184.889 110.536C186.478 110.429 194.587 110.107 190.887 107.067C188.728 105.293 179.98 106.46 177.174 106.375C167.28 106.077 157.376 106.011 147.485 105.636C137.723 105.265 128.004 104.167 118.238 103.896C106.893 103.58 95.5228 103.786 84.1738 103.786" fill="url(#paint2_linear)"/>
<path fill-rule="evenodd" clip-rule="evenodd" d="M79.0757 74.8037C87.0178 75.1504 94.8753 86.6685 86.8395 92.2352C79.3009 97.4583 65.1722 91.7341 69.3642 81.6057C68.7616 83.07 70.1261 80.0148 70.1433 79.9944C70.9405 79.0553 72.3719 78.0156 73.3543 77.2753C74.4788 76.4279 75.6497 75.4953 77.0054 75.0707C77.8955 74.7921 77.7557 75.8406 79.0757 74.8037M75.2077 70.6494C71.4907 72.1008 69.7942 73.738 67.2397 76.7005C65.4721 78.7507 63.2189 79.8294 63.2389 82.6C63.2431 83.2132 64.031 83.8872 64.167 84.4778C64.355 85.2941 64.1373 86.3398 64.2863 87.2071C65.824 96.1563 76.5017 99.1735 84.3175 97.4838C91.1258 96.0121 96.2176 89.4766 94.6404 82.3701C93.0525 75.2162 82.4441 67.819 75.2077 70.6494" fill="url(#paint3_linear)"/>
<path fill-rule="evenodd" clip-rule="evenodd" d="M71.8965 83.1427C71.8965 86.362 76.9818 86.362 76.9818 83.1427C76.9818 79.96 71.8965 79.8232 71.8965 83.1427" fill="url(#paint4_linear)"/>
<path fill-rule="evenodd" clip-rule="evenodd" d="M78.2588 82.4907C78.2588 85.049 82.2995 85.049 82.2995 82.4907C82.2995 79.9617 78.2588 79.8537 78.2588 82.4907" fill="url(#paint5_linear)"/>
<path fill-rule="evenodd" clip-rule="evenodd" d="M79.5098 87.7664C78.2159 88.2638 76.5746 87.2324 75.5123 87.912C73.6311 89.1162 75.517 90.206 76.5254 90.69C81.0657 92.8686 81.8735 86.8611 79.5098 87.7664" fill="url(#paint6_linear)"/>
<path fill-rule="evenodd" clip-rule="evenodd" d="M148.85 80.6315C148.715 80.689 148.233 80.893 148.85 80.6315ZM129.078 77.7418C125.68 78.509 122.811 81.6824 119.119 81.2578C116.289 80.9324 114.374 78.2021 111.58 77.8053C108.007 77.2973 98.2828 85.4482 103.396 86.8467C106.379 87.663 108.033 82.2117 110.669 81.922C112.753 81.693 115.588 84.2495 117.748 84.6133C121.778 85.2924 124.546 83.0725 128.084 81.6411C131.928 80.0855 134.115 81.4863 137.459 83.2153C140.098 84.58 142.583 85.4686 145.603 84.9054C148.437 84.3774 151.997 81.4631 154.85 81.7621C157.644 82.0551 159.638 84.9707 162.512 85.2414C163.696 85.3527 165.46 85.7564 165.261 83.9282C165.102 82.4644 163.469 82.7124 162.447 82.1802C159.819 80.8118 157.361 78.388 154.189 78.5947C151.804 78.7505 149.632 80.4266 147.433 81.2286C140.233 83.8545 136.186 76.1477 129.078 77.7418" fill="#333333"/>
<path fill-rule="evenodd" clip-rule="evenodd" d="M135.093 124.111C121.204 124.239 107.268 124.445 93.4188 125.558C90.1354 125.822 56.6084 128.988 56.672 129.216C56.7894 129.637 61.1017 130.282 61.0748 130.381C60.7841 129.661 60.1198 129.362 59.0821 129.487C90.8796 129.487 122.576 126.64 154.416 127.152C162.416 127.28 170.446 127.227 178.441 127.479C180.437 127.542 185.382 128.972 186.949 128.071C191.063 125.706 183.59 125.433 182.352 125.334C166.683 124.08 150.805 123.954 135.093 124.111" fill="url(#paint7_linear)"/>
<path fill-rule="evenodd" clip-rule="evenodd" d="M52.5557 130.859C50.4794 132.941 52.3913 140.43 52.4731 143.244C52.5914 147.314 52.4939 151.412 52.851 155.471C53.2586 160.107 53.891 165.047 55.1074 169.545C55.7774 172.023 58.129 175.961 59.0608 171.458C59.7261 168.242 58.7158 163.976 58.3644 160.7C57.8941 156.317 57.7803 151.991 57.7627 147.587C57.7469 143.75 57.6731 139.896 57.3583 136.071C57.1948 134.084 56.1957 127.238 52.5557 130.859" fill="url(#paint8_linear)"/>
<path fill-rule="evenodd" clip-rule="evenodd" d="M104.794 168.998C94.9383 169.167 85.0611 169.399 75.222 170.015C71.1892 170.268 67.1596 170.643 63.1417 171.07C62.3218 171.157 53.2469 171.525 57.3019 174.874C59.1321 176.386 66.661 174.296 69.1477 174.078C73.33 173.711 77.5114 173.473 81.7057 173.295C91.4241 172.883 101.172 172.518 110.9 172.687C128.667 172.995 146.319 173.133 164.09 172.737C166.615 172.681 186.396 173.209 187.068 170.582C187.609 168.465 180.535 169.436 179.246 169.475C174.514 169.616 169.782 169.583 165.049 169.559C144.998 169.456 124.83 168.659 104.794 168.998" fill="url(#paint9_linear)"/>
<path fill-rule="evenodd" clip-rule="evenodd" d="M183.719 127.346C184.032 136.122 185.526 144.887 186.004 153.688C186.222 157.712 186.479 161.732 186.676 165.757C186.74 167.055 186.217 170.184 187.752 170.93C189.858 171.955 190.142 169.891 190.536 168.494C191.675 164.462 190.905 159.223 190.801 155.081C190.701 151.069 190.694 147.051 190.398 143.047C190.095 138.956 189.272 134.943 188.89 130.866C188.728 129.142 189.293 126.274 187.463 125.204C185.881 124.279 183.651 125.444 183.719 127.346" fill="url(#paint10_linear)"/>
<path fill-rule="evenodd" clip-rule="evenodd" d="M86.845 141.944C86.8826 141.972 86.9198 142.002 86.9569 142.031C86.9198 142.002 86.8822 141.973 86.845 141.944M78.4693 139.344C81.5925 140.236 84.1577 139.903 87.1412 142.177C89.6145 144.062 92.1513 146.82 92.9717 149.868C94.8669 156.911 88.4417 160.77 82.418 160.846C76.2482 160.924 67.1157 159.493 67.4318 151.584C67.6742 145.508 72.1109 139.58 78.4693 139.344M78.6894 135.364C70.5904 135.767 64.0574 144.862 64.1275 152.518C64.212 161.797 74.7258 164.187 82.1943 164.252C90.6234 164.324 99.0288 158.504 96.77 149.025C94.9603 141.43 86.4778 134.959 78.6894 135.364" fill="url(#paint11_linear)"/>
<path fill-rule="evenodd" clip-rule="evenodd" d="M70.5425 147.822C70.5425 150.41 74.6305 150.41 74.6305 147.822C74.6305 145.264 70.5425 145.154 70.5425 147.822" fill="url(#paint12_linear)"/>
<path fill-rule="evenodd" clip-rule="evenodd" d="M79.1172 146.687C79.1172 149.295 83.2377 149.295 83.2377 146.687C83.2377 144.109 79.1172 143.998 79.1172 146.687" fill="url(#paint13_linear)"/>
<path fill-rule="evenodd" clip-rule="evenodd" d="M74.3899 152.588C71.7291 155.245 81.0766 159.902 83.281 156.206C85.0917 153.171 81.1495 154.177 79.752 154.013C78.2333 153.834 75.6296 151.352 74.3899 152.588" fill="url(#paint14_linear)"/>
<path fill-rule="evenodd" clip-rule="evenodd" d="M149.125 146.74C148.868 146.848 148.868 146.848 149.125 146.74ZM114.022 142.416C111.328 142.921 102.486 145.904 102.367 149.1C102.149 154.91 110.808 148.959 112.688 148.195C117.796 146.119 120.48 150.354 125.612 150.577C130.068 150.771 134.166 146.957 138.364 147.408C142.763 147.881 144.879 152.56 149.957 150.076C152.643 148.762 152.575 146.735 149.56 146.544C147.737 146.429 146.485 147.182 144.584 146.398C141.612 145.172 140.416 143.176 136.859 143.493C134.176 143.733 131.75 145.245 129.131 145.831C123.132 147.171 119.805 141.332 114.022 142.416" fill="#333333"/>
<path fill-rule="evenodd" clip-rule="evenodd" d="M169.818 149.263C169.632 149.341 169.632 149.341 169.818 149.263ZM170.497 146.843C170.527 146.856 170.73 147.138 170.497 146.843ZM167.409 144.997C167.293 145.086 167.293 145.086 167.409 144.997ZM167.476 144.974C168.075 145.332 172.89 148.625 169.393 149.4C167.617 149.794 166.148 146.221 167.476 144.974M165.882 141.326C158.169 144.843 166.469 157.428 172.522 152.315C175.069 150.163 175.404 145.814 172.926 143.573C171.442 142.229 167.897 140.406 165.882 141.326" fill="url(#paint15_linear)"/>
<path fill-rule="evenodd" clip-rule="evenodd" d="M93.4771 190.921C83.8524 190.923 74.1433 190.721 64.5316 191.292C62.9141 191.388 56.7521 191.08 55.9187 192.771C54.394 195.864 60.7342 194.329 61.6554 194.236C80.7932 192.32 100.784 193.422 119.985 193.968C135.689 194.415 151.308 194.692 166.993 195.501C171.116 195.714 175.235 195.949 179.356 196.198C180.698 196.279 184.078 197.169 184.361 195.024C184.623 193.039 180.407 193.487 179.354 193.432C170.979 192.991 162.61 192.529 154.238 192.058C134.085 190.922 113.661 190.917 93.4771 190.921" fill="url(#paint16_linear)"/>
<path fill-rule="evenodd" clip-rule="evenodd" d="M55.6095 194.36C53.8118 196.147 54.6545 202.97 54.6043 205.226C54.5166 209.171 54.3304 213.112 54.2468 217.056C54.16 221.178 54.2807 225.319 54.5245 229.435C54.6266 231.163 56.045 239.515 58.2782 234.735C59.276 232.599 58.2541 226.65 58.2694 224.23C58.2968 219.825 58.534 215.439 58.7532 211.041C58.9417 207.26 58.9486 203.475 59.1139 199.693C59.1664 198.487 59.3089 190.649 55.6095 194.36" fill="url(#paint17_linear)"/>
<path fill-rule="evenodd" clip-rule="evenodd" d="M185.98 229.595C176.614 230.555 167.097 230.101 157.695 230.81C149.591 231.421 141.496 231.671 133.372 231.843C114.975 232.232 96.5477 232.61 78.2047 234.143C74.0243 234.492 69.8489 234.863 65.6574 235.05C63.5611 235.144 54.7648 234.19 54.1097 236.4C52.994 240.163 62.4009 238.674 64.4298 238.615C68.8916 238.486 73.3325 238.164 77.7817 237.825C96.485 236.4 115.26 235.974 134.003 235.381C144.197 235.06 154.32 234.314 164.491 233.635C169.56 233.297 174.644 233.286 179.713 232.958C181.039 232.873 185.734 233.042 186.688 231.974C187.344 231.241 187.51 229.452 185.98 229.595" fill="url(#paint18_linear)"/>
<path fill-rule="evenodd" clip-rule="evenodd" d="M182.805 195C183.126 203.983 183.634 212.957 183.937 221.94C184.029 224.641 183.212 229.482 184.717 231.864C187.135 235.694 189.023 231.641 189.466 229.254C190.864 221.721 189.361 213.399 188.97 205.82C188.822 202.929 189.72 196.493 188.322 193.905C186.991 191.44 182.686 191.687 182.805 195" fill="url(#paint19_linear)"/>
<path fill-rule="evenodd" clip-rule="evenodd" d="M167.08 207.793C170.668 208.765 171.192 216.567 167.143 217.144C161.116 218.003 163.752 209.402 167.08 207.793M166.074 204.691C164.98 204.657 162.453 204.355 161.778 205.246C161.214 205.992 161.784 207.564 161.718 208.275C161.481 210.813 159.417 212.279 160.34 215.275C160.966 217.309 162.643 219.221 164.687 219.927C175.472 223.655 175.341 202.816 166.074 204.691" fill="url(#paint20_linear)"/>
<path fill-rule="evenodd" clip-rule="evenodd" d="M68.7021 206.09C68.6752 206.125 68.6483 206.159 68.6218 206.193C68.6483 206.159 68.6752 206.125 68.7021 206.09M77.173 201.583C77.1308 201.223 77.0885 200.862 77.0463 200.501C82.894 203.261 87.547 208.396 85.6054 215.288C84.1239 220.545 78.7711 222.41 73.7842 221.112C68.2639 219.675 65.6258 215.125 67.1143 209.537C67.801 206.96 69.9097 203.495 72.6356 202.667C73.9045 202.281 76.7106 203.264 77.173 201.583M73.7536 199.401C72.2744 199.5 70.8346 200.117 69.6275 200.959C70.7575 200.004 72.2637 199.434 73.7536 199.401M73.7958 196.005C70.1419 196.116 67.7476 198.328 65.5803 200.985C64.9001 201.819 62.6005 204.029 62.8851 205.153C63.1103 206.041 63.6995 207.34 64.94 206.35C58.4424 219.3 75.2281 230.345 85.4754 221.34C95.0387 212.936 85.5506 195.611 73.7958 196.005" fill="url(#paint21_linear)"/>
<path fill-rule="evenodd" clip-rule="evenodd" d="M70.4756 208.034C70.4756 209.759 73.1527 209.759 73.1527 208.034C73.1527 206.31 70.4756 206.31 70.4756 208.034" fill="url(#paint22_linear)"/>
<path fill-rule="evenodd" clip-rule="evenodd" d="M75.0444 208.329C75.0444 210.081 77.7647 210.081 77.7647 208.329C77.7647 206.576 75.0444 206.576 75.0444 208.329" fill="url(#paint23_linear)"/>
<path fill-rule="evenodd" clip-rule="evenodd" d="M77.1177 214.483C75.8451 214.587 71.1869 214.154 70.3693 215.269C69.0029 217.131 71.1836 217.196 72.2547 217.398C73.2195 217.579 77.4134 217.476 78.0044 216.62C78.5268 215.863 78.4047 214.374 77.1177 214.483" fill="url(#paint24_linear)"/>
<path fill-rule="evenodd" clip-rule="evenodd" d="M133.241 209.653C133.022 209.743 133.022 209.743 133.241 209.653ZM115.64 208.366C112.772 208.576 110.344 210.226 107.602 210.884C104.676 211.587 103.409 210.294 100.748 209.448C97.9803 208.569 96.0113 208.916 93.7865 210.807C92.5259 211.878 89.7602 214.343 90.5481 216.246C92.3523 220.602 96.4361 213.515 98.3569 213.186C101.353 212.672 104.019 215.292 107.475 214.542C110.606 213.864 113.384 211.714 116.654 211.691C119.389 211.671 121.966 213.167 124.666 213.529C128.788 214.082 131.494 212.619 135.304 211.532C138.608 210.591 140.924 211.833 144.032 212.878C145.452 213.355 150.191 215.091 149.319 211.943C149.072 211.054 142.827 209.464 141.859 209.158C138.445 208.08 136.283 208.5 133.03 209.74C130.318 210.775 128.036 211.278 125.128 210.709C121.924 210.082 119.01 208.11 115.64 208.366" fill="#333333"/>
</g>
<g opacity="0.5">
<path fill-rule="evenodd" clip-rule="evenodd" d="M247.575 64.0121C248.038 54.0556 248.674 44.1131 249.009 34.1506C249.176 29.2138 249.306 24.2766 249.432 19.339C249.459 18.2395 249.488 17.1405 249.513 16.041C249.594 12.3058 249.151 12.0002 252.91 11.6686C269.679 10.1885 286.515 9.69785 303.304 8.35864C323.553 6.74351 343.907 5.62827 364.213 5.12838C373.236 4.9058 382.298 4.44487 391.323 4.72541C393.322 4.78755 397.247 4.26726 398.035 5.82164C398.375 6.4931 397.661 8.8038 397.571 9.57868C397.288 11.9993 397.024 14.4282 396.861 16.8609C395.901 31.2083 396.473 45.9174 399.251 60.0473C392.734 56.3723 384.5 53.2112 376.904 53.8386C369.16 54.4781 363.367 58.9525 357.168 63.0707C353.662 65.4 352.481 66.0125 348.983 63.7561C345.968 61.8113 343.116 59.5877 340.272 57.4055C335.883 54.0375 331.741 50.3858 327.485 46.855C319.66 40.363 308.878 31.1225 298.07 33.8431C290.348 35.787 283.218 40.031 276.516 44.1845C266.558 50.3551 257.545 57.9119 247.575 64.0121ZM381.779 0.303875C343.306 0.303875 305.121 4.03355 266.756 6.05118C262.749 6.26171 258.756 6.57193 254.764 6.95728C252.103 7.21418 245.596 6.13558 243.852 8.40918C242.688 9.926 243.688 10.1537 243.852 11.5949C244.058 13.4113 243.936 15.5634 243.883 17.486C243.755 22.1185 243.62 26.7506 243.515 31.3836C243.118 48.8935 242.869 66.4002 243.578 83.9055C243.733 87.7233 245.124 93.0092 244.363 96.7189C243.812 99.4048 241.97 101.039 246.218 101.536C250.398 102.024 255.509 100.782 259.693 100.384C263.901 99.983 268.108 99.5485 272.321 99.2012C290.638 97.6918 309.133 97.92 327.499 97.4182C346.029 96.9123 364.567 96.8799 383.104 96.8697C390.86 96.8655 399.723 97.3014 407.291 95.1669C409.953 94.4157 410.384 94.0456 409.727 91.4038C409.603 90.9025 408.799 90.7175 408.563 89.8114C408.242 88.5784 408.407 87.0797 408.332 85.7961C408.087 81.6041 408.001 77.4047 407.804 73.2099C407.474 66.2013 406.266 59.3995 405.372 52.4613C404.341 44.4488 404.394 36.3133 404.373 28.2484C404.361 23.7749 404.476 19.3163 404.835 14.8553C405.066 11.9942 406.475 7.72242 405.76 5.05419C405.404 3.72564 404.822 2.67208 403.439 2.10031C402.563 1.73769 401.826 2.02148 400.96 1.92967C399.933 1.82069 399.292 1.67648 398.062 1.39778C392.789 0.202784 387.151 0.303875 381.779 0.303875Z" fill="url(#paint25_linear)"/>
<path fill-rule="evenodd" clip-rule="evenodd" d="M360.487 19.3528C360.484 22.1411 360.049 26.2557 361.335 28.8812C362.965 32.2116 365.005 31.1706 365.545 28.041C365.855 26.2478 365.847 20.941 365.271 19.3528C364.456 17.1047 360.487 15.5735 360.487 19.3528Z" fill="url(#paint26_linear)"/>
<path fill-rule="evenodd" clip-rule="evenodd" d="M365.165 20.4292C362.548 20.5215 354.924 19.8932 353.153 21.998C350.115 25.608 355.404 26.2475 357.674 26.0453C360.302 25.8116 368.423 26.382 370.183 24.2748C373.127 20.7496 367.224 20.3541 365.165 20.4292Z" fill="url(#paint27_linear)"/>
<path fill-rule="evenodd" clip-rule="evenodd" d="M263.583 113.58C275.091 115.579 271.511 133.125 260.621 129.061C256.827 127.645 251.236 123.553 253.334 118.732C254.9 115.129 260.006 113.237 263.583 113.58ZM258.818 108.124C251.334 109.384 246.217 117.483 248.783 124.548C251.259 131.364 260.648 136.355 267.573 133.905C274.183 131.567 277.481 122.771 275.252 116.337C272.924 109.615 265.338 107.026 258.818 108.124Z" fill="url(#paint28_linear)"/>
<path fill-rule="evenodd" clip-rule="evenodd" d="M328.816 115.632C325.951 115.87 323.475 117.876 320.592 118.231C317.896 118.563 315.662 117.641 313.138 116.903C310.087 116.013 307.289 115.621 304.171 116.412C301.789 117.017 299.439 118.639 296.964 118.834C292.094 119.219 286.434 113.663 282.632 119.947C280.809 122.96 283.456 124.9 286.182 123.495C289.024 122.031 287.629 121.506 291.155 122.372C294.096 123.093 296.474 123.484 299.42 122.474C302.089 121.558 304.432 119.883 307.333 119.695C310.174 119.51 312.645 120.804 315.36 121.363C318.699 122.049 321.653 121.529 324.817 120.483C327.826 119.487 329.027 118.943 332.064 119.831C333.986 120.393 338.187 122.18 340.058 120.74C343.294 118.251 338.962 117.887 337.256 117.533C334.509 116.964 331.667 115.399 328.816 115.632" fill="#333333"/>
<path fill-rule="evenodd" clip-rule="evenodd" d="M394.384 113.96C394.407 113.977 394.43 113.995 394.452 114.013C394.43 113.995 394.406 113.977 394.384 113.96ZM391.571 113.371C395.754 113.641 400.277 121.26 394.735 121.531C390.834 121.721 386.469 115.049 391.571 113.371ZM390.984 107.136C377.758 110.83 383.804 129.477 396.562 127.323C402.357 126.345 404.321 119.631 402.405 114.661C401.582 112.527 399.978 110.727 398.061 109.499C396.647 108.593 392.601 106.686 390.984 107.136Z" fill="url(#paint29_linear)"/>
<path fill-rule="evenodd" clip-rule="evenodd" d="M329.276 146.065C340.915 145.666 352.555 145.266 364.206 145.158C370.52 145.1 376.8 145.21 383.105 145.572C385.901 145.732 388.696 145.887 391.494 146.006C391.977 146.026 392.644 145.993 393.38 145.957C395.112 145.872 397.227 145.768 398.222 146.294C403.788 149.239 392.448 149.561 391.07 149.538C387.983 149.486 384.899 149.334 381.815 149.181C379.12 149.048 376.425 148.915 373.727 148.849C356.42 148.423 339.007 149.201 321.671 149.975C317.697 150.153 313.727 150.33 309.763 150.492C305.554 150.665 301.347 150.777 297.139 150.889C291.125 151.048 285.111 151.208 279.097 151.546C276.8 151.675 274.504 151.812 272.208 151.948C268.919 152.144 265.63 152.34 262.339 152.513C259.763 152.649 257.186 152.781 254.606 152.846C254.142 152.858 253.537 152.922 252.876 152.993L252.876 152.993H252.876C251.277 153.163 249.353 153.369 248.313 152.944C247.063 152.432 246.051 151.717 246.739 150.202C247.32 148.921 249.433 149.074 250.974 149.186C251.395 149.217 251.773 149.244 252.065 149.239C256.989 149.143 261.902 148.867 266.817 148.566C268.615 148.456 270.412 148.343 272.209 148.23L272.21 148.23L272.21 148.23L272.21 148.23L272.21 148.23C281.567 147.641 290.915 147.053 300.295 146.893C309.959 146.728 319.617 146.397 329.276 146.065ZM390.065 222.669L393.411 222.628C395.139 222.779 395.912 224.592 394.802 225.986C393.953 227.054 390.684 227.102 388.553 227.134C387.962 227.142 387.459 227.15 387.119 227.177C381.556 227.624 376.004 227.826 370.424 227.879C358.674 227.991 346.968 228.494 335.237 229.163C323.229 229.848 311.211 230.105 299.192 230.363H299.191C290.349 230.552 281.506 230.742 272.667 231.101C267.605 231.307 262.542 231.461 257.478 231.594C256.934 231.608 256.21 231.686 255.391 231.775C252.192 232.12 247.544 232.622 246.491 230.082C245.556 227.827 246.855 226.789 248.755 226.317C248.455 224.982 248.511 223.106 248.542 222.031C248.552 221.708 248.559 221.457 248.554 221.316C248.507 219.968 248.473 218.62 248.44 217.272C248.402 215.745 248.365 214.218 248.306 212.692C248.252 211.306 248.203 209.919 248.153 208.532C247.957 203.059 247.761 197.574 247.339 192.123C247.145 189.607 246.837 187.121 246.529 184.639C246.038 180.676 245.547 176.724 245.525 172.678C245.521 171.95 245.484 171.04 245.443 170.014C245.233 164.761 244.901 156.457 248.161 153.928C253.91 150.574 252.773 160.257 252.266 164.578C252.183 165.291 252.116 165.859 252.1 166.197C251.77 173.383 252.218 180.252 252.941 187.392C253.43 192.214 253.144 197.02 252.859 201.834C252.757 203.553 252.655 205.274 252.588 206.996C252.555 207.848 252.525 208.7 252.496 209.552C252.405 212.173 252.315 214.791 252.118 217.409C252.096 217.692 252.089 218.235 252.08 218.929C252.054 220.887 252.013 224.044 251.594 225.961C252.486 225.923 253.351 225.932 254.067 225.94C254.522 225.945 254.917 225.949 255.219 225.94C256.591 225.899 257.964 225.858 259.336 225.818C263.39 225.699 267.444 225.581 271.497 225.428C281.065 225.068 290.636 224.948 300.207 224.828C311.511 224.686 322.816 224.544 334.115 224.007C352.737 223.122 371.423 222.895 390.065 222.669ZM393.519 152.42C393.509 164.729 394.461 176.701 395.573 188.96C396.261 196.543 396.812 204.155 397.251 211.758C397.271 212.11 397.268 212.697 397.264 213.432V213.433C397.242 217.637 397.194 226.695 401.349 224.528C404.486 222.892 403.28 213.405 402.613 208.156L402.613 208.155C402.467 207.004 402.346 206.056 402.303 205.44C402.212 204.128 402.122 202.816 402.032 201.504L402.032 201.502C401.614 195.408 401.197 189.318 400.647 183.231L400.531 181.948C399.895 174.917 399.259 167.891 399.146 160.828C399.137 160.244 399.193 159.43 399.256 158.511C399.44 155.852 399.685 152.311 398.58 150.898C397.026 148.911 393.522 149.499 393.519 152.42Z" fill="url(#paint30_linear)"/>
<path fill-rule="evenodd" clip-rule="evenodd" d="M329.808 182.595C344.675 175.869 359.714 169.065 375.174 164.22C376.291 163.87 376.998 165.022 376.744 165.989C376.483 166.985 374.064 167.835 372.46 168.399C371.981 168.568 371.574 168.711 371.319 168.824C369.16 169.789 366.995 170.741 364.83 171.694C362.613 172.669 360.396 173.645 358.185 174.633C353.587 176.687 348.985 178.733 344.383 180.778C339.454 182.968 334.526 185.158 329.603 187.36C329.416 187.443 329.23 187.527 329.043 187.61C335.737 189.989 342.393 192.474 349.02 195.035C351.285 195.909 353.542 196.803 355.799 197.696C357.076 198.201 358.353 198.706 359.631 199.208C360.047 199.371 360.772 199.593 361.643 199.859C364.481 200.725 368.871 202.066 369.196 203.42C369.724 205.626 363.663 203.492 361.376 202.687C361.072 202.58 360.835 202.497 360.689 202.45C357.314 201.371 353.98 200.17 350.648 198.968L350.187 198.802C347.545 197.851 344.908 196.889 342.271 195.927C337.119 194.049 331.968 192.17 326.789 190.368C326.056 190.113 325.323 189.859 324.59 189.606C316.278 193.34 307.982 197.109 299.714 200.938C295.28 202.992 290.871 205.093 286.473 207.222C285.513 207.687 284.325 208.405 283.034 209.186C279.939 211.056 276.255 213.283 273.721 213.227C272.362 213.197 271.446 212.906 271.304 211.259C271.158 209.559 273.339 208.668 274.907 208.027C275.282 207.873 275.622 207.734 275.887 207.602C280.587 205.251 285.317 202.96 290.059 200.698C299.479 196.205 308.987 191.891 318.529 187.663C318.584 187.639 318.639 187.615 318.693 187.59C313.402 185.8 308.095 184.051 302.777 182.34C302.246 182.169 301.157 181.868 299.726 181.471C292.965 179.599 278.563 175.61 279.204 173.28C279.939 170.615 293.442 175.486 299.42 177.643C300.54 178.047 301.396 178.356 301.854 178.502C309.001 180.779 316.128 183.121 323.218 185.57C325.411 184.585 327.608 183.591 329.808 182.595Z" fill="url(#paint31_linear)"/>
<path fill-rule="evenodd" clip-rule="evenodd" d="M266.107 241.134C270.459 241.896 273.529 246.071 273.051 250.443C272.406 256.35 266.519 259.057 261.08 258.286C254.909 257.411 253.611 252.195 256.601 247.176C257.263 246.065 258.024 244.735 259.227 244.15C260.055 243.748 261.109 244.104 261.775 243.78C264.11 242.643 262.706 240.832 266.107 241.134ZM264.126 237.275C258.816 237.953 249.004 244.098 249.501 250.246C249.932 250.959 250.58 251.251 251.445 251.121C251.237 252.453 251.305 253.77 251.649 255.074C252.153 256.766 253.159 258.153 254.508 259.255C257.285 261.524 261.081 262.081 264.539 261.683C270.995 260.941 276.084 256.528 276.447 249.813C276.801 243.257 271.079 236.397 264.126 237.275Z" fill="url(#paint32_linear)"/>
<path fill-rule="evenodd" clip-rule="evenodd" d="M289.845 245.275C287.463 246.538 283.694 248.477 282.297 250.876C280.82 253.409 282.349 256.18 285.459 254.982C287.928 254.03 289.498 251.008 292.131 250.039C294.456 249.185 295.392 249.62 297.848 250.471C300.379 251.348 302.592 252.196 305.328 251.981C308.767 251.711 311.745 249.717 315.111 249.263C317.945 248.881 320.282 249.984 322.996 250.422C326.145 250.931 328.203 249.739 331.15 249.119C333.154 248.696 336.686 250.414 338.147 249.772C341.434 248.327 337.957 246.56 336.138 245.976C333.073 244.993 331.187 245.861 328.272 246.676C325.107 247.561 323.739 246.896 320.714 246.083C314.593 244.438 309.864 248.415 304.062 247.692C298.69 247.022 295.476 242.294 289.845 245.275" fill="#333333"/>
<path fill-rule="evenodd" clip-rule="evenodd" d="M389.936 242.336C395.827 247.86 389.209 255.719 382.712 251.305C380.426 249.751 380.389 247.255 382.169 245.022C383.796 242.98 387.372 242.184 389.936 242.336ZM387.752 237.873C382.247 238.943 377.055 241.469 376.557 247.822C376.07 254.021 382.428 256.899 387.769 256.493C399.761 255.58 398.894 235.719 387.752 237.873Z" fill="url(#paint33_linear)"/>
</g>
<g opacity="0.5">
<path fill-rule="evenodd" clip-rule="evenodd" d="M55.5087 279.362C47.0845 279.457 38.6644 279.767 30.2569 280.299C22.2615 280.806 13.5865 280.421 5.72138 281.971C3.48805 282.411 0.471184 284.447 3.44076 286.685C5.52804 288.259 13.1646 286.449 15.6571 286.296C24.8361 285.732 34.0198 285.056 43.2118 284.731C51.9137 284.423 60.6152 284.315 69.3213 284.228C70.6506 284.215 72.857 283.789 74.1807 284.175C76.0825 284.73 75.6314 284.88 75.7737 287.294C76.032 291.669 75.9606 296.058 75.8739 300.437C75.79 304.673 75.6333 308.91 75.6486 313.148C75.6592 316.172 74.6925 322.182 76.21 324.808C78.3942 328.588 80.66 324.482 80.8232 321.97C81.1357 317.166 80.9956 312.302 80.997 307.491C80.998 302.976 81.0304 298.46 80.8714 293.947C80.7559 290.687 81.2219 284.996 79.4657 282.032C77.677 279.013 73.3703 279.664 70.2277 279.521C65.3257 279.295 60.4149 279.311 55.5087 279.362" fill="url(#paint34_linear)"/>
<path fill-rule="evenodd" clip-rule="evenodd" d="M1.90938 284.811C1.91865 293.295 0.937135 301.722 0.6622 310.197C0.536092 314.093 0.280165 318.372 1.26585 322.196C2.26081 326.058 5.42094 326.895 5.78489 322.584C6.52207 313.853 6.34126 304.8 6.91524 296C7.11784 292.893 8.43642 287.198 7.20547 284.289C6.12149 281.726 1.90474 281.235 1.90938 284.811" fill="url(#paint35_linear)"/>
<path fill-rule="evenodd" clip-rule="evenodd" d="M80.9058 322.208C66.2758 324.145 50.9815 323.439 36.2472 323.743C29.1781 323.889 22.1105 323.898 15.0405 323.972C12.5731 323.998 6.30707 323.059 4.17249 324.446C0.774517 326.654 4.46134 328.358 6.71089 328.407C20.663 328.713 34.7705 328.071 48.7199 327.613C54.9873 327.408 61.2751 327.307 67.5258 326.774C71.374 326.446 75.5791 326.129 79.316 325.095C80.1121 324.874 81.8456 324.92 82.0241 323.834C82.134 323.162 81.9346 322.066 80.9058 322.208" fill="url(#paint36_linear)"/>
<path fill-rule="evenodd" clip-rule="evenodd" d="M20.0698 334.54C16.0037 334.564 3.75077 332.676 2.06685 336.64C-0.17807 341.928 8.57952 340.694 10.9348 340.634C16.2842 340.496 21.6299 340.481 26.9807 340.484C32.2309 340.486 37.4806 340.452 42.7299 340.327C44.2506 340.291 47.7905 340.922 48.6653 339.091C49.3302 337.699 48.8049 336.601 47.5786 335.864C44.628 334.091 36.9627 335.119 33.5082 334.96C29.0355 334.754 24.548 334.54 20.0698 334.54" fill="#333333"/>
<path fill-rule="evenodd" clip-rule="evenodd" d="M69.5365 335.519C67.2128 335.658 62.5124 334.7 60.4307 335.763C58.0648 336.972 58.8984 338.865 60.9412 339.696C62.3557 340.272 68.1586 339.97 69.5365 339.303C70.9728 338.607 72.597 335.331 69.5365 335.519" fill="#333333"/>
<path fill-rule="evenodd" clip-rule="evenodd" d="M95.0123 285.643C92.5305 286.324 93.2834 300.414 93.2195 302.648C93.0442 308.767 92.3562 316.464 94.3897 322.358C95.6865 326.115 98.1771 325.606 97.7529 321.65C97.3801 318.178 96.7408 314.747 96.464 311.252C95.8381 303.345 94.9864 294.911 95.5775 286.997C95.8293 287.457 98.1836 291.722 98.7376 291.404C98.5703 291.503 96.0221 285.377 95.0123 285.643" fill="url(#paint37_linear)"/>
<path fill-rule="evenodd" clip-rule="evenodd" d="M122.93 280.454C117.907 280.528 112.885 280.617 107.864 280.756C103.871 280.867 97.5979 280.211 93.9366 281.891C89.577 283.89 91.6453 288.345 95.7401 288.44C99.3625 288.523 103.226 287.706 106.881 287.581C116.754 287.243 126.645 287.171 136.522 287.086C145.456 287.009 154.769 287.962 163.624 286.621C164.937 298.283 161.385 309.995 162.593 321.792C162.78 323.623 162.696 326.21 165.028 326.627C167.971 327.154 168.092 324.239 168.203 322.152C168.522 316.193 168.349 310.229 168.786 304.262C169.19 298.732 169.986 293.081 169.313 287.542C168.486 280.727 165.22 281.273 159.447 280.99C147.254 280.392 135.137 280.275 122.93 280.454" fill="url(#paint38_linear)"/>
<path fill-rule="evenodd" clip-rule="evenodd" d="M106.097 321.867C103.538 321.931 99.2874 321.143 97.6475 323.597C95.9413 326.15 97.9655 328.377 100.446 328.901C103.383 329.521 107.212 328.671 110.26 328.662C113.434 328.653 116.609 328.688 119.783 328.7C133.391 328.754 147.058 328.96 160.656 328.397C162.555 328.319 167.945 328.955 169.26 327.134C170.426 325.518 169.61 324.069 168.074 323.246C165.554 321.895 160.377 322.409 157.574 322.302C154.112 322.17 150.646 322.127 147.182 322.073C133.511 321.862 119.767 321.529 106.097 321.867" fill="url(#paint39_linear)"/>
<path fill-rule="evenodd" clip-rule="evenodd" d="M117.609 333.67C112.516 333.757 107.083 333.534 102.041 334.306C97.6074 334.985 97.0617 339.271 101.834 339.772C106.219 340.233 111.536 339.372 115.943 339.089C117.508 338.988 119.329 339.131 120.079 337.401C120.862 335.593 119.365 333.859 117.609 333.67" fill="#333333"/>
<path fill-rule="evenodd" clip-rule="evenodd" d="M156.108 334.12C153.39 334.188 145.45 333.02 144.104 336.124C141.863 341.293 152.611 339.329 154.673 339.253C157.271 339.157 167.399 340.675 167.402 336.538C167.404 332.481 158.597 334.059 156.108 334.12" fill="#333333"/>
<path fill-rule="evenodd" clip-rule="evenodd" d="M1.47008 359.804C1.47657 369.207 0.891466 378.698 1.74919 388.076C2.10387 391.955 2.04313 399.386 4.28991 402.674C5.88481 405.009 8.09681 404.845 8.96798 402.042C9.5503 400.168 8.61886 396.421 8.515 394.417C8.41486 392.493 8.29802 390.57 8.20901 388.646C7.98043 383.689 7.99852 378.739 8.06667 373.779C8.12509 369.524 9.14926 363.896 8.18351 359.804C7.28313 355.991 1.47008 355.099 1.47008 359.804" fill="url(#paint40_linear)"/>
<path fill-rule="evenodd" clip-rule="evenodd" d="M95.9664 351.532C79.6534 351.941 63.3038 351.576 47.0052 352.383C38.9672 352.781 30.9607 353.656 22.963 354.527C19.0337 354.956 15.1067 355.398 11.1844 355.881C10.0007 356.027 0.165158 356.408 3.8645 360.148C5.4798 361.782 10.6201 360.076 12.6541 359.835C16.5922 359.37 20.5382 358.965 24.4818 358.548C31.9862 357.754 39.4999 357.002 47.0363 356.585C64.7856 355.601 82.6081 355.896 100.375 355.241C105.181 355.064 109.973 354.937 114.781 355.126C116.043 355.175 125.32 355.647 121.292 352.22C119.388 350.6 112.207 351.436 109.826 351.387C105.207 351.292 100.584 351.416 95.9664 351.532" fill="url(#paint41_linear)"/>
<path fill-rule="evenodd" clip-rule="evenodd" d="M118.205 367.373C118.124 363.029 118.044 358.685 117.846 354.344C117.638 349.773 123.864 349.081 125.711 352.781C127.04 355.445 126.807 359.977 126.606 363.862C126.525 365.427 126.45 366.888 126.485 368.078C126.564 370.806 126.765 373.628 126.968 376.486C127.48 383.68 128.008 391.111 126.664 397.902C126.01 401.202 123.226 402.936 121.373 401.138C121.371 401.141 121.368 401.145 121.366 401.149C120.669 402.176 118.499 402.174 116.902 402.172C116.462 402.172 116.065 402.171 115.754 402.192C111.377 402.49 107.081 402.992 102.743 403.642C94.0991 404.938 85.5302 405.734 76.7925 405.95C70.8639 406.097 64.9269 406.146 58.9884 406.196C47.6168 406.29 36.2394 406.384 24.904 407.162C21.0822 407.425 17.3184 407.875 13.5593 408.594C13.2393 408.655 12.884 408.734 12.5057 408.819C9.71062 409.44 5.66422 410.34 5.38775 406.434C5.05913 401.798 15.1072 401.19 20.278 400.878C21.0675 400.83 21.7433 400.789 22.2511 400.742C37.9516 399.282 53.8985 399.508 69.6657 399.732C70.4297 399.742 71.1933 399.753 71.9564 399.764C73.1868 399.781 74.4169 399.801 75.6468 399.821C82.3976 399.933 89.1404 400.044 95.8892 399.631C98.9602 399.443 102.071 399.346 105.189 399.25C110.161 399.096 115.149 398.941 120.012 398.414C119.279 395.57 119.151 392.214 119.03 389.051C118.983 387.819 118.937 386.617 118.857 385.485C118.429 379.456 118.317 373.415 118.205 367.373Z" fill="url(#paint42_linear)"/>
<path fill-rule="evenodd" clip-rule="evenodd" d="M131.408 357.693C129.204 357.993 127.366 359.879 128.35 362.271C129.589 365.283 133.28 364.106 135.718 363.916C143.468 363.308 151.56 364.521 159.217 363.606C161.308 363.356 164.341 362.217 162.464 359.408C161.053 357.296 155.911 357.667 153.725 357.464C146.25 356.773 138.873 356.957 131.408 357.693" fill="#333333"/>
<path fill-rule="evenodd" clip-rule="evenodd" d="M144.488 370.834C141.482 371.036 134.486 370.877 133.219 374.297C130.947 380.432 139.846 378.27 142.556 377.922C145.703 377.516 153.123 378.602 154.799 375.549C157.796 370.091 147.124 370.652 144.488 370.834" fill="#333333"/>
<path fill-rule="evenodd" clip-rule="evenodd" d="M136.759 384.298C135.333 385.724 135.331 388.271 136.759 389.698C138.507 391.445 142.317 391.082 144.614 391.209C147.818 391.388 157.021 393.083 158.612 389.31C160.759 384.219 152.425 384.326 149.684 384.037C146.516 383.704 139.385 381.671 136.759 384.298" fill="#333333"/>
<path fill-rule="evenodd" clip-rule="evenodd" d="M24.437 297.159C24.437 302.632 32.985 302.632 32.985 297.159C32.985 291.715 24.437 291.632 24.437 297.159" fill="url(#paint43_linear)"/>
<path fill-rule="evenodd" clip-rule="evenodd" d="M40.6509 297.221C40.6509 303.478 50.3872 303.465 50.3872 297.221C50.3872 290.986 40.6509 290.922 40.6509 297.221" fill="url(#paint44_linear)"/>
<path fill-rule="evenodd" clip-rule="evenodd" d="M30.8422 305.54C26.1094 306.847 30.4695 310.858 32.6671 311.774C36.1596 313.231 40.9263 314.304 44.4198 312.121C45.8097 311.252 46.9382 310.097 45.9196 308.411C44.8342 306.616 43.3483 307.414 41.6959 307.579C39.6026 307.79 37.9108 307.758 35.8893 307.086C34.3807 306.585 32.4877 305.087 30.8422 305.54" fill="url(#paint45_linear)"/>
<path fill-rule="evenodd" clip-rule="evenodd" d="M116.69 297.505C116.69 301.207 122.438 301.207 122.438 297.505C122.438 293.804 116.69 293.804 116.69 297.505" fill="url(#paint46_linear)"/>
<path fill-rule="evenodd" clip-rule="evenodd" d="M129.402 298.062C129.402 302.175 135.787 302.176 135.787 298.062C135.787 293.949 129.402 293.949 129.402 298.062" fill="url(#paint47_linear)"/>
<path fill-rule="evenodd" clip-rule="evenodd" d="M128.929 306.988C125.575 307.421 115.873 308.404 115.33 312.539C114.493 318.918 125.123 313.755 127.549 313.254C130.639 312.616 133.399 312.783 136.484 312.907C138.177 312.975 140.43 313.249 140.253 310.669C139.962 306.432 131.861 306.613 128.929 306.988" fill="url(#paint48_linear)"/>
<path fill-rule="evenodd" clip-rule="evenodd" d="M44.5916 365.815C42.1603 366.463 38.9797 370.667 40.6525 373.239C43.3954 377.458 44.605 370.98 45.753 370.357C47.8416 369.222 49.5372 373.368 51.7199 371.193C55.1643 367.762 46.76 365.234 44.5916 365.815" fill="url(#paint49_linear)"/>
<path fill-rule="evenodd" clip-rule="evenodd" d="M72.4503 362.696C69.5669 362.722 63.4799 366.805 63.0487 369.819C62.7928 371.61 63.9801 373.33 65.9107 373.354C68.5395 373.386 69.375 369.968 71.6538 369.254C74.1119 368.483 73.7471 370.258 75.87 371.178C77.4237 371.852 79.3668 371.57 79.9064 369.66C80.9246 366.057 75.4129 362.639 72.4503 362.696" fill="url(#paint50_linear)"/>
<path fill-rule="evenodd" clip-rule="evenodd" d="M50.3793 379.954C45.7676 382.656 53.3559 388.449 55.9865 389.174C59.958 390.267 67.9511 388.226 68.8922 383.375C69.2669 381.444 68.0591 379.695 65.9282 380.041C64.1738 380.326 63.0486 382.527 61.4236 383.315C59.2301 384.378 57.2801 384.306 55.4163 382.705C53.8979 381.4 53.0846 378.376 50.3793 379.954" fill="url(#paint51_linear)"/>
<path fill-rule="evenodd" clip-rule="evenodd" d="M53.7222 419.886C49.6018 420.764 45.4134 420.175 41.2731 421.001C37.0513 421.844 34.5282 423.439 30.6058 421.832C30.4213 421.754 30.2372 421.676 30.0532 421.598C27.0173 420.291 23.8354 419.903 20.6576 421.988C18.7771 423.221 13.0684 427.486 13.7564 430.089C15.2475 435.732 21.6711 426.883 23.3091 426.021C26.4327 424.377 28.5742 426.478 31.7899 427.07C35.6418 427.781 38.7412 425.745 42.3696 424.935C46.6133 423.986 51.3873 423.656 55.7047 423.149C57.4104 422.948 63.8711 424.297 64.4544 422.174C65.4563 418.528 55.3416 419.542 53.7222 419.886" fill="#333333"/>
<path fill-rule="evenodd" clip-rule="evenodd" d="M83.4493 431.25C83.7186 431.454 83.5026 431.29 83.4493 431.25ZM94.9891 419.665C98.5165 419.307 109.802 416.787 112.119 420.432C113.629 422.806 111.233 431.569 108.949 432.702C107.122 433.607 102.869 432.606 100.865 432.535C97.1362 432.404 93.3998 432.346 89.6754 432.113C88.4264 432.035 84.4071 432.265 83.4279 431.16C82.2716 429.854 82.3231 422.895 82.051 421.17C85.2941 422.219 91.5981 420.009 94.9891 419.665M102.521 416.091C98.0037 416.287 93.487 416.627 89.0031 417.233C86.5037 417.57 83.9713 418.468 81.6629 418.894C80.9188 419.031 79.711 418.651 78.7986 419.091C76.1322 420.379 78.4671 429.089 79.1101 431.416C80.0977 434.99 82.5832 435.569 86.0656 435.906C90.6528 436.35 95.3341 436.21 99.9356 436.154C104.371 436.1 110.352 437.083 112.841 432.632C114.45 429.754 116.175 423.053 114.8 419.846C112.991 415.627 106.236 415.936 102.521 416.091" fill="url(#paint52_linear)"/>
<path fill-rule="evenodd" clip-rule="evenodd" d="M153.11 433.644C152.869 433.954 152.869 433.954 153.11 433.644ZM154.1 432.451C154.026 432.564 153.679 432.93 154.1 432.451ZM143.327 432.123C145.318 431.748 147.31 431.377 149.304 431.014C147.416 433.656 145.428 432.564 142.203 432.334C142.578 432.263 142.952 432.193 143.327 432.123M133.826 431.188C134.331 431.019 134.835 430.85 135.34 430.681C135.325 431.065 135.407 431.425 135.588 431.76C134.724 431.667 133.86 431.567 132.998 431.46C133.274 431.369 133.55 431.279 133.826 431.188M129.423 427.937C129.395 427.243 130.438 427.719 131.035 427.673C129.883 428.687 129.346 428.775 129.423 427.937M145.169 420.072C145.32 419.879 145.521 419.889 145.771 420.101C145.498 420.193 144.448 420.638 145.169 420.072M155.38 418.871C155.407 418.871 155.973 419.636 155.38 418.871ZM155.093 418.621C155.242 418.734 155.242 418.734 155.093 418.621ZM153.819 418.472C155.907 418.824 155.748 421.274 153.819 418.472ZM129.29 418.305C128.866 418.657 129.011 418.315 129.29 418.305ZM137.275 413.088C133.73 413.295 127.224 413.087 124.264 414.975C120.401 417.441 122.433 425.926 122.779 429.646C123.29 435.145 125.877 436.71 131.055 437.287C137.235 437.976 143.585 438.105 149.796 437.941C155.391 437.794 158.577 435.87 159.601 429.98C159.915 428.178 160.712 425.39 160.687 423.664C160.67 422.466 160.073 421.92 159.847 420.902C158.562 415.105 156.414 414.418 150.472 414.165C146.099 413.979 141.565 412.864 137.275 413.088" fill="url(#paint53_linear)"/>
</g>
<g opacity="0.5">
<path fill-rule="evenodd" clip-rule="evenodd" d="M325.032 279.913C334.044 280.105 344.268 285.093 342.843 295.659C341.799 303.399 335.098 309.683 327.336 310.224C318.994 310.806 310.174 304.404 309.041 295.911C307.766 286.357 316.22 279.722 325.032 279.913M320.613 275.612C316.959 276.157 313.468 278.076 310.251 279.794C309.023 280.451 302.798 284.452 307.681 285.446C295.916 304.42 323.603 322.043 339.17 309.712C346.161 304.174 349.841 293.675 345.322 285.457C340.649 276.958 329.566 274.267 320.613 275.612" fill="url(#paint54_linear)"/>
<path fill-rule="evenodd" clip-rule="evenodd" d="M318.459 291.762C318.459 295.306 323.96 295.306 323.96 291.762C323.96 288.219 318.459 288.219 318.459 291.762" fill="url(#paint55_linear)"/>
<path fill-rule="evenodd" clip-rule="evenodd" d="M328.658 292.33C328.658 296.172 334.621 296.172 334.621 292.33C334.621 288.488 328.658 288.488 328.658 292.33" fill="url(#paint56_linear)"/>
<path fill-rule="evenodd" clip-rule="evenodd" d="M321.775 299.927C320.973 302.842 330.123 304.337 330.428 300.963C330.573 299.352 322.333 297.894 321.775 299.927" fill="url(#paint57_linear)"/>
<path fill-rule="evenodd" clip-rule="evenodd" d="M348.6 298.126C359.129 296.863 369.985 297.447 380.565 297.75C383.213 297.826 385.861 297.9 388.509 297.944C390.193 297.973 393.829 298.781 395.298 297.993C401.315 294.766 389.512 293.205 387.84 293.057C377.316 292.191 361.075 291.882 350.52 292.291C347.398 292.412 346.724 298.351 348.6 298.126" fill="url(#paint58_linear)"/>
<path fill-rule="evenodd" clip-rule="evenodd" d="M395.98 350.469C396.071 339.437 396.466 328.33 397.314 317.331C397.659 312.847 398.074 308.37 398.417 303.887C398.579 301.775 399.329 298.817 398.088 296.964C396.809 295.055 394.003 294.658 392.312 296.35C390.288 298.97 390.876 303.367 390.625 306.537C390.238 311.41 389.77 316.28 389.538 321.164C389.089 330.617 388.983 340.234 389.743 349.673C390.102 354.127 390.879 358.473 391.914 362.817C392.385 364.795 396.133 373.603 395.345 374.818C394.124 376.702 385.099 375.99 383.141 376.042C378.118 376.177 373.092 376.265 368.067 376.361C363.765 376.443 359.463 376.502 355.16 376.54C353.452 376.555 343.414 376.251 345.641 378.784C320.742 380.519 295.366 377.622 270.619 376.629C269.369 376.578 267.323 376.224 265.435 376.121C265.209 375.21 265.023 374.395 264.977 373.828C264.652 369.851 264.567 365.86 264.215 361.884C263.569 354.609 262.318 347.407 261.574 340.144C260.831 332.889 260.906 325.612 260.474 318.339C260.4 317.093 260.224 306.885 257.648 304.405C258.87 304.868 260.839 304.928 261.973 304.836C271.153 304.096 280.267 302.501 289.368 301.131C291.972 300.74 297.881 301.017 300.041 299.716C301.91 298.589 302.65 294.638 299.398 294.958C290.323 295.93 281.296 297.439 272.292 298.924C269.883 299.321 267.481 299.746 265.079 300.181C263.475 300.47 259.241 300.448 257.997 301.415C256.486 302.589 256.326 303.388 256.838 303.919C256.126 303.723 255.273 304.031 254.248 305.056C252.311 307.578 254.132 313.789 254.363 316.746C254.641 320.293 254.777 323.846 254.939 327.399C255.251 334.275 255.97 341.056 257.077 347.85C258.317 355.46 259.371 363.102 260.614 370.71C260.938 372.691 261.359 374.623 261.898 376.537C258.549 378.25 260.826 380.973 263.482 381.456C263.501 381.46 263.521 381.463 263.54 381.466C264.367 383.485 265.525 385.355 266.43 382.65C266.499 382.443 266.531 382.187 266.539 381.9C273.399 382.676 280.938 382.194 287.691 382.47C302.319 383.068 317.037 383.965 331.68 383.51C337.477 383.33 343.291 382.815 349.04 382.042C352.407 381.589 355.788 381.048 359.102 380.297C359.339 380.244 359.7 380.187 360.117 380.118C360.185 380.116 360.254 380.115 360.319 380.114C365.393 380.037 370.463 379.901 375.533 379.69C379.789 379.513 384.064 379.423 388.306 379.021C390.941 378.772 396.51 378.818 398.128 376.168C399.599 373.759 397.139 367.552 396.79 364.846C396.176 360.08 395.941 355.27 395.98 350.469" fill="url(#paint59_linear)"/>
<path fill-rule="evenodd" clip-rule="evenodd" d="M344.556 318.614C340.501 318.961 336.752 320.865 332.66 320.889C329.225 320.909 325.844 319.882 322.39 320.034C318.339 320.21 316.11 322.83 312.562 323.707C309.737 324.404 307.957 322.242 305.472 321.285C302.335 320.077 300.017 320.701 297.328 322.528C295.352 323.871 290.744 326.884 290.78 329.599C290.886 337.825 300.483 326.462 302.417 326.324C304.988 326.141 307.86 329.071 310.595 329.238C314.211 329.46 316.529 327.129 319.859 326.279C323.226 325.42 326.866 326.473 330.242 326.799C334.093 327.172 337.464 326.313 341.19 325.394C344.801 324.503 347.878 324.55 351.547 325.298C354.023 325.803 360.193 328.739 361.276 324.964C362.751 319.823 347.39 318.373 344.556 318.614" fill="#333333"/>
<path fill-rule="evenodd" clip-rule="evenodd" d="M345.79 334.302C337.482 335.109 329.123 335.816 320.777 336.042C317.162 336.141 303.266 334.591 304.498 339.185C305.555 343.123 324.465 340.643 328.317 340.343C332.569 340.013 336.815 339.551 341.046 339.016C342.545 338.826 346.166 339.022 347.225 337.765C348.233 336.565 347.736 334.108 345.79 334.302" fill="#333333"/>
<path fill-rule="evenodd" clip-rule="evenodd" d="M288.476 355.221C288.286 355.301 288.286 355.301 288.476 355.221ZM290.228 355.197C292.299 355.132 291.855 354.039 293.922 354.609C294.875 354.871 294.972 354.482 295.711 355.392C297.153 357.169 295.795 361.039 294.374 362.471C289.113 367.773 282.799 355.433 290.228 355.197M290.228 349.995C275.825 350.479 281.851 372.728 294.387 368.186C299.564 366.311 302.818 357.861 299.773 353.112C298.292 350.802 296.403 350.391 293.922 350.231C293.345 350.194 292.621 351.031 292.261 350.993C291.406 350.903 291.486 349.948 290.228 349.995" fill="url(#paint60_linear)"/>
<path fill-rule="evenodd" clip-rule="evenodd" d="M324.671 355.984C324.414 355.904 329.219 357.301 328.693 356.754C329.815 357.921 328.307 360.68 327.038 361.161C323.965 362.328 322.24 357.549 324.671 355.984M326.803 349.951C322.293 350.59 318.813 352.468 318.196 357.483C317.628 362.112 320.755 366.799 325.689 366.89C336.442 367.086 336.769 348.56 326.803 349.951" fill="url(#paint61_linear)"/>
<path fill-rule="evenodd" clip-rule="evenodd" d="M375.893 356.186C376.523 364.406 367.999 356.882 375.893 356.186ZM372.235 347.392C371.49 348.666 372.125 350.018 373.25 350.759C363.196 352.884 365.473 368.013 375.704 365.778C380.907 364.641 381.864 359.17 381.088 354.653C380.719 352.505 375.366 342.038 372.235 347.392" fill="url(#paint62_linear)"/>
</g>
<g opacity="0.5">
<path fill-rule="evenodd" clip-rule="evenodd" d="M537.586 316.268C537.583 321.946 537.296 327.742 538.343 333.353C538.659 335.051 538.909 338.304 540.701 339.186C542.501 340.071 544.246 339.076 544.693 337.231C545.215 335.085 544.07 331.872 543.955 329.619C543.795 326.54 543.785 323.458 543.783 320.376C543.782 318.15 544.515 314.569 541.887 313.424C539.933 312.573 537.586 314.156 537.586 316.268" fill="url(#paint63_linear)"/>
<path fill-rule="evenodd" clip-rule="evenodd" d="M627.353 307.287C608.541 309.176 589.457 309.568 570.576 310.553C561.849 311.008 551.301 310.427 543.079 313.806C541.552 314.433 536.084 317.925 540.523 319.347C541.907 319.79 543.313 318.299 544.449 317.8C546.341 316.969 548.532 316.712 550.55 316.387C567.706 313.632 585.651 314.112 602.984 312.825C607.425 312.495 611.869 312.155 616.301 311.719C619.467 311.407 626.122 309.125 629.044 310.292C634.038 312.287 633.921 325.247 634.019 329.704C634.071 332.009 631.833 340.283 636.281 339.444C639.84 338.773 638.552 330.177 638.274 327.826C637.546 321.662 636.305 306.38 627.353 307.287" fill="url(#paint64_linear)"/>
<path fill-rule="evenodd" clip-rule="evenodd" d="M634.291 339.145C617.95 340.621 601.233 339.173 584.824 339.753C576.224 340.058 567.632 340.543 559.03 340.827C555.31 340.95 551.586 340.955 547.864 340.981C546.084 340.993 537.983 342.073 542.994 345.602C545.213 347.165 552.285 345.906 554.831 345.876C558.656 345.831 562.478 345.672 566.3 345.522C575.152 345.176 583.999 344.696 592.856 344.457C601.328 344.227 609.805 344.178 618.277 343.949C622.492 343.834 626.765 343.705 630.943 343.09C631.886 342.95 634.948 342.84 635.603 341.789C636.222 340.795 635.787 339.001 634.291 339.145" fill="url(#paint65_linear)"/>
<path fill-rule="evenodd" clip-rule="evenodd" d="M553.978 326.877C553.89 327.085 553.89 327.085 553.978 326.877ZM561.055 324.726C561.313 324.835 561.313 324.835 561.055 324.726ZM560.723 324.666C564.537 328.553 558.672 333.193 555.1 329.399C551.308 325.373 558.268 324.679 560.723 324.666M556.679 318.785C543.543 321.123 548.194 338.629 560.462 336.099C565.848 334.989 568.928 329.563 567.075 324.351C566.35 322.314 564.772 320.079 562.573 319.437C561.477 319.118 560.507 319.621 559.463 319.503C558.467 319.391 557.915 318.563 556.679 318.785" fill="url(#paint66_linear)"/>
<path fill-rule="evenodd" clip-rule="evenodd" d="M606.95 323.713C599.029 323.738 591.106 324.075 583.187 324.225C580.757 324.271 574.514 323.184 574.504 327.013C574.493 331.105 581.448 329.594 583.763 329.539C591.618 329.351 599.494 329.007 607.319 328.259C609.295 328.07 616.137 328.396 616.13 325.708C616.123 322.861 608.546 323.713 606.95 323.713" fill="#333333"/>
<path fill-rule="evenodd" clip-rule="evenodd" d="M625.868 350.421C606.278 350.947 586.717 351.13 567.143 352.133C559.821 352.508 552.509 352.787 545.177 352.787C543.765 352.787 540.921 352.24 539.592 353.129C535.985 355.541 540.093 357.612 542.443 357.742C558.524 358.634 574.837 356.413 590.908 355.912C600.317 355.618 609.728 355.532 619.131 355.053C621.696 354.922 624.261 354.771 626.823 354.572C628.295 354.458 632.19 354.771 633.381 353.909C638.578 350.147 627.621 350.374 625.868 350.421" fill="url(#paint67_linear)"/>
<path fill-rule="evenodd" clip-rule="evenodd" d="M535.986 360C535.801 365.079 535.782 370.07 536.447 375.121C536.708 377.108 536.828 379.364 539.158 379.869C541.274 380.327 542.347 378.727 542.785 376.953C543.855 372.62 542.914 366.384 542.901 361.883C542.895 359.657 542.893 357.166 540.143 356.663C538.045 356.279 536.066 357.795 535.986 360" fill="url(#paint68_linear)"/>
<path fill-rule="evenodd" clip-rule="evenodd" d="M646.633 372.245C614.922 373.916 583.252 375.375 551.517 376.716C549.042 376.821 529.816 376.611 536.538 383.316C538.614 385.387 543.963 383.984 546.647 383.853C550.682 383.654 554.719 383.503 558.753 383.298C574.75 382.483 590.788 382.264 606.773 381.35C615.57 380.847 624.346 380.06 633.097 379.036C637.259 378.549 642.426 378.599 646.324 376.968C648.329 376.129 650.494 372.04 646.633 372.245" fill="url(#paint69_linear)"/>
<path fill-rule="evenodd" clip-rule="evenodd" d="M628.399 346.48C625.988 348.881 627.228 353.62 627.41 356.588C627.66 360.674 627.963 364.762 628.473 368.824C628.805 371.464 628.63 375.571 630.038 377.851C631.686 380.521 635.317 380.225 636.807 377.646C638.126 375.365 637.459 370.565 637.424 368.038C637.377 364.542 637.16 361.041 636.952 357.552C636.779 354.637 637.439 349.964 635.835 347.468C634.206 344.933 630.659 344.232 628.399 346.48" fill="url(#paint70_linear)"/>
<path fill-rule="evenodd" clip-rule="evenodd" d="M555.917 365.119C555.634 365.337 555.634 365.337 555.917 365.119ZM561.549 364.413C566.805 365.47 558.307 371.607 555.621 367.395C555.202 366.737 554.983 365.928 555.657 365.356C556.271 364.834 556.657 365.759 557.238 365.51C558.238 365.082 560.482 364.374 561.549 364.413M560.824 359.376C557.236 359.66 552.303 359.881 550.527 363.478C548.141 368.309 552.221 373.041 556.942 373.776C561.485 374.483 568.267 371.967 568.631 366.669C568.924 362.397 564.861 359.048 560.824 359.376" fill="url(#paint71_linear)"/>
<path fill-rule="evenodd" clip-rule="evenodd" d="M590.781 361.93C587.066 361.99 579.765 360.892 576.529 362.702C573.327 364.494 574.755 367.684 577.676 368.447C579.607 368.951 582.763 368.138 584.773 368.056C587.418 367.948 590.064 367.925 592.71 367.888C597.161 367.828 601.609 367.879 606.06 367.879C610.605 367.879 615.228 368.003 619.766 367.669C625.508 367.246 625.353 362.947 619.738 362.41C610.199 361.497 600.35 361.78 590.781 361.93" fill="#333333"/>
<path fill-rule="evenodd" clip-rule="evenodd" d="M540.297 393.637C540.414 399.574 540.491 405.517 540.744 411.45C540.825 413.326 540.288 416.989 542.561 417.946C545.092 419.01 545.879 416.357 546.171 414.559C547.094 408.862 546.189 402.358 546.1 396.594C546.07 394.659 546.489 391.965 544.291 391C542.498 390.213 540.261 391.674 540.297 393.637" fill="url(#paint72_linear)"/>
<path fill-rule="evenodd" clip-rule="evenodd" d="M637.936 393.73C638.086 394.084 638.086 394.084 637.936 393.73ZM638.147 393.67C638.269 393.721 638.761 393.927 638.147 393.67ZM590.184 388.871C581.069 389.014 571.948 389.122 562.839 389.512C558.952 389.679 555.02 389.814 551.145 390.18C548.401 390.44 541.585 390.548 539.805 392.79C536.132 397.419 543.921 396.156 545.598 395.781C548.651 395.096 551.767 394.877 554.886 394.712C561.653 394.356 568.424 394.165 575.199 394.028C593.574 393.659 611.962 393.715 630.34 393.632C632.119 393.624 635.335 392.908 636.979 393.628C638.625 394.35 638.532 396.123 638.703 398.182C638.931 400.922 637.123 406.143 638.5 408.448C640.636 412.023 643.742 408.987 644.217 406.381C644.873 402.78 643.833 398.456 642.815 395.014C641.379 390.157 639.386 389.964 634.688 389.584C629.2 389.141 623.731 388.872 618.224 388.821C608.88 388.735 599.528 388.726 590.184 388.871" fill="url(#paint73_linear)"/>
<path fill-rule="evenodd" clip-rule="evenodd" d="M626.233 413.414C606.464 415.71 586.132 414.357 566.257 414.438C561.424 414.458 556.586 414.497 551.758 414.731C549.208 414.855 543.162 414.152 541.415 416.119C537.732 420.266 544.366 420.87 546.788 420.698C551.685 420.35 556.594 420.191 561.503 420.153C578.796 420.019 596.186 420.826 613.465 419.973C620.704 419.616 627.781 418.377 634.886 416.994C636.46 416.687 647.235 414.639 641.091 412.183C637.459 410.732 630.048 412.969 626.233 413.414" fill="url(#paint74_linear)"/>
<path fill-rule="evenodd" clip-rule="evenodd" d="M568.512 405.822C568.374 405.999 568.374 405.999 568.512 405.822ZM568.379 405.791C568.332 405.918 568.187 406.232 568.379 405.791ZM567.132 404.183C567.161 404.22 567.278 404.371 567.132 404.183ZM567.084 404.171C567.56 404.739 567.881 405.373 568.045 406.072C563.949 407.182 562.371 403.868 567.084 404.171M566.825 404.016C566.826 404.017 567.402 404.259 566.825 404.016ZM560.096 399.079C557.445 402.38 555.257 406.227 558.562 409.998C561.517 413.37 567.463 413.805 571.213 411.554C575.077 409.235 574.743 404.352 572.048 401.165C570.313 399.113 568.906 399.17 566.388 398.835C564.674 398.607 561.551 397.274 560.096 399.079" fill="url(#paint75_linear)"/>
<path fill-rule="evenodd" clip-rule="evenodd" d="M587.5 405.189C587.5 409.585 606.481 407.693 609.858 407.688C612.687 407.684 629.79 409.244 628.563 404.721C627.554 401.004 610.707 402.851 607.119 402.846C604.017 402.841 587.5 400.712 587.5 405.189" fill="#333333"/>
</g>
<g opacity="0.5">
<path fill-rule="evenodd" clip-rule="evenodd" d="M339.7 446.376C349.206 447.756 359.094 452.227 359.011 463.292C358.941 472.595 351.139 482.496 341.119 481.94C332.103 481.441 323.612 471.58 322.483 463.13C321.898 458.752 322.993 454.039 325.568 450.437C328.942 445.719 334.296 445.726 339.7 446.376M335.21 440.362C328.334 440.399 323.304 442.886 319.049 448.136C317.523 450.018 315.748 452.044 314.586 454.177C313.501 456.169 313.691 461.234 317.415 458.859C316.498 468.665 322.229 478.182 330.467 483.207C339.422 488.669 349.544 487.604 356.997 479.948C363.819 472.94 366.22 461.103 361.229 452.436C356.241 443.774 344.683 440.269 335.21 440.362" fill="#333333"/>
<path fill-rule="evenodd" clip-rule="evenodd" d="M355.826 437.734C351.424 440.96 347.405 445.208 344.067 449.517C340.804 453.729 338.647 458.987 334.727 462.66C332.748 460.504 330.429 454.681 326.48 456.991C323.203 458.908 325.313 462.205 326.909 464.369C331.03 469.958 335.606 472.208 340.891 466.686C345.691 461.671 348.417 454.98 352.905 449.677C354.873 447.35 357.915 445.04 359.482 442.471C360.903 440.142 359.146 435.294 355.826 437.734" fill="#333333"/>
</g>
<g opacity="0.5">
<path fill-rule="evenodd" clip-rule="evenodd" d="M522.175 87.8775C522.182 88.3173 522.188 88.731 522.197 89.1114C522.403 97.4158 522.284 106.146 521.609 114.431C521.376 117.291 519.295 120.917 516.921 116.974C515.877 115.24 516.024 111.68 516.131 109.06C516.16 108.358 516.186 107.724 516.186 107.21C516.184 104.288 516.337 101.335 516.491 98.3751C516.792 92.5878 517.095 86.7701 516.238 81.0861C516.221 80.9711 516.204 80.8604 516.189 80.754C515.816 78.2544 515.791 78.0817 513.042 78.1386C511.896 78.1624 510.75 78.1933 509.605 78.2243C508.478 78.2548 507.351 78.2853 506.224 78.3089C505.104 78.3324 503.985 78.3539 502.866 78.3755C499.356 78.443 495.846 78.5105 492.337 78.6389C491.752 78.6605 490.659 78.7976 489.281 78.9705C486.524 79.3162 482.624 79.8054 479.342 79.8026C479.343 79.8167 479.344 79.8308 479.345 79.845C479.347 79.8703 479.349 79.8957 479.349 79.9215C479.386 81.7335 478.919 83.7562 478.45 85.7882C478.058 87.49 477.664 89.1983 477.563 90.7949C477.322 94.594 477.319 98.4332 477.317 102.273C477.313 106.947 477.31 111.622 476.877 116.225C476.856 116.449 476.843 116.687 476.83 116.927C476.829 116.958 476.827 116.99 476.825 117.022C476.974 117 477.118 116.984 477.257 116.975C479.623 116.825 482.008 116.812 484.39 116.798C485.704 116.791 487.016 116.784 488.323 116.753C490.671 116.699 493.048 116.701 495.434 116.704C500.701 116.71 506.015 116.715 511.167 116.108C512.689 115.911 513.221 117.863 512.538 118.875C511.927 119.781 510.244 119.927 509.012 120.035C508.699 120.062 508.415 120.087 508.185 120.121C504.862 120.613 501.495 120.785 498.142 120.933C494.621 121.089 491.096 121.206 487.573 121.304C486.734 121.327 485.615 121.44 484.374 121.566C481.097 121.897 476.972 122.314 474.925 121.387C472.724 120.392 472.776 119.287 473.674 118.43C473.28 117.564 473.218 116.299 473.169 115.309C473.151 114.931 473.134 114.593 473.102 114.333C472.614 110.392 472.319 106.501 472.312 102.526C472.298 94.7394 472.314 86.6526 474.468 79.1157C473.605 78.738 473.085 78.1811 473.087 77.3785C473.097 73.3349 485.682 73.5406 491.665 73.6385C492.735 73.6559 493.593 73.67 494.131 73.6557C498.489 73.5418 502.848 73.527 507.207 73.5506C508.128 73.5555 509.153 73.4952 510.215 73.4328C512.474 73.3 514.901 73.1574 516.852 73.6108C521.978 74.8007 522.101 82.9644 522.175 87.8775Z" fill="url(#paint76_linear)"/>
<path fill-rule="evenodd" clip-rule="evenodd" d="M554.235 74.497C558.994 74.2452 563.756 74.1874 568.521 74.1698C573.566 74.1443 578.619 74.235 583.662 74.3901L583.778 74.3936C586.013 74.4607 598.433 74.8338 592.727 77.9288C592.394 78.1093 592.019 78.2602 591.61 78.3855C591.852 79.8186 591.881 81.2982 591.842 82.011C591.695 84.7142 591.598 87.4204 591.501 90.1265C591.435 91.9605 591.369 93.7944 591.288 95.6273C591.063 100.692 590.849 105.756 590.675 110.823C590.653 111.445 590.686 112.259 590.723 113.165C590.844 116.163 591.007 120.179 589.379 121.664C587.951 122.968 586.974 122.707 586.317 121.821C582.228 123.008 573.833 122.622 569.611 122.428C568.594 122.382 567.819 122.346 567.405 122.346C566.665 122.346 565.29 122.439 563.553 122.555C556.324 123.041 542.83 123.947 542.802 120.384C542.799 120.041 542.911 119.733 543.12 119.458C542.548 118.874 542.032 118.016 541.701 116.945C540.513 113.101 540.401 108.953 540.313 104.968C540.189 99.3395 540.187 93.7048 540.186 88.0713C540.185 85.178 540.185 82.2851 540.167 79.3936C539.395 78.3557 539.853 77.1688 540.818 76.3406C542.87 74.5787 547.966 74.5574 551.652 74.542C552.644 74.5379 553.534 74.5341 554.235 74.497ZM546.491 117.895C551.078 116.915 558.807 117.231 562.948 117.4C564.032 117.444 564.871 117.478 565.342 117.476C569.571 117.46 573.802 117.518 578.028 117.687C578.465 117.705 579.114 117.688 579.878 117.669C581.412 117.631 583.412 117.58 585.111 117.768C585.088 117.538 585.073 117.328 585.064 117.146C584.873 113.384 585.011 109.59 585.148 105.817V105.817C585.177 105.015 585.206 104.214 585.232 103.415C585.322 100.594 585.443 97.7742 585.563 94.9546L585.563 94.9545L585.563 94.953C585.639 93.178 585.715 91.403 585.783 89.6276C585.813 88.8485 585.768 87.7902 585.718 86.5996V86.5995C585.616 84.1773 585.49 81.2073 585.924 78.9261C584.359 78.8964 582.756 78.7855 581.286 78.6838C579.869 78.5858 578.575 78.4964 577.558 78.4962C576.268 78.4961 574.979 78.4922 573.689 78.4882H573.689H573.689H573.689C570.116 78.4772 566.543 78.4662 562.97 78.537C562.631 78.5437 562.292 78.5502 561.953 78.5568L561.952 78.5568L561.952 78.5568C557.032 78.6517 552.071 78.7474 547.191 79.3956C546.905 79.4336 546.562 79.507 546.182 79.5959C546.716 81.8315 546.454 84.9823 546.225 87.7418C546.113 89.0821 546.01 90.3301 546.009 91.3361C546.002 97.592 546.167 103.823 546.332 110.048L546.332 110.048C546.394 112.403 546.457 114.757 546.51 117.111C546.516 117.392 546.509 117.653 546.491 117.895Z" fill="url(#paint77_linear)"/>
<path fill-rule="evenodd" clip-rule="evenodd" d="M494.284 121.123C491.157 122.95 492.843 130.258 493.927 132.786C495.708 136.942 499.322 140.194 503.222 142.352C511.104 146.712 522.466 145.554 528.427 153.114C528.489 153.192 530.549 155.232 531.018 152.59C531.403 150.422 527.557 147.111 526.066 146.024C521.827 142.934 516.391 141.938 511.488 140.394C506.259 138.747 500.521 135.712 498.328 130.322C497.552 128.412 499.032 118.336 494.284 121.123" fill="#333333"/>
<path fill-rule="evenodd" clip-rule="evenodd" d="M565.779 124.637C562.913 125.427 564.808 129.37 564.804 131.345C564.798 133.808 564.011 136.387 562.493 138.352C558.642 143.338 551.104 144.085 545.452 145.514C541.348 146.553 531.529 148.78 531.144 154.33C530.715 160.529 539.384 152.986 540.116 152.676C548.219 149.704 558.701 149.13 564.954 142.588C567.536 139.888 569.062 136.283 569.304 132.563C569.441 130.469 569.464 123.63 565.779 124.637" fill="#333333"/>
<path fill-rule="evenodd" clip-rule="evenodd" d="M506.561 179.615C506.494 168.147 517.469 161.21 527.393 158.601C539.322 155.458 550.433 163.816 551.84 175.84C553.324 188.528 543.76 198.744 531.148 199.304C520.054 199.796 506.632 191.853 506.561 179.615ZM533.207 164.115C533.852 164.992 534.434 166.392 533.134 167.154C531.884 167.883 531.26 167.007 530.631 166.125C530.234 165.568 529.835 165.008 529.276 164.851C527.826 164.442 525.495 165.968 524.288 166.857C523.797 167.218 523.1 167.995 522.284 168.903C519.688 171.795 515.897 176.017 513.802 172.384C505.446 186.813 526.278 197.611 538.124 192.151C551.134 186.154 548.602 164.229 533.207 164.115Z" fill="url(#paint78_linear)"/>
<path fill-rule="evenodd" clip-rule="evenodd" d="M522.289 175.776C522.289 178.409 526.446 178.409 526.446 175.776C526.446 173.174 522.289 173.063 522.289 175.776" fill="url(#paint79_linear)"/>
<path fill-rule="evenodd" clip-rule="evenodd" d="M529.603 175.282C529.603 178.507 534.697 178.507 534.697 175.282C534.697 172.095 529.603 171.959 529.603 175.282" fill="url(#paint80_linear)"/>
<path fill-rule="evenodd" clip-rule="evenodd" d="M524.369 182.796C520.203 185.246 532.117 190.115 532.587 185.14C532.79 182.993 530.711 183.572 529.325 183.414C527.999 183.263 525.627 182.064 524.369 182.796" fill="url(#paint81_linear)"/>
<path fill-rule="evenodd" clip-rule="evenodd" d="M522.562 200.181C522.743 206.44 522.656 212.695 523.843 218.867C524.069 220.039 524.226 224.291 525.152 225.162C527.431 227.304 527.468 223.198 527.557 221.625C527.873 215.989 527.282 210.179 527.151 204.531C527.123 203.316 527.445 200.798 526.871 199.622C525.961 197.754 522.474 197.2 522.562 200.181" fill="#333333"/>
<path fill-rule="evenodd" clip-rule="evenodd" d="M518.107 195.106C508.973 205.357 496.397 204.602 483.726 205.5C477.032 205.974 470.263 206.948 464.876 211.278C462.371 213.293 460.21 215.816 458.759 218.691C458.124 219.948 455.114 227.201 459.635 225.48C461.238 224.87 462.816 220.074 463.853 218.655C465.828 215.953 468.354 213.722 471.385 212.272C477.233 209.475 484.214 209.522 490.554 209.167C497.181 208.797 504.295 208.45 510.387 205.568C513.252 204.212 515.941 202.522 518.247 200.343C519.071 199.564 520.838 198.241 520.97 197.05C521.12 195.689 519.812 193.196 518.107 195.106" fill="#333333"/>
<path fill-rule="evenodd" clip-rule="evenodd" d="M471.999 226.569C463.42 226.856 454.852 227.203 446.285 227.745C444.529 227.856 438.675 227.502 440.166 231.099C441.361 233.983 448.5 232.075 450.861 231.936C459.789 231.406 468.753 231.221 477.661 230.418C479.662 230.238 488.708 230.31 484.973 226.764C483.196 225.075 474.454 226.485 471.999 226.569" fill="url(#paint82_linear)"/>
<path fill-rule="evenodd" clip-rule="evenodd" d="M434.719 230.707C432.015 234.259 433.258 242.891 433.462 247.16C433.66 251.298 432.856 258.863 438.257 259.504C436.542 259.279 439.559 259.609 440.05 259.635C441.146 259.694 442.248 259.713 443.346 259.725C445.883 259.753 448.421 259.719 450.957 259.668C456.702 259.553 462.462 259.386 468.2 259.068C470.612 258.935 483.696 259.046 484.214 256.541C484.876 253.339 472.331 255.15 470.085 255.253C464.616 255.503 459.138 255.556 453.664 255.628C450.951 255.664 448.235 255.69 445.522 255.637C444.401 255.615 439.965 256.075 439.284 255.328C438.703 254.692 439.156 248.842 439.144 247.947C439.104 245.03 439.107 242.106 439.211 239.19C439.281 237.227 440.342 233.492 439.477 231.648C438.636 229.856 436.185 229.244 434.719 230.707" fill="url(#paint83_linear)"/>
<path fill-rule="evenodd" clip-rule="evenodd" d="M478.895 230.873C479.051 237.37 479.1 243.999 480.635 250.353C481.145 252.468 481.861 256.829 483.985 257.924C486.215 259.073 488.14 257.433 488.286 255.223C488.469 252.446 486.982 248.799 486.677 245.949C486.321 242.624 486.114 239.295 485.992 235.954C485.9 233.441 486.663 229.673 484.268 228.053C482.116 226.597 478.825 228.063 478.895 230.873" fill="url(#paint84_linear)"/>
<path fill-rule="evenodd" clip-rule="evenodd" d="M495.968 229.287C493.3 231.945 494.493 240.36 494.826 243.775C495.071 246.276 497.808 258.58 501.91 252.164C503.725 249.326 501.42 241.821 501.436 238.511C501.446 236.403 502.193 233.738 501.833 231.713C501.357 229.037 498.389 226.87 495.968 229.287" fill="url(#paint85_linear)"/>
<path fill-rule="evenodd" clip-rule="evenodd" d="M514.443 227.093C522.457 226.266 530.481 225.646 538.539 225.569C538.926 225.566 539.333 225.561 539.756 225.555C545.279 225.485 553.579 225.38 557.296 229.527C559.321 231.787 560.238 235.28 561.038 238.324C561.187 238.892 561.332 239.444 561.479 239.97C561.605 240.42 561.769 240.932 561.946 241.486C562.781 244.099 563.91 247.637 562.765 249.826C562.137 251.027 561.126 252.051 559.591 251.625C559.233 251.526 558.952 251.399 558.731 251.249C559.319 251.885 559.58 252.791 559.198 253.678C558.46 255.392 556.128 255.428 554.291 255.457C553.846 255.464 553.429 255.471 553.072 255.5C546.953 256.01 540.806 256.351 534.665 256.404C531.742 256.43 528.818 256.406 525.894 256.382C522.884 256.358 519.875 256.333 516.865 256.363C514.681 256.384 512.456 256.592 510.231 256.8C507.421 257.062 504.611 257.324 501.878 257.212C499.834 257.128 497.651 256.459 498.169 253.816C498.592 251.66 500.622 251.472 502.441 251.303C502.599 251.288 502.756 251.274 502.91 251.258C508.702 250.668 514.498 250.46 520.32 250.481C532.551 250.523 544.772 250.46 557.003 250.396C557.506 250.437 557.979 250.629 558.369 250.922C557.929 250.388 557.937 249.676 557.946 248.918C557.951 248.575 557.955 248.223 557.918 247.873C557.843 247.17 557.774 246.47 557.706 245.772C557.48 243.463 557.255 241.171 556.815 238.848C556.748 238.498 556.684 238.112 556.617 237.704C556.216 235.292 555.686 232.098 553.769 230.796C551.841 229.487 548.061 229.55 545.115 229.599C544.319 229.612 543.585 229.624 542.964 229.608C535.103 229.405 527.196 229.963 519.371 230.675C518.77 230.73 518.168 230.782 517.565 230.834C514.588 231.094 511.595 231.354 508.661 231.887C508.124 231.985 507.304 232.271 506.363 232.599C503.859 233.473 500.503 234.644 499.362 233.354C495.584 229.08 512.188 227.326 514.443 227.093Z" fill="url(#paint86_linear)"/>
<path fill-rule="evenodd" clip-rule="evenodd" d="M599.707 217.363C600.055 217.811 600.055 217.811 599.707 217.363ZM545.472 190.887C540.605 193.748 549.614 202.143 551.909 203.441C557.073 206.363 564.169 206.804 569.936 207.625C577.233 208.666 585.176 209.049 592.189 211.44C595.178 212.459 597.077 214.049 599.034 216.493C600.025 217.732 602.412 223.069 604.587 221.805C608.964 219.261 597.169 208.583 594.57 207.435C588.661 204.825 581.677 204.094 575.36 203.081C569.486 202.138 563.486 201.437 557.757 199.775C554.606 198.862 552.367 197.388 550.551 194.567C549.42 192.809 548.491 189.121 545.472 190.887" fill="#333333"/>
<path fill-rule="evenodd" clip-rule="evenodd" d="M620.091 223.681C614.479 223.806 608.878 224.238 603.278 224.669C600.136 224.911 596.995 225.153 593.852 225.341C592.87 225.4 591.886 225.453 590.901 225.506L590.901 225.506L590.901 225.506C588.133 225.655 585.361 225.804 582.606 226.083C582.187 226.125 581.702 226.165 581.174 226.208C578.834 226.4 575.643 226.662 573.604 227.516C571.735 226.102 568.851 227.304 568.806 229.824C568.729 234.414 568.771 238.923 569.331 243.485C569.461 244.544 570.13 249.905 571.586 252.696C571.068 255.332 573.315 256.07 575.406 256.272C583.505 257.054 591.999 256.447 600.377 255.849C604.639 255.544 608.871 255.242 613.006 255.125C614.381 255.086 615.774 255.071 617.174 255.055C621.746 255.004 626.406 254.952 630.833 254.087C631.011 254.052 631.202 254.018 631.401 253.982C633.151 253.669 635.565 253.236 635.748 251.31C635.859 250.154 635.207 249.096 634.115 248.947C634.19 247.984 634.069 246.933 633.98 246.161L633.98 246.161C633.959 245.981 633.94 245.816 633.926 245.671C633.661 242.993 632.994 240.332 632.335 237.705L632.335 237.705L632.335 237.705C632.187 237.114 632.039 236.525 631.897 235.939C631.739 235.289 631.592 234.515 631.435 233.682C630.878 230.739 630.179 227.042 628.319 225.325C626.369 223.525 623.193 223.604 620.65 223.668C620.459 223.673 620.273 223.678 620.091 223.681ZM629.965 249.235C629.3 247.493 629.106 245.138 628.92 242.899V242.899C628.804 241.494 628.692 240.134 628.469 239.001C628.302 238.151 628.165 237.255 628.026 236.344L628.026 236.344C627.688 234.131 627.336 231.832 626.506 229.893C625.394 227.296 624.404 227.395 622.062 227.63C621.626 227.674 621.144 227.722 620.605 227.759C618.218 227.921 615.833 228.127 613.449 228.334L613.449 228.334C612.305 228.433 611.161 228.532 610.017 228.626C605.121 229.028 600.223 229.338 595.323 229.647L595.323 229.647C592.461 229.828 589.599 230.008 586.736 230.208C584.49 230.364 582.298 230.791 580.115 231.216C578.385 231.553 576.662 231.889 574.921 232.088C574.896 232.683 574.846 233.28 574.799 233.849C574.734 234.624 574.673 235.346 574.686 235.937C574.743 238.559 574.975 241.164 575.206 243.774L575.207 243.774C575.242 244.175 575.278 244.577 575.313 244.978C575.355 245.459 575.458 246.077 575.573 246.763L575.573 246.763C575.751 247.824 575.955 249.046 576.001 250.171C576.213 250.17 576.423 250.171 576.631 250.171C576.899 250.172 577.162 250.173 577.414 250.169C583.583 250.061 589.747 249.874 595.912 249.637C596.698 249.607 597.485 249.576 598.272 249.546C603.772 249.332 609.273 249.117 614.777 249.054C616.964 249.029 619.18 249.098 621.402 249.167C624.261 249.255 627.131 249.344 629.965 249.235Z" fill="url(#paint87_linear)"/>
</g>
<defs>
<linearGradient id="paint0_linear" x1="51.8232" y1="80.076" x2="57.2557" y2="80.076" gradientUnits="userSpaceOnUse">
<stop stop-color="#F9E794"/>
<stop offset="1" stop-color="#F6BED4"/>
</linearGradient>
<linearGradient id="paint1_linear" x1="51.2773" y1="83.5586" x2="193.545" y2="83.5586" gradientUnits="userSpaceOnUse">
<stop stop-color="#F9E794"/>
<stop offset="1" stop-color="#F6BED4"/>
</linearGradient>
<linearGradient id="paint2_linear" x1="51.2061" y1="106.838" x2="191.844" y2="106.839" gradientUnits="userSpaceOnUse">
<stop stop-color="#F9E794"/>
<stop offset="1" stop-color="#F6BED4"/>
</linearGradient>
<linearGradient id="paint3_linear" x1="63.2388" y1="84.2913" x2="94.9289" y2="84.2913" gradientUnits="userSpaceOnUse">
<stop stop-color="#E0F787"/>
<stop offset="1" stop-color="#4EE3FA"/>
</linearGradient>
<linearGradient id="paint4_linear" x1="71.8965" y1="83.1845" x2="76.9818" y2="83.1845" gradientUnits="userSpaceOnUse">
<stop stop-color="#E0F787"/>
<stop offset="1" stop-color="#4EE3FA"/>
</linearGradient>
<linearGradient id="paint5_linear" x1="78.2588" y1="82.5242" x2="82.2995" y2="82.5242" gradientUnits="userSpaceOnUse">
<stop stop-color="#E0F787"/>
<stop offset="1" stop-color="#4EE3FA"/>
</linearGradient>
<linearGradient id="paint6_linear" x1="74.7104" y1="89.4594" x2="80.8034" y2="89.4594" gradientUnits="userSpaceOnUse">
<stop stop-color="#E0F787"/>
<stop offset="1" stop-color="#4EE3FA"/>
</linearGradient>
<linearGradient id="paint7_linear" x1="56.6719" y1="126.745" x2="188.173" y2="126.745" gradientUnits="userSpaceOnUse">
<stop stop-color="#F9E794"/>
<stop offset="1" stop-color="#F6BED4"/>
</linearGradient>
<linearGradient id="paint8_linear" x1="51.5918" y1="148.39" x2="59.2826" y2="148.39" gradientUnits="userSpaceOnUse">
<stop stop-color="#F9E794"/>
<stop offset="1" stop-color="#F6BED4"/>
</linearGradient>
<linearGradient id="paint9_linear" x1="56.2637" y1="171.679" x2="187.097" y2="171.679" gradientUnits="userSpaceOnUse">
<stop stop-color="#F9E794"/>
<stop offset="1" stop-color="#F6BED4"/>
</linearGradient>
<linearGradient id="paint10_linear" x1="183.717" y1="144.569" x2="191.152" y2="144.569" gradientUnits="userSpaceOnUse">
<stop stop-color="#F9E794"/>
<stop offset="1" stop-color="#F6BED4"/>
</linearGradient>
<linearGradient id="paint11_linear" x1="64.127" y1="150.12" x2="97.1426" y2="150.12" gradientUnits="userSpaceOnUse">
<stop stop-color="#E0F787"/>
<stop offset="1" stop-color="#4EE3FA"/>
</linearGradient>
<linearGradient id="paint12_linear" x1="70.5425" y1="147.856" x2="74.6305" y2="147.856" gradientUnits="userSpaceOnUse">
<stop stop-color="#E0F787"/>
<stop offset="1" stop-color="#4EE3FA"/>
</linearGradient>
<linearGradient id="paint13_linear" x1="79.1172" y1="146.721" x2="83.2377" y2="146.721" gradientUnits="userSpaceOnUse">
<stop stop-color="#E0F787"/>
<stop offset="1" stop-color="#4EE3FA"/>
</linearGradient>
<linearGradient id="paint14_linear" x1="73.9175" y1="154.97" x2="83.748" y2="154.97" gradientUnits="userSpaceOnUse">
<stop stop-color="#E0F787"/>
<stop offset="1" stop-color="#4EE3FA"/>
</linearGradient>
<linearGradient id="paint15_linear" x1="162.766" y1="147.437" x2="174.619" y2="147.437" gradientUnits="userSpaceOnUse">
<stop stop-color="#E0F787"/>
<stop offset="1" stop-color="#4EE3FA"/>
</linearGradient>
<linearGradient id="paint16_linear" x1="55.6831" y1="193.252" x2="184.373" y2="193.252" gradientUnits="userSpaceOnUse">
<stop stop-color="#F9E794"/>
<stop offset="1" stop-color="#F6BED4"/>
</linearGradient>
<linearGradient id="paint17_linear" x1="54.2188" y1="211.57" x2="59.1305" y2="211.57" gradientUnits="userSpaceOnUse">
<stop stop-color="#F9E794"/>
<stop offset="1" stop-color="#F6BED4"/>
</linearGradient>
<linearGradient id="paint18_linear" x1="54.0181" y1="233.568" x2="187.167" y2="233.568" gradientUnits="userSpaceOnUse">
<stop stop-color="#F9E794"/>
<stop offset="1" stop-color="#F6BED4"/>
</linearGradient>
<linearGradient id="paint19_linear" x1="182.803" y1="209.76" x2="190.049" y2="209.76" gradientUnits="userSpaceOnUse">
<stop stop-color="#F9E794"/>
<stop offset="1" stop-color="#F6BED4"/>
</linearGradient>
<linearGradient id="paint20_linear" x1="160.104" y1="212.649" x2="172.908" y2="212.649" gradientUnits="userSpaceOnUse">
<stop stop-color="#E0F787"/>
<stop offset="1" stop-color="#4EE3FA"/>
</linearGradient>
<linearGradient id="paint21_linear" x1="62.8608" y1="210.626" x2="89.3985" y2="210.626" gradientUnits="userSpaceOnUse">
<stop stop-color="#E0F787"/>
<stop offset="1" stop-color="#4EE3FA"/>
</linearGradient>
<linearGradient id="paint22_linear" x1="70.4756" y1="208.063" x2="73.1527" y2="208.063" gradientUnits="userSpaceOnUse">
<stop stop-color="#E0F787"/>
<stop offset="1" stop-color="#4EE3FA"/>
</linearGradient>
<linearGradient id="paint23_linear" x1="75.0444" y1="208.358" x2="77.7647" y2="208.358" gradientUnits="userSpaceOnUse">
<stop stop-color="#E0F787"/>
<stop offset="1" stop-color="#4EE3FA"/>
</linearGradient>
<linearGradient id="paint24_linear" x1="69.9326" y1="216.009" x2="78.2938" y2="216.009" gradientUnits="userSpaceOnUse">
<stop stop-color="#E0F787"/>
<stop offset="1" stop-color="#4EE3FA"/>
</linearGradient>
<linearGradient id="paint25_linear" x1="243.129" y1="52.1008" x2="409.999" y2="52.1008" gradientUnits="userSpaceOnUse">
<stop stop-color="#F8C6D7"/>
<stop offset="1" stop-color="#AFE9F9"/>
</linearGradient>
<linearGradient id="paint26_linear" x1="360.414" y1="24.1498" x2="365.749" y2="24.1498" gradientUnits="userSpaceOnUse">
<stop stop-color="#F8C6D7"/>
<stop offset="1" stop-color="#AFE9F9"/>
</linearGradient>
<linearGradient id="paint27_linear" x1="352.235" y1="23.3069" x2="370.99" y2="23.3069" gradientUnits="userSpaceOnUse">
<stop stop-color="#F8C6D7"/>
<stop offset="1" stop-color="#AFE9F9"/>
</linearGradient>
<linearGradient id="paint28_linear" x1="248.113" y1="121.505" x2="275.946" y2="121.505" gradientUnits="userSpaceOnUse">
<stop stop-color="#E0F787"/>
<stop offset="1" stop-color="#4EE3FA"/>
</linearGradient>
<linearGradient id="paint29_linear" x1="383.558" y1="117.509" x2="403.115" y2="117.509" gradientUnits="userSpaceOnUse">
<stop stop-color="#E0F787"/>
<stop offset="1" stop-color="#4EE3FA"/>
</linearGradient>
<linearGradient id="paint30_linear" x1="245.319" y1="189.568" x2="403.407" y2="189.568" gradientUnits="userSpaceOnUse">
<stop stop-color="#FFE2A0"/>
<stop offset="1" stop-color="#FF739C"/>
</linearGradient>
<linearGradient id="paint31_linear" x1="271.297" y1="189.237" x2="376.796" y2="189.237" gradientUnits="userSpaceOnUse">
<stop stop-color="#FFE2A0"/>
<stop offset="1" stop-color="#FF739C"/>
</linearGradient>
<linearGradient id="paint32_linear" x1="249.483" y1="249.773" x2="276.463" y2="249.773" gradientUnits="userSpaceOnUse">
<stop stop-color="#E0F787"/>
<stop offset="1" stop-color="#4EE3FA"/>
</linearGradient>
<linearGradient id="paint33_linear" x1="376.53" y1="247.329" x2="396.439" y2="247.329" gradientUnits="userSpaceOnUse">
<stop stop-color="#E0F787"/>
<stop offset="1" stop-color="#4EE3FA"/>
</linearGradient>
<linearGradient id="paint34_linear" x1="2.20166" y1="303.356" x2="81.0271" y2="303.356" gradientUnits="userSpaceOnUse">
<stop stop-color="#F8C6D7"/>
<stop offset="1" stop-color="#AFE9F9"/>
</linearGradient>
<linearGradient id="paint35_linear" x1="0.536133" y1="304.34" x2="7.72443" y2="304.34" gradientUnits="userSpaceOnUse">
<stop stop-color="#F8C6D7"/>
<stop offset="1" stop-color="#AFE9F9"/>
</linearGradient>
<linearGradient id="paint36_linear" x1="2.7959" y1="325.411" x2="82.051" y2="325.411" gradientUnits="userSpaceOnUse">
<stop stop-color="#F8C6D7"/>
<stop offset="1" stop-color="#AFE9F9"/>
</linearGradient>
<linearGradient id="paint37_linear" x1="92.9658" y1="305.711" x2="98.7376" y2="305.711" gradientUnits="userSpaceOnUse">
<stop stop-color="#F8C6D7"/>
<stop offset="1" stop-color="#AFE9F9"/>
</linearGradient>
<linearGradient id="paint38_linear" x1="91.5078" y1="304.048" x2="169.574" y2="304.048" gradientUnits="userSpaceOnUse">
<stop stop-color="#F8C6D7"/>
<stop offset="1" stop-color="#AFE9F9"/>
</linearGradient>
<linearGradient id="paint39_linear" x1="97.0156" y1="325.507" x2="169.812" y2="325.507" gradientUnits="userSpaceOnUse">
<stop stop-color="#F8C6D7"/>
<stop offset="1" stop-color="#AFE9F9"/>
</linearGradient>
<linearGradient id="paint40_linear" x1="1.28125" y1="380.979" x2="9.15811" y2="380.979" gradientUnits="userSpaceOnUse">
<stop stop-color="#F8C6D7"/>
<stop offset="1" stop-color="#AFE9F9"/>
</linearGradient>
<linearGradient id="paint41_linear" x1="3.03711" y1="356.138" x2="122.299" y2="356.138" gradientUnits="userSpaceOnUse">
<stop stop-color="#F8C6D7"/>
<stop offset="1" stop-color="#AFE9F9"/>
</linearGradient>
<linearGradient id="paint42_linear" x1="5.37988" y1="380.543" x2="127.515" y2="380.543" gradientUnits="userSpaceOnUse">
<stop stop-color="#F8C6D7"/>
<stop offset="1" stop-color="#AFE9F9"/>
</linearGradient>
<linearGradient id="paint43_linear" x1="24.437" y1="297.245" x2="32.985" y2="297.245" gradientUnits="userSpaceOnUse">
<stop stop-color="#F8C6D7"/>
<stop offset="1" stop-color="#AFE9F9"/>
</linearGradient>
<linearGradient id="paint44_linear" x1="40.6509" y1="297.319" x2="50.3872" y2="297.319" gradientUnits="userSpaceOnUse">
<stop stop-color="#F8C6D7"/>
<stop offset="1" stop-color="#AFE9F9"/>
</linearGradient>
<linearGradient id="paint45_linear" x1="28.7227" y1="309.497" x2="46.3122" y2="309.497" gradientUnits="userSpaceOnUse">
<stop stop-color="#F8C6D7"/>
<stop offset="1" stop-color="#AFE9F9"/>
</linearGradient>
<linearGradient id="paint46_linear" x1="116.69" y1="297.567" x2="122.438" y2="297.567" gradientUnits="userSpaceOnUse">
<stop stop-color="#F8C6D7"/>
<stop offset="1" stop-color="#AFE9F9"/>
</linearGradient>
<linearGradient id="paint47_linear" x1="129.402" y1="298.131" x2="135.787" y2="298.131" gradientUnits="userSpaceOnUse">
<stop stop-color="#F8C6D7"/>
<stop offset="1" stop-color="#AFE9F9"/>
</linearGradient>
<linearGradient id="paint48_linear" x1="115.283" y1="311.354" x2="140.263" y2="311.354" gradientUnits="userSpaceOnUse">
<stop stop-color="#F8C6D7"/>
<stop offset="1" stop-color="#AFE9F9"/>
</linearGradient>
<linearGradient id="paint49_linear" x1="40.186" y1="370.293" x2="52.5385" y2="370.293" gradientUnits="userSpaceOnUse">
<stop stop-color="#F8C6D7"/>
<stop offset="1" stop-color="#AFE9F9"/>
</linearGradient>
<linearGradient id="paint50_linear" x1="63.0142" y1="368.143" x2="80.0302" y2="368.143" gradientUnits="userSpaceOnUse">
<stop stop-color="#F8C6D7"/>
<stop offset="1" stop-color="#AFE9F9"/>
</linearGradient>
<linearGradient id="paint51_linear" x1="48.9238" y1="384.596" x2="68.9599" y2="384.596" gradientUnits="userSpaceOnUse">
<stop stop-color="#F8C6D7"/>
<stop offset="1" stop-color="#AFE9F9"/>
</linearGradient>
<linearGradient id="paint52_linear" x1="77.5498" y1="426.343" x2="115.301" y2="426.343" gradientUnits="userSpaceOnUse">
<stop stop-color="#FFE2A0"/>
<stop offset="1" stop-color="#FF739C"/>
</linearGradient>
<linearGradient id="paint53_linear" x1="121.937" y1="425.809" x2="160.687" y2="425.809" gradientUnits="userSpaceOnUse">
<stop stop-color="#FFE2A0"/>
<stop offset="1" stop-color="#FF739C"/>
</linearGradient>
<linearGradient id="paint54_linear" x1="304.847" y1="291.659" x2="347.308" y2="291.659" gradientUnits="userSpaceOnUse">
<stop stop-color="#F9E794"/>
<stop offset="1" stop-color="#F6BED4"/>
</linearGradient>
<linearGradient id="paint55_linear" x1="318.459" y1="291.364" x2="323.96" y2="291.364" gradientUnits="userSpaceOnUse">
<stop stop-color="#F9E794"/>
<stop offset="1" stop-color="#F6BED4"/>
</linearGradient>
<linearGradient id="paint56_linear" x1="328.658" y1="291.897" x2="334.621" y2="291.897" gradientUnits="userSpaceOnUse">
<stop stop-color="#F9E794"/>
<stop offset="1" stop-color="#F6BED4"/>
</linearGradient>
<linearGradient id="paint57_linear" x1="321.726" y1="300.617" x2="330.43" y2="300.617" gradientUnits="userSpaceOnUse">
<stop stop-color="#F9E794"/>
<stop offset="1" stop-color="#F6BED4"/>
</linearGradient>
<linearGradient id="paint58_linear" x1="347.56" y1="295.294" x2="396.993" y2="295.294" gradientUnits="userSpaceOnUse">
<stop stop-color="#F8C6D7"/>
<stop offset="1" stop-color="#AFE9F9"/>
</linearGradient>
<linearGradient id="paint59_linear" x1="253.365" y1="340.459" x2="398.79" y2="340.459" gradientUnits="userSpaceOnUse">
<stop stop-color="#F8C6D7"/>
<stop offset="1" stop-color="#AFE9F9"/>
</linearGradient>
<linearGradient id="paint60_linear" x1="281.855" y1="359.604" x2="300.948" y2="359.604" gradientUnits="userSpaceOnUse">
<stop stop-color="#E0F787"/>
<stop offset="1" stop-color="#4EE3FA"/>
</linearGradient>
<linearGradient id="paint61_linear" x1="318.13" y1="358.573" x2="334.025" y2="358.573" gradientUnits="userSpaceOnUse">
<stop stop-color="#E0F787"/>
<stop offset="1" stop-color="#4EE3FA"/>
</linearGradient>
<linearGradient id="paint62_linear" x1="366.768" y1="356.167" x2="381.326" y2="356.167" gradientUnits="userSpaceOnUse">
<stop stop-color="#E0F787"/>
<stop offset="1" stop-color="#4EE3FA"/>
</linearGradient>
<linearGradient id="paint63_linear" x1="537.548" y1="326.644" x2="544.829" y2="326.644" gradientUnits="userSpaceOnUse">
<stop stop-color="#F8C6D7"/>
<stop offset="1" stop-color="#AFE9F9"/>
</linearGradient>
<linearGradient id="paint64_linear" x1="538.82" y1="323.735" x2="638.729" y2="323.735" gradientUnits="userSpaceOnUse">
<stop stop-color="#F8C6D7"/>
<stop offset="1" stop-color="#AFE9F9"/>
</linearGradient>
<linearGradient id="paint65_linear" x1="541.381" y1="342.841" x2="635.875" y2="342.841" gradientUnits="userSpaceOnUse">
<stop stop-color="#F8C6D7"/>
<stop offset="1" stop-color="#AFE9F9"/>
</linearGradient>
<linearGradient id="paint66_linear" x1="548.787" y1="327.744" x2="567.616" y2="327.744" gradientUnits="userSpaceOnUse">
<stop stop-color="#E0F787"/>
<stop offset="1" stop-color="#4EE3FA"/>
</linearGradient>
<linearGradient id="paint67_linear" x1="538.169" y1="354.26" x2="634.767" y2="354.26" gradientUnits="userSpaceOnUse">
<stop stop-color="#F8C6D7"/>
<stop offset="1" stop-color="#AFE9F9"/>
</linearGradient>
<linearGradient id="paint68_linear" x1="535.875" y1="368.535" x2="543.296" y2="368.535" gradientUnits="userSpaceOnUse">
<stop stop-color="#F8C6D7"/>
<stop offset="1" stop-color="#AFE9F9"/>
</linearGradient>
<linearGradient id="paint69_linear" x1="535.12" y1="378.474" x2="648.77" y2="378.474" gradientUnits="userSpaceOnUse">
<stop stop-color="#F8C6D7"/>
<stop offset="1" stop-color="#AFE9F9"/>
</linearGradient>
<linearGradient id="paint70_linear" x1="626.93" y1="362.808" x2="637.624" y2="362.808" gradientUnits="userSpaceOnUse">
<stop stop-color="#F8C6D7"/>
<stop offset="1" stop-color="#AFE9F9"/>
</linearGradient>
<linearGradient id="paint71_linear" x1="549.824" y1="366.785" x2="568.646" y2="366.785" gradientUnits="userSpaceOnUse">
<stop stop-color="#E0F787"/>
<stop offset="1" stop-color="#4EE3FA"/>
</linearGradient>
<linearGradient id="paint72_linear" x1="540.297" y1="404.791" x2="546.583" y2="404.791" gradientUnits="userSpaceOnUse">
<stop stop-color="#F8C6D7"/>
<stop offset="1" stop-color="#AFE9F9"/>
</linearGradient>
<linearGradient id="paint73_linear" x1="538.832" y1="399.657" x2="644.422" y2="399.657" gradientUnits="userSpaceOnUse">
<stop stop-color="#F8C6D7"/>
<stop offset="1" stop-color="#AFE9F9"/>
</linearGradient>
<linearGradient id="paint74_linear" x1="540.325" y1="416.312" x2="642.967" y2="416.312" gradientUnits="userSpaceOnUse">
<stop stop-color="#F8C6D7"/>
<stop offset="1" stop-color="#AFE9F9"/>
</linearGradient>
<linearGradient id="paint75_linear" x1="556.894" y1="405.714" x2="574.094" y2="405.714" gradientUnits="userSpaceOnUse">
<stop stop-color="#E0F787"/>
<stop offset="1" stop-color="#4EE3FA"/>
</linearGradient>
<linearGradient id="paint76_linear" x1="472.311" y1="98.1677" x2="522.289" y2="98.1677" gradientUnits="userSpaceOnUse">
<stop stop-color="#FFE2A0"/>
<stop offset="1" stop-color="#FF739C"/>
</linearGradient>
<linearGradient id="paint77_linear" x1="539.777" y1="99.1396" x2="594.212" y2="99.1396" gradientUnits="userSpaceOnUse">
<stop stop-color="#FFE2A0"/>
<stop offset="1" stop-color="#FF739C"/>
</linearGradient>
<linearGradient id="paint78_linear" x1="506.561" y1="179.09" x2="551.992" y2="179.09" gradientUnits="userSpaceOnUse">
<stop stop-color="#E0F787"/>
<stop offset="1" stop-color="#4EE3FA"/>
</linearGradient>
<linearGradient id="paint79_linear" x1="522.289" y1="175.811" x2="526.446" y2="175.811" gradientUnits="userSpaceOnUse">
<stop stop-color="#E0F787"/>
<stop offset="1" stop-color="#4EE3FA"/>
</linearGradient>
<linearGradient id="paint80_linear" x1="529.603" y1="175.325" x2="534.697" y2="175.325" gradientUnits="userSpaceOnUse">
<stop stop-color="#E0F787"/>
<stop offset="1" stop-color="#4EE3FA"/>
</linearGradient>
<linearGradient id="paint81_linear" x1="523.486" y1="184.98" x2="532.601" y2="184.98" gradientUnits="userSpaceOnUse">
<stop stop-color="#E0F787"/>
<stop offset="1" stop-color="#4EE3FA"/>
</linearGradient>
<linearGradient id="paint82_linear" x1="439.926" y1="229.386" x2="485.867" y2="229.386" gradientUnits="userSpaceOnUse">
<stop stop-color="#FFE2A0"/>
<stop offset="1" stop-color="#FF739C"/>
</linearGradient>
<linearGradient id="paint83_linear" x1="433" y1="245.143" x2="484.239" y2="245.143" gradientUnits="userSpaceOnUse">
<stop stop-color="#FFE2A0"/>
<stop offset="1" stop-color="#FF739C"/>
</linearGradient>
<linearGradient id="paint84_linear" x1="478.894" y1="243.234" x2="488.302" y2="243.234" gradientUnits="userSpaceOnUse">
<stop stop-color="#FFE2A0"/>
<stop offset="1" stop-color="#FF739C"/>
</linearGradient>
<linearGradient id="paint85_linear" x1="494.271" y1="241.404" x2="502.607" y2="241.404" gradientUnits="userSpaceOnUse">
<stop stop-color="#FFE2A0"/>
<stop offset="1" stop-color="#FF739C"/>
</linearGradient>
<linearGradient id="paint86_linear" x1="498.092" y1="241.739" x2="563.251" y2="241.739" gradientUnits="userSpaceOnUse">
<stop stop-color="#FFE2A0"/>
<stop offset="1" stop-color="#FF739C"/>
</linearGradient>
<linearGradient id="paint87_linear" x1="568.776" y1="240.51" x2="635.76" y2="240.51" gradientUnits="userSpaceOnUse">
<stop stop-color="#FFE2A0"/>
<stop offset="1" stop-color="#FF739C"/>
</linearGradient>
</defs>
</svg>
