<svg width="652" height="930" viewBox="0 0 652 930" fill="none" xmlns="http://www.w3.org/2000/svg">
<rect width="652" height="930" fill="white"/>
<g opacity="0.5">
<path fill-rule="evenodd" clip-rule="evenodd" d="M45.451 51.4876C43.1856 53.6425 44.0655 61.3011 44.0181 64.1353C43.9452 68.5476 44.2334 72.9204 44.6205 77.3167C44.88 80.2603 46.3424 108.351 50.4119 106.194C52.7061 104.978 51.2678 96.8522 51.2638 94.2819C51.2544 88.5677 51.005 82.8675 50.6052 77.166C50.2334 71.8728 50 66.6413 50.214 61.338C50.2661 60.0437 51.5373 45.6786 45.451 51.4876" fill="url(#paint0_linear)"/>
<path fill-rule="evenodd" clip-rule="evenodd" d="M144.108 48.0248C124.646 48.1724 105.191 49.087 85.7382 49.6474C76.3775 49.9171 67.0228 50.2599 57.6721 50.7541C54.4858 50.9227 47.652 49.9508 44.9974 51.5682C39.1044 55.1593 48.6082 55.9989 51.1418 55.9111C89.6393 54.5812 128.15 52.8295 166.68 52.7468C185.581 52.7068 204.472 53.2194 223.375 53.1043C230.601 53.0604 238.602 50.0945 240.427 58.1074C242.486 67.1494 240.12 77.2167 239.476 86.3026C239.046 92.3679 239.199 98.3073 239.486 104.368C239.67 108.25 239.191 112.625 239.911 116.435C240.605 120.103 243.373 122.303 245.911 118.194C247.427 115.738 246.672 109.675 246.773 106.83C246.909 102.998 246.781 99.1679 246.781 95.3357C246.78 85.9821 248.166 76.6653 247.983 67.3135C247.865 61.2832 247.529 50.3508 239.546 48.9019C230.755 47.3061 219.949 48.9108 210.952 48.8129C188.661 48.5706 166.407 47.8588 144.108 48.0248" fill="url(#paint1_linear)"/>
<path fill-rule="evenodd" clip-rule="evenodd" d="M90.4808 106.53C83.1421 106.53 75.8027 106.572 68.4647 106.687C62.1712 106.787 52.2762 105.537 46.4186 107.682C42.4086 109.151 41.3434 113.416 46.4186 114.552C51.9539 115.792 60.2962 113.765 66.0876 113.668C95.128 113.179 124.448 112.543 153.448 114.293C180.621 115.932 208.318 117.521 235.532 115.791C237.821 115.645 249.499 115.203 244.17 111.032C241.062 108.598 228.462 110.199 224.422 110.083C210.172 109.673 195.908 109.582 181.662 109.067C167.603 108.559 153.605 107.053 139.541 106.68C123.202 106.247 106.826 106.53 90.4808 106.53" fill="url(#paint2_linear)"/>
<path fill-rule="evenodd" clip-rule="evenodd" d="M83.1386 66.7617C94.5769 67.2375 105.894 83.0419 94.3202 90.6802C83.4629 97.8471 63.1146 89.9926 69.152 76.0951C68.2841 78.1043 70.2493 73.9122 70.274 73.8842C71.4221 72.5955 73.4837 71.1689 74.8986 70.1531C76.5181 68.9904 78.2045 67.7107 80.157 67.1281C81.4389 66.7458 81.2376 68.1846 83.1386 66.7617M77.5675 61.0613C72.2141 63.0527 69.7708 65.2992 66.0917 69.3642C63.5461 72.1774 60.301 73.6575 60.3298 77.4591C60.3358 78.3006 61.4705 79.2254 61.6665 80.0358C61.9373 81.1558 61.6237 82.5907 61.8383 83.7808C64.0529 96.0603 79.4311 100.2 90.6875 97.8819C100.493 95.8625 107.826 86.8949 105.555 77.1437C103.268 67.3276 87.9894 57.1776 77.5675 61.0613" fill="url(#paint3_linear)"/>
<path fill-rule="evenodd" clip-rule="evenodd" d="M72.7988 78.204C72.7988 82.6213 80.1228 82.6213 80.1228 78.204C80.1228 73.8369 72.7988 73.6492 72.7988 78.204" fill="url(#paint4_linear)"/>
<path fill-rule="evenodd" clip-rule="evenodd" d="M81.9619 77.3094C81.9619 80.8198 87.7814 80.8198 87.7814 77.3094C87.7814 73.8392 81.9619 73.691 81.9619 77.3094" fill="url(#paint5_linear)"/>
<path fill-rule="evenodd" clip-rule="evenodd" d="M83.7637 84.5482C81.9002 85.2306 79.5364 83.8154 78.0065 84.7479C75.297 86.4003 78.0132 87.8957 79.4655 88.5597C86.0045 91.5491 87.168 83.306 83.7637 84.5482" fill="url(#paint6_linear)"/>
<path fill-rule="evenodd" clip-rule="evenodd" d="M183.628 74.7584C183.434 74.8373 182.74 75.1171 183.628 74.7584ZM155.152 70.7931C150.258 71.8458 146.126 76.2002 140.809 75.6175C136.734 75.171 133.975 71.4247 129.952 70.8803C124.806 70.1832 110.801 81.3674 118.164 83.2863C122.46 84.4064 124.843 76.9265 128.639 76.529C131.641 76.2148 135.724 79.7226 138.835 80.2219C144.639 81.1537 148.625 78.1077 153.721 76.1436C159.257 74.009 162.407 75.9311 167.222 78.3036C171.023 80.1761 174.603 81.3954 178.952 80.6226C183.033 79.8981 188.161 75.8993 192.269 76.3096C196.293 76.7115 199.165 80.7123 203.304 81.0837C205.011 81.2364 207.551 81.7904 207.264 79.2818C207.035 77.2732 204.682 77.6135 203.21 76.8833C199.426 75.0057 195.886 71.6798 191.318 71.9635C187.882 72.1772 184.754 74.4771 181.588 75.5775C171.218 79.1807 165.389 68.6058 155.152 70.7931" fill="#333333"/>
<path fill-rule="evenodd" clip-rule="evenodd" d="M163.815 134.418C143.812 134.593 123.742 134.876 103.796 136.403C99.0668 136.765 50.7806 141.109 50.8722 141.422C51.0414 142.001 57.252 142.885 57.2132 143.021C56.7946 142.032 55.8378 141.623 54.3433 141.794C100.139 141.794 145.789 137.887 191.644 138.59C203.166 138.766 214.732 138.693 226.246 139.039C229.12 139.125 236.242 141.088 238.5 139.851C244.424 136.606 233.661 136.231 231.878 136.095C209.312 134.375 186.445 134.203 163.815 134.418" fill="url(#paint7_linear)"/>
<path fill-rule="evenodd" clip-rule="evenodd" d="M44.9439 143.677C41.9536 146.534 44.7072 156.81 44.8249 160.672C44.9954 166.256 44.855 171.879 45.3692 177.448C45.9563 183.81 46.867 190.588 48.6189 196.76C49.5838 200.16 52.9706 205.564 54.3127 199.385C55.2709 194.973 53.8158 189.118 53.3096 184.623C52.6323 178.609 52.4685 172.674 52.443 166.631C52.4203 161.365 52.314 156.078 51.8606 150.829C51.6253 148.103 50.1863 138.709 44.9439 143.677" fill="url(#paint8_linear)"/>
<path fill-rule="evenodd" clip-rule="evenodd" d="M120.179 196.009C105.984 196.242 91.7587 196.56 77.5882 197.405C71.7802 197.751 65.9767 198.267 60.1901 198.852C59.0092 198.971 45.9393 199.477 51.7795 204.072C54.4154 206.147 65.2586 203.279 68.84 202.98C74.8634 202.477 80.8855 202.15 86.9262 201.906C100.923 201.34 114.962 200.84 128.973 201.072C154.56 201.495 179.983 201.684 205.578 201.14C209.214 201.063 237.703 201.788 238.671 198.183C239.45 195.279 229.263 196.611 227.405 196.664C220.591 196.858 213.775 196.813 206.958 196.78C178.08 196.638 149.035 195.544 120.179 196.009" fill="url(#paint9_linear)"/>
<path fill-rule="evenodd" clip-rule="evenodd" d="M233.847 138.858C234.298 150.899 236.45 162.926 237.138 175.003C237.452 180.524 237.823 186.039 238.106 191.562C238.198 193.344 237.444 197.636 239.656 198.661C242.689 200.067 243.097 197.234 243.665 195.319C245.305 189.785 244.196 182.597 244.047 176.913C243.903 171.409 243.893 165.895 243.467 160.401C243.03 154.788 241.844 149.281 241.294 143.688C241.061 141.322 241.875 137.386 239.239 135.918C236.961 134.649 233.749 136.248 233.847 138.858" fill="url(#paint10_linear)"/>
<path fill-rule="evenodd" clip-rule="evenodd" d="M94.328 158.888C94.3822 158.927 94.4357 158.967 94.4892 159.007C94.4357 158.967 94.3815 158.928 94.328 158.888M82.265 155.32C86.7631 156.545 90.4575 156.088 94.7544 159.208C98.3165 161.795 101.97 165.579 103.152 169.762C105.881 179.425 96.6274 184.721 87.952 184.825C79.066 184.931 65.9133 182.968 66.3686 172.116C66.7177 163.779 73.1075 155.644 82.265 155.32M82.5819 149.859C70.9176 150.413 61.5087 162.892 61.6097 173.397C61.7314 186.129 76.8735 189.409 87.6297 189.497C99.7695 189.597 111.875 181.611 108.622 168.604C106.016 158.183 93.7989 149.304 82.5819 149.859" fill="url(#paint11_linear)"/>
<path fill-rule="evenodd" clip-rule="evenodd" d="M70.8486 166.953C70.8486 170.504 76.7363 170.504 76.7363 166.953C76.7363 163.444 70.8486 163.293 70.8486 166.953" fill="url(#paint12_linear)"/>
<path fill-rule="evenodd" clip-rule="evenodd" d="M83.1982 165.396C83.1982 168.974 89.1327 168.974 89.1327 165.396C89.1327 161.858 83.1982 161.706 83.1982 165.396" fill="url(#paint13_linear)"/>
<path fill-rule="evenodd" clip-rule="evenodd" d="M76.3899 173.493C72.5578 177.138 86.0201 183.529 89.195 178.457C91.8028 174.293 86.1251 175.674 84.1124 175.448C81.9252 175.203 78.1753 171.797 76.3899 173.493" fill="url(#paint14_linear)"/>
<path fill-rule="evenodd" clip-rule="evenodd" d="M184.024 165.469C183.655 165.616 183.655 165.616 184.024 165.469ZM133.469 159.535C129.589 160.228 116.854 164.321 116.683 168.707C116.368 176.679 128.84 168.514 131.548 167.465C138.905 164.617 142.77 170.427 150.16 170.734C156.579 171 162.481 165.767 168.527 166.386C174.862 167.034 177.909 173.455 185.222 170.045C189.091 168.242 188.993 165.462 184.65 165.2C182.025 165.042 180.222 166.075 177.485 164.999C173.205 163.317 171.481 160.578 166.359 161.013C162.494 161.342 159.001 163.417 155.228 164.22C146.59 166.059 141.798 158.048 133.469 159.535" fill="#333333"/>
<path fill-rule="evenodd" clip-rule="evenodd" d="M213.827 168.93C213.56 169.037 213.56 169.037 213.827 168.93ZM214.805 165.61C214.848 165.628 215.141 166.015 214.805 165.61ZM210.357 163.076C210.19 163.199 210.19 163.199 210.357 163.076ZM210.454 163.045C211.317 163.537 218.252 168.055 213.215 169.119C210.658 169.659 208.542 164.757 210.454 163.045M208.158 158.04C197.05 162.866 209.003 180.135 217.722 173.118C221.39 170.166 221.873 164.199 218.304 161.123C216.166 159.279 211.061 156.777 208.158 158.04" fill="url(#paint15_linear)"/>
<path fill-rule="evenodd" clip-rule="evenodd" d="M103.879 226.091C90.0177 226.094 76.0344 225.817 62.1916 226.6C59.8619 226.732 50.9873 226.309 49.787 228.63C47.5911 232.873 56.7225 230.767 58.0491 230.64C85.6118 228.011 114.404 229.523 142.057 230.273C164.674 230.885 187.169 231.265 209.759 232.376C215.697 232.668 221.629 232.99 227.563 233.331C229.497 233.443 234.364 234.664 234.772 231.721C235.149 228.997 229.077 229.612 227.561 229.536C215.499 228.931 203.446 228.298 191.388 227.651C162.364 226.092 132.949 226.085 103.879 226.091" fill="url(#paint16_linear)"/>
<path fill-rule="evenodd" clip-rule="evenodd" d="M49.3418 230.809C46.7527 233.261 47.9664 242.624 47.8942 245.719C47.7678 251.132 47.4997 256.541 47.3793 261.952C47.2542 267.608 47.4281 273.289 47.7792 278.937C47.9263 281.308 49.9691 292.768 53.1854 286.21C54.6224 283.279 53.1506 275.116 53.1727 271.795C53.2121 265.752 53.5538 259.733 53.8694 253.698C54.1409 248.51 54.1509 243.317 54.389 238.127C54.4645 236.473 54.6698 225.718 49.3418 230.809" fill="url(#paint17_linear)"/>
<path fill-rule="evenodd" clip-rule="evenodd" d="M237.104 279.157C223.614 280.474 209.907 279.852 196.366 280.825C184.696 281.663 173.036 282.006 161.336 282.242C134.841 282.775 108.301 283.295 81.8833 285.398C75.8626 285.877 69.8492 286.386 63.8124 286.643C60.7934 286.771 48.1247 285.462 47.1812 288.494C45.5744 293.658 59.1224 291.615 62.0445 291.534C68.4704 291.357 74.8663 290.914 81.2741 290.449C108.211 288.494 135.251 287.91 162.245 287.097C176.926 286.655 191.505 285.632 206.154 284.701C213.455 284.237 220.777 284.222 228.077 283.772C229.988 283.655 236.749 283.887 238.123 282.422C239.067 281.416 239.306 278.961 237.104 279.157" fill="url(#paint18_linear)"/>
<path fill-rule="evenodd" clip-rule="evenodd" d="M232.531 231.688C232.994 244.013 233.725 256.328 234.162 268.653C234.293 272.359 233.118 279.002 235.284 282.271C238.767 287.527 241.486 281.964 242.124 278.689C244.137 268.353 241.973 256.935 241.411 246.535C241.197 242.567 242.49 233.736 240.477 230.185C238.56 226.803 232.359 227.142 232.531 231.688" fill="url(#paint19_linear)"/>
<path fill-rule="evenodd" clip-rule="evenodd" d="M209.883 249.242C215.051 250.576 215.806 261.281 209.975 262.073C201.295 263.252 205.091 251.449 209.883 249.242M208.436 244.985C206.859 244.938 203.22 244.524 202.248 245.747C201.435 246.77 202.257 248.928 202.162 249.903C201.82 253.386 198.848 255.397 200.177 259.509C201.079 262.3 203.494 264.922 206.438 265.892C221.971 271.007 221.782 242.413 208.436 244.985" fill="url(#paint20_linear)"/>
<path fill-rule="evenodd" clip-rule="evenodd" d="M68.198 246.906C68.1592 246.953 68.1204 247 68.0823 247.047C68.1204 247 68.1592 246.953 68.198 246.906M80.3983 240.721C80.3374 240.226 80.2766 239.731 80.2157 239.235C88.6376 243.023 95.3391 250.069 92.5427 259.525C90.409 266.74 82.6998 269.299 75.5176 267.518C67.5671 265.545 63.7677 259.302 65.9115 251.635C66.9004 248.098 69.9376 243.345 73.8633 242.208C75.6908 241.678 79.7323 243.028 80.3983 240.721M75.4733 237.726C73.3429 237.863 71.2693 238.709 69.5308 239.865C71.1583 238.553 73.3275 237.772 75.4733 237.726M75.5344 233.067C70.2719 233.22 66.8236 236.255 63.7022 239.9C62.7226 241.045 59.4107 244.078 59.8206 245.62C60.1449 246.838 60.9934 248.621 62.7801 247.262C53.4221 265.031 77.5972 280.187 92.3555 267.83C106.129 256.299 92.4638 232.526 75.5344 233.067" fill="url(#paint21_linear)"/>
<path fill-rule="evenodd" clip-rule="evenodd" d="M70.7524 249.573C70.7524 251.939 74.608 251.939 74.608 249.573C74.608 247.207 70.7524 247.207 70.7524 249.573" fill="url(#paint22_linear)"/>
<path fill-rule="evenodd" clip-rule="evenodd" d="M77.3325 249.977C77.3325 252.381 81.2503 252.381 81.2503 249.977C81.2503 247.572 77.3325 247.572 77.3325 249.977" fill="url(#paint23_linear)"/>
<path fill-rule="evenodd" clip-rule="evenodd" d="M80.3182 258.422C78.4854 258.564 71.7766 257.97 70.5991 259.5C68.6312 262.056 71.7719 262.145 73.3146 262.421C74.7041 262.669 80.7442 262.529 81.5954 261.353C82.3477 260.315 82.1718 258.272 80.3182 258.422" fill="url(#paint24_linear)"/>
<path fill-rule="evenodd" clip-rule="evenodd" d="M161.148 251.794C160.833 251.918 160.833 251.918 161.148 251.794ZM135.799 250.027C131.669 250.317 128.171 252.58 124.223 253.483C120.008 254.447 118.184 252.674 114.352 251.513C110.365 250.306 107.529 250.783 104.325 253.377C102.51 254.847 98.5262 258.23 99.661 260.841C102.259 266.817 108.141 257.094 110.907 256.642C115.223 255.936 119.062 259.531 124.039 258.503C128.548 257.571 132.55 254.621 137.26 254.59C141.198 254.563 144.91 256.616 148.798 257.113C154.734 257.872 158.632 255.864 164.119 254.373C168.877 253.08 172.214 254.785 176.689 256.219C178.735 256.874 185.56 259.256 184.304 254.936C183.948 253.716 174.954 251.535 173.56 251.115C168.643 249.635 165.529 250.212 160.844 251.913C156.938 253.333 153.652 254.024 149.464 253.243C144.849 252.383 140.653 249.676 135.799 250.027" fill="#333333"/>
</g>
<g opacity="0.5">
<path fill-rule="evenodd" clip-rule="evenodd" d="M466.859 84.5998C467.261 76.2234 467.814 67.8587 468.105 59.4772C468.249 55.3239 468.362 51.1703 468.471 47.0162C468.496 46.0912 468.521 45.1666 468.542 44.2417C468.613 41.0992 468.228 40.8421 471.491 40.5632C486.05 39.3179 500.666 38.9051 515.242 37.7784C532.82 36.4196 550.491 35.4814 568.12 35.0608C575.954 34.8736 583.821 34.4858 591.656 34.7218C593.392 34.7741 596.799 34.3364 597.483 35.6441C597.778 36.209 597.159 38.153 597.08 38.8049C596.834 40.8413 596.605 42.8848 596.464 44.9314C595.63 57.0019 596.127 69.3767 598.539 81.2642C592.881 78.1724 585.733 75.5129 579.138 76.0408C572.415 76.5788 567.386 80.3431 562.004 83.8078C558.96 85.7674 557.935 86.2828 554.898 84.3844C552.281 82.7482 549.805 80.8776 547.336 79.0416C543.525 76.2082 539.929 73.1359 536.234 70.1655C529.441 64.7037 520.081 56.9297 510.698 59.2186C503.994 60.854 497.803 64.4244 491.985 67.9188C483.34 73.1102 475.515 79.4677 466.859 84.5998M583.37 31.0018C549.969 31.0018 516.819 34.1396 483.512 35.837C480.034 36.0141 476.567 36.2751 473.101 36.5993C470.791 36.8154 465.142 35.908 463.628 37.8208C462.618 39.0969 463.486 39.2884 463.628 40.5009C463.807 42.0291 463.701 43.8396 463.654 45.4571C463.543 49.3545 463.426 53.2514 463.335 57.1492C462.99 71.8803 462.775 86.6087 463.39 101.336C463.524 104.548 464.732 108.995 464.071 112.116C463.593 114.376 461.994 115.751 465.682 116.168C469.311 116.579 473.748 115.534 477.38 115.199C481.033 114.862 484.686 114.496 488.344 114.204C504.246 112.934 520.302 113.126 536.246 112.704C552.334 112.279 568.428 112.251 584.521 112.243C591.255 112.239 598.949 112.606 605.519 110.81C607.83 110.178 608.204 109.867 607.634 107.644C607.526 107.223 606.828 107.067 606.623 106.305C606.345 105.267 606.488 104.006 606.423 102.926C606.21 99.3998 606.136 95.8668 605.964 92.3377C605.678 86.4413 604.629 80.719 603.854 74.8819C602.958 68.141 603.004 61.2966 602.986 54.5115C602.976 50.748 603.075 46.9969 603.387 43.2439C603.587 40.8368 604.81 37.243 604.19 34.9982C603.881 33.8805 603.375 32.9942 602.175 32.5131C601.415 32.208 600.775 32.4468 600.023 32.3696C599.132 32.2779 598.575 32.1566 597.506 31.9221C592.929 30.9167 588.035 31.0018 583.37 31.0018" fill="url(#paint25_linear)"/>
<path fill-rule="evenodd" clip-rule="evenodd" d="M564.886 47.0275C564.883 49.3733 564.506 52.8349 565.622 55.0438C567.037 57.8457 568.808 56.9699 569.277 54.3369C569.546 52.8283 569.539 48.3637 569.039 47.0275C568.331 45.1362 564.886 43.848 564.886 47.0275" fill="url(#paint26_linear)"/>
<path fill-rule="evenodd" clip-rule="evenodd" d="M568.947 47.9334C566.674 48.011 560.056 47.4824 558.518 49.2532C555.881 52.2903 560.472 52.8283 562.444 52.6582C564.725 52.4616 571.775 52.9414 573.303 51.1687C575.859 48.2029 570.734 47.8702 568.947 47.9334" fill="url(#paint27_linear)"/>
<path fill-rule="evenodd" clip-rule="evenodd" d="M480.757 126.301C490.748 127.983 487.64 142.744 478.186 139.325C474.892 138.134 470.039 134.691 471.859 130.635C473.219 127.605 477.652 126.012 480.757 126.301M476.621 121.711C470.123 122.771 465.681 129.585 467.909 135.528C470.058 141.262 478.21 145.461 484.221 143.401C489.96 141.433 492.823 134.034 490.888 128.621C488.867 122.965 482.281 120.787 476.621 121.711" fill="url(#paint28_linear)"/>
<path fill-rule="evenodd" clip-rule="evenodd" d="M537.39 128.028C534.903 128.228 532.753 129.915 530.25 130.214C527.91 130.494 525.97 129.718 523.779 129.097C521.13 128.348 518.701 128.018 515.994 128.684C513.926 129.193 511.886 130.557 509.737 130.722C505.509 131.045 500.596 126.371 497.295 131.658C495.713 134.192 498.01 135.825 500.377 134.643C502.845 133.411 501.633 132.97 504.694 133.698C507.248 134.304 509.312 134.634 511.87 133.784C514.187 133.013 516.221 131.604 518.739 131.445C521.205 131.291 523.351 132.379 525.708 132.849C528.607 133.426 531.172 132.989 533.918 132.109C536.531 131.271 537.573 130.813 540.209 131.56C541.879 132.033 545.525 133.537 547.15 132.325C549.96 130.231 546.198 129.925 544.717 129.627C542.333 129.148 539.865 127.831 537.39 128.028" fill="#333333"/>
<path fill-rule="evenodd" clip-rule="evenodd" d="M594.313 126.621C594.333 126.635 594.353 126.65 594.372 126.665C594.353 126.65 594.333 126.635 594.313 126.621M591.872 126.125C595.503 126.352 599.43 132.763 594.619 132.99C591.232 133.15 587.443 127.537 591.872 126.125M591.363 120.88C579.88 123.987 585.129 139.675 596.205 137.863C601.236 137.04 602.941 131.392 601.277 127.211C600.563 125.415 599.171 123.901 597.506 122.867C596.278 122.105 592.766 120.501 591.363 120.88" fill="url(#paint29_linear)"/>
<path fill-rule="evenodd" clip-rule="evenodd" d="M537.79 153.631C547.895 153.295 558 152.959 568.115 152.868C573.597 152.819 579.049 152.912 584.523 153.216C586.95 153.351 589.377 153.481 591.806 153.581C592.225 153.598 592.804 153.57 593.443 153.54C594.947 153.468 596.783 153.381 597.646 153.823C602.479 156.301 592.634 156.572 591.437 156.553C588.757 156.509 586.08 156.381 583.403 156.252C581.063 156.14 578.723 156.028 576.381 155.973C561.355 155.615 546.239 156.269 531.188 156.92L531.188 156.92C527.738 157.07 524.291 157.219 520.85 157.356C517.196 157.501 513.543 157.595 509.891 157.689C504.669 157.823 499.448 157.958 494.227 158.242C492.233 158.35 490.24 158.465 488.246 158.58L488.246 158.58L488.246 158.58C485.391 158.745 482.535 158.91 479.678 159.056C477.442 159.17 475.205 159.281 472.965 159.335C472.562 159.345 472.037 159.4 471.463 159.459C470.075 159.603 468.404 159.775 467.502 159.418C466.416 158.987 465.538 158.386 466.135 157.111C466.64 156.033 468.474 156.162 469.812 156.257C470.177 156.282 470.505 156.305 470.759 156.301C475.034 156.22 479.299 155.988 483.566 155.735C485.127 155.642 486.687 155.547 488.247 155.452L488.248 155.452C496.371 154.957 504.486 154.462 512.63 154.327C521.02 154.189 529.405 153.91 537.79 153.631ZM590.565 218.078L593.47 218.043C594.97 218.17 595.641 219.696 594.678 220.869C593.94 221.767 591.102 221.808 589.252 221.834H589.252C588.739 221.841 588.303 221.848 588.007 221.871C583.178 222.247 578.358 222.416 573.514 222.461C563.312 222.555 553.15 222.979 542.966 223.542C532.541 224.118 522.107 224.334 511.672 224.551C503.995 224.71 496.318 224.87 488.644 225.172C484.25 225.345 479.855 225.475 475.458 225.586C474.986 225.598 474.357 225.664 473.646 225.739C470.869 226.029 466.834 226.452 465.919 224.314C465.108 222.417 466.236 221.544 467.885 221.147C467.625 220.024 467.673 218.445 467.701 217.541C467.709 217.269 467.715 217.059 467.711 216.939C467.669 215.806 467.64 214.672 467.612 213.538C467.579 212.253 467.546 210.968 467.495 209.684C467.449 208.518 467.406 207.352 467.362 206.184C467.192 201.58 467.022 196.965 466.656 192.379C466.488 190.263 466.22 188.171 465.953 186.083C465.526 182.749 465.1 179.424 465.081 176.02C465.077 175.408 465.046 174.643 465.01 173.779C464.827 169.36 464.539 162.374 467.369 160.246C472.36 157.424 471.374 165.57 470.933 169.206C470.861 169.806 470.803 170.283 470.789 170.568C470.503 176.613 470.892 182.392 471.52 188.399C471.943 192.456 471.696 196.5 471.448 200.549C471.359 201.996 471.271 203.443 471.213 204.892C471.184 205.609 471.158 206.326 471.133 207.042C471.054 209.247 470.976 211.45 470.804 213.653C470.786 213.891 470.78 214.348 470.772 214.932C470.749 216.578 470.713 219.235 470.35 220.847C471.124 220.815 471.876 220.823 472.497 220.83C472.892 220.834 473.235 220.838 473.497 220.83C474.688 220.795 475.88 220.761 477.071 220.727H477.071H477.071C480.591 220.627 484.11 220.527 487.629 220.399C495.935 220.097 504.244 219.995 512.553 219.894H512.553H512.554C522.368 219.775 532.182 219.655 541.992 219.204C558.158 218.459 574.381 218.268 590.565 218.078ZM593.563 158.978C593.555 169.333 594.381 179.405 595.346 189.719C595.944 196.098 596.423 202.503 596.804 208.898C596.821 209.194 596.819 209.689 596.815 210.308C596.796 213.844 596.754 221.465 600.361 219.642C603.084 218.266 602.038 210.284 601.459 205.868C601.332 204.899 601.227 204.102 601.19 203.584C601.11 202.479 601.032 201.375 600.954 200.271L600.954 200.27C600.591 195.143 600.229 190.02 599.752 184.899L599.651 183.82C599.099 177.905 598.547 171.994 598.449 166.051C598.441 165.559 598.489 164.875 598.545 164.102C598.704 161.864 598.916 158.885 597.957 157.697C596.608 156.025 593.566 156.52 593.563 158.978Z" fill="url(#paint30_linear)"/>
<path fill-rule="evenodd" clip-rule="evenodd" d="M538.251 184.364C551.157 178.705 564.214 172.98 577.635 168.904C578.606 168.61 579.219 169.58 578.999 170.393C578.772 171.231 576.672 171.946 575.28 172.421C574.863 172.562 574.51 172.683 574.289 172.778C572.414 173.59 570.535 174.391 568.655 175.192C566.731 176.013 564.806 176.834 562.886 177.665C558.895 179.393 554.9 181.114 550.904 182.834C546.626 184.677 542.347 186.52 538.072 188.372C537.911 188.442 537.749 188.512 537.587 188.583C543.398 190.584 549.177 192.675 554.93 194.829C556.896 195.565 558.855 196.316 560.815 197.067C561.923 197.493 563.032 197.918 564.142 198.34C564.503 198.477 565.132 198.664 565.888 198.887C568.352 199.616 572.164 200.744 572.446 201.883C572.904 203.739 567.642 201.944 565.656 201.267C565.393 201.177 565.187 201.107 565.06 201.067C562.131 200.16 559.236 199.149 556.343 198.138L555.943 197.999C553.65 197.198 551.36 196.389 549.07 195.58C544.598 193.999 540.126 192.419 535.629 190.903C534.993 190.689 534.357 190.475 533.721 190.262C526.505 193.403 519.303 196.574 512.124 199.796C508.275 201.523 504.447 203.291 500.629 205.082C499.796 205.473 498.764 206.078 497.643 206.734C494.956 208.308 491.758 210.181 489.558 210.134C488.378 210.109 487.583 209.864 487.46 208.478C487.333 207.049 489.227 206.299 490.588 205.759C490.914 205.63 491.209 205.513 491.439 205.402C495.519 203.424 499.625 201.497 503.743 199.593C511.92 195.813 520.175 192.184 528.458 188.628C528.506 188.607 528.554 188.587 528.602 188.566C524.007 187.059 519.4 185.588 514.783 184.149C514.322 184.005 513.377 183.751 512.134 183.418C506.265 181.843 493.762 178.487 494.318 176.526C494.956 174.284 506.679 178.383 511.869 180.197C512.841 180.537 513.584 180.797 513.982 180.92C520.187 182.836 526.375 184.806 532.53 186.866C534.434 186.037 536.341 185.201 538.251 184.364Z" fill="url(#paint31_linear)"/>
<path fill-rule="evenodd" clip-rule="evenodd" d="M482.949 233.612C486.727 234.254 489.392 237.766 488.978 241.444C488.417 246.413 483.306 248.691 478.585 248.042C473.227 247.307 472.1 242.918 474.696 238.695C475.271 237.761 475.932 236.642 476.976 236.15C477.694 235.812 478.609 236.111 479.188 235.838C481.215 234.882 479.996 233.358 482.949 233.612M481.229 230.366C476.619 230.937 468.101 236.106 468.532 241.279C468.907 241.878 469.469 242.124 470.22 242.015C470.039 243.135 470.098 244.243 470.397 245.34C470.835 246.764 471.708 247.931 472.879 248.858C475.29 250.767 478.585 251.235 481.587 250.901C487.193 250.276 491.611 246.564 491.926 240.914C492.233 235.399 487.265 229.627 481.229 230.366" fill="url(#paint32_linear)"/>
<path fill-rule="evenodd" clip-rule="evenodd" d="M503.558 237.097C501.489 238.159 498.217 239.791 497.004 241.808C495.723 243.939 497.05 246.271 499.749 245.263C501.893 244.462 503.256 241.92 505.542 241.105C507.56 240.386 508.373 240.752 510.506 241.468C512.703 242.206 514.623 242.919 516.999 242.738C519.984 242.511 522.57 240.833 525.492 240.452C527.952 240.13 529.981 241.058 532.338 241.427C535.071 241.855 536.859 240.852 539.416 240.33C541.156 239.975 544.223 241.42 545.492 240.88C548.345 239.664 545.326 238.178 543.747 237.686C541.086 236.859 539.449 237.589 536.918 238.275C534.17 239.02 532.983 238.46 530.357 237.776C525.042 236.392 520.937 239.738 515.9 239.13C511.237 238.567 508.446 234.588 503.558 237.097" fill="#333333"/>
<path fill-rule="evenodd" clip-rule="evenodd" d="M590.452 234.624C595.567 239.271 589.821 245.883 584.181 242.169C582.196 240.862 582.164 238.762 583.709 236.884C585.122 235.166 588.226 234.496 590.452 234.624V234.624ZM588.555 230.869C583.777 231.77 579.269 233.895 578.836 239.239C578.414 244.454 583.934 246.876 588.571 246.534C598.981 245.766 598.229 229.057 588.555 230.869V230.869Z" fill="url(#paint33_linear)"/>
</g>
<g opacity="0.5">
<path fill-rule="evenodd" clip-rule="evenodd" d="M114.471 498.044C103.672 498.176 92.878 498.608 82.1001 499.348C71.8506 500.053 60.7298 499.518 50.6473 501.673C47.7843 502.285 43.9169 505.116 47.7237 508.229C50.3994 510.418 60.1889 507.9 63.3841 507.687C75.151 506.903 86.9238 505.963 98.7073 505.511C109.863 505.084 121.017 504.933 132.178 504.812C133.882 504.794 136.71 504.201 138.407 504.738C140.845 505.509 140.267 505.719 140.449 509.076C140.78 515.16 140.689 521.265 140.578 527.354C140.47 533.246 140.269 539.137 140.289 545.032C140.303 549.238 139.063 557.595 141.009 561.247C143.809 566.505 146.713 560.795 146.922 557.301C147.323 550.619 147.144 543.855 147.145 537.165C147.147 530.885 147.188 524.605 146.984 518.329C146.836 513.794 147.434 505.88 145.182 501.758C142.889 497.56 137.368 498.465 133.34 498.265C127.056 497.951 120.761 497.973 114.471 498.044" fill="url(#paint34_linear)"/>
<path fill-rule="evenodd" clip-rule="evenodd" d="M45.7604 505.622C45.7723 517.422 44.5141 529.142 44.1616 540.928C43.9999 546.346 43.6719 552.297 44.9354 557.616C46.2109 562.987 50.262 564.151 50.7285 558.155C51.6736 546.013 51.4418 533.423 52.1776 521.183C52.4373 516.862 54.1276 508.943 52.5496 504.896C51.16 501.332 45.7545 500.649 45.7604 505.622" fill="url(#paint35_linear)"/>
<path fill-rule="evenodd" clip-rule="evenodd" d="M147.028 557.632C128.274 560.325 108.667 559.343 89.7791 559.767C80.7171 559.97 71.6569 559.983 62.5937 560.085C59.4306 560.121 51.398 558.816 48.6617 560.745C44.3057 563.815 49.0319 566.185 51.9157 566.253C69.8014 566.678 87.8861 565.786 105.768 565.149C113.803 564.863 121.863 564.723 129.876 563.983C134.809 563.526 140.2 563.085 144.99 561.646C146.011 561.339 148.233 561.403 148.462 559.893C148.603 558.959 148.347 557.434 147.028 557.632" fill="url(#paint36_linear)"/>
<path fill-rule="evenodd" clip-rule="evenodd" d="M69.0406 574.783C63.8282 574.816 48.1208 572.189 45.9621 577.703C43.0843 585.057 54.3109 583.341 57.3302 583.257C64.1878 583.066 71.0406 583.045 77.8999 583.048C84.6303 583.052 91.3601 583.005 98.0893 582.831C100.039 582.78 104.577 583.658 105.698 581.111C106.55 579.176 105.877 577.648 104.305 576.624C100.523 574.158 90.6962 575.588 86.2677 575.366C80.5341 575.079 74.7814 574.783 69.0406 574.783" fill="#333333"/>
<path fill-rule="evenodd" clip-rule="evenodd" d="M132.454 576.145C129.475 576.337 123.449 575.005 120.781 576.483C117.748 578.165 118.816 580.797 121.435 581.954C123.249 582.754 130.687 582.334 132.454 581.407C134.295 580.439 136.377 575.883 132.454 576.145" fill="#333333"/>
<path fill-rule="evenodd" clip-rule="evenodd" d="M165.112 506.78C161.93 507.727 162.895 527.322 162.813 530.429C162.589 538.939 161.707 549.644 164.314 557.841C165.976 563.066 169.169 562.357 168.625 556.856C168.147 552.028 167.327 547.255 166.973 542.395C166.17 531.398 165.078 519.669 165.836 508.663C166.159 509.302 169.177 515.234 169.887 514.791C169.673 514.929 166.406 506.409 165.112 506.78" fill="url(#paint37_linear)"/>
<path fill-rule="evenodd" clip-rule="evenodd" d="M200.9 499.563C194.462 499.666 188.023 499.79 181.586 499.983C176.468 500.138 168.426 499.226 163.733 501.561C158.144 504.342 160.795 510.538 166.045 510.669C170.688 510.785 175.64 509.649 180.326 509.475C192.983 509.004 205.662 508.904 218.325 508.787C229.776 508.68 241.715 510.005 253.066 508.139C254.75 524.359 250.196 540.647 251.745 557.054C251.985 559.6 251.878 563.198 254.867 563.778C258.639 564.51 258.794 560.457 258.937 557.554C259.346 549.267 259.125 540.973 259.684 532.674C260.202 524.984 261.223 517.124 260.36 509.421C259.3 499.943 255.113 500.703 247.713 500.308C232.082 499.477 216.548 499.314 200.9 499.563" fill="url(#paint38_linear)"/>
<path fill-rule="evenodd" clip-rule="evenodd" d="M179.322 557.157C176.041 557.247 170.592 556.15 168.49 559.563C166.303 563.114 168.897 566.211 172.078 566.94C175.842 567.803 180.751 566.62 184.658 566.607C188.727 566.594 192.797 566.643 196.866 566.661C214.311 566.735 231.83 567.021 249.263 566.239C251.697 566.13 258.606 567.016 260.291 564.482C261.787 562.235 260.741 560.22 258.771 559.075C255.541 557.197 248.905 557.911 245.311 557.762C240.873 557.579 236.43 557.519 231.99 557.444C214.464 557.151 196.846 556.687 179.322 557.157" fill="url(#paint39_linear)"/>
<path fill-rule="evenodd" clip-rule="evenodd" d="M194.079 573.573C187.55 573.694 180.585 573.383 174.122 574.457C168.439 575.402 167.739 581.362 173.857 582.059C179.479 582.7 186.295 581.502 191.944 581.109C193.95 580.969 196.284 581.167 197.245 578.761C198.249 576.247 196.33 573.836 194.079 573.573" fill="#333333"/>
<path fill-rule="evenodd" clip-rule="evenodd" d="M243.432 574.199C239.947 574.293 229.77 572.668 228.044 576.985C225.171 584.174 238.949 581.443 241.592 581.337C244.923 581.204 257.907 583.314 257.91 577.561C257.913 571.919 246.622 574.113 243.432 574.199" fill="#333333"/>
<path fill-rule="evenodd" clip-rule="evenodd" d="M45.1971 609.918C45.2055 622.994 44.4554 636.194 45.5549 649.237C46.0096 654.632 45.9318 664.966 48.812 669.539C50.8565 672.786 53.6921 672.558 54.8089 668.66C55.5554 666.054 54.3614 660.842 54.2282 658.055C54.0999 655.379 53.9501 652.705 53.836 650.029C53.543 643.135 53.5661 636.251 53.6535 629.353C53.7284 623.436 55.0413 615.608 53.8033 609.918C52.6491 604.615 45.1971 603.375 45.1971 609.918" fill="url(#paint40_linear)"/>
<path fill-rule="evenodd" clip-rule="evenodd" d="M166.335 598.415C145.423 598.984 124.464 598.475 103.57 599.598C93.2658 600.152 83.0021 601.368 72.7496 602.58C67.7125 603.176 62.6784 603.791 57.6502 604.463C56.1329 604.665 43.5244 605.196 48.2667 610.398C50.3374 612.669 56.9269 610.296 59.5343 609.961C64.5827 609.315 69.6412 608.751 74.6967 608.171C84.3168 607.067 93.9488 606.022 103.61 605.442C126.363 604.074 149.21 604.484 171.986 603.573C178.147 603.326 184.29 603.149 190.453 603.413C192.072 603.482 203.965 604.137 198.801 599.372C196.359 597.118 187.154 598.281 184.102 598.213C178.18 598.08 172.254 598.253 166.335 598.415" fill="url(#paint41_linear)"/>
<path fill-rule="evenodd" clip-rule="evenodd" d="M194.843 620.445C194.739 614.403 194.636 608.361 194.382 602.325C194.116 595.968 202.098 595.005 204.465 600.151C206.169 603.855 205.869 610.159 205.613 615.561C205.509 617.739 205.412 619.77 205.457 621.425C205.559 625.22 205.816 629.143 206.077 633.119C206.732 643.123 207.41 653.458 205.686 662.902C204.848 667.492 201.28 669.904 198.904 667.402C198.901 667.407 198.898 667.413 198.895 667.418C198.001 668.846 195.22 668.843 193.172 668.841C192.608 668.84 192.1 668.839 191.701 668.869C186.09 669.282 180.583 669.98 175.022 670.885C163.941 672.687 152.956 673.795 141.755 674.095C134.155 674.299 126.544 674.368 118.931 674.436C104.354 674.567 89.7686 674.699 75.2375 675.78C70.3383 676.146 65.5134 676.771 60.6944 677.772C60.2842 677.857 59.8287 677.967 59.3438 678.084C55.7607 678.949 50.5735 680.2 50.2191 674.768C49.7978 668.32 62.6788 667.475 69.3074 667.041C70.3194 666.975 71.1857 666.918 71.8366 666.852C91.9638 664.821 112.407 665.135 132.619 665.447C133.598 665.462 134.577 665.477 135.555 665.491C137.133 665.515 138.71 665.543 140.286 665.572C148.94 665.726 157.584 665.88 166.235 665.306C170.172 665.045 174.161 664.911 178.157 664.776C184.531 664.562 190.925 664.347 197.16 663.614C196.22 659.659 196.055 654.991 195.9 650.592C195.84 648.879 195.781 647.207 195.678 645.634C195.13 637.249 194.987 628.847 194.843 620.445Z" fill="url(#paint42_linear)"/>
<path fill-rule="evenodd" clip-rule="evenodd" d="M211.768 606.982C208.943 607.399 206.587 610.022 207.848 613.349C209.436 617.538 214.168 615.901 217.294 615.636C227.229 614.791 237.602 616.478 247.417 615.206C250.097 614.858 253.986 613.274 251.58 609.366C249.771 606.43 243.179 606.945 240.377 606.664C230.795 605.702 221.338 605.959 211.768 606.982" fill="#333333"/>
<path fill-rule="evenodd" clip-rule="evenodd" d="M228.536 625.258C224.683 625.539 215.714 625.318 214.09 630.074C211.178 638.606 222.586 635.6 226.059 635.115C230.094 634.551 239.606 636.061 241.755 631.816C245.596 624.225 231.915 625.005 228.536 625.258" fill="#333333"/>
<path fill-rule="evenodd" clip-rule="evenodd" d="M218.628 643.983C216.801 645.966 216.798 649.509 218.628 651.493C220.869 653.922 225.753 653.417 228.698 653.595C232.805 653.844 244.602 656.2 246.642 650.953C249.394 643.874 238.711 644.022 235.197 643.62C231.136 643.156 221.994 640.329 218.628 643.983" fill="#333333"/>
<path fill-rule="evenodd" clip-rule="evenodd" d="M74.6392 522.795C74.6392 530.406 85.5971 530.406 85.5971 522.795C85.5971 515.225 74.6392 515.109 74.6392 522.795" fill="url(#paint43_linear)"/>
<path fill-rule="evenodd" clip-rule="evenodd" d="M95.4243 522.881C95.4243 531.583 107.906 531.565 107.906 522.881C107.906 514.21 95.4243 514.121 95.4243 522.881" fill="url(#paint44_linear)"/>
<path fill-rule="evenodd" clip-rule="evenodd" d="M82.8504 534.452C76.7833 536.269 82.3726 541.847 85.1898 543.121C89.667 545.147 95.7775 546.64 100.256 543.603C102.038 542.395 103.484 540.789 102.179 538.444C100.787 535.947 98.8823 537.057 96.7641 537.288C94.0806 537.581 91.9118 537.535 89.3205 536.602C87.3865 535.905 84.9598 533.822 82.8504 534.452" fill="url(#paint45_linear)"/>
<path fill-rule="evenodd" clip-rule="evenodd" d="M192.901 523.277C192.901 528.426 200.27 528.426 200.27 523.277C200.27 518.129 192.901 518.129 192.901 523.277" fill="url(#paint46_linear)"/>
<path fill-rule="evenodd" clip-rule="evenodd" d="M209.197 524.052C209.197 529.772 217.383 529.772 217.383 524.052C217.383 518.331 209.197 518.332 209.197 524.052" fill="url(#paint47_linear)"/>
<path fill-rule="evenodd" clip-rule="evenodd" d="M208.59 536.465C204.29 537.067 191.854 538.434 191.158 544.185C190.084 553.056 203.712 545.876 206.822 545.179C210.783 544.292 214.321 544.524 218.275 544.696C220.447 544.79 223.334 545.172 223.107 541.584C222.734 535.692 212.349 535.943 208.59 536.465" fill="url(#paint48_linear)"/>
<path fill-rule="evenodd" clip-rule="evenodd" d="M100.476 618.277C97.3589 619.179 93.2817 625.025 95.4261 628.602C98.9423 634.47 100.493 625.461 101.965 624.594C104.642 623.016 106.816 628.782 109.614 625.757C114.029 620.985 103.255 617.47 100.476 618.277" fill="url(#paint49_linear)"/>
<path fill-rule="evenodd" clip-rule="evenodd" d="M136.189 613.94C132.492 613.977 124.689 619.654 124.137 623.846C123.808 626.337 125.331 628.729 127.805 628.763C131.175 628.808 132.246 624.054 135.168 623.06C138.319 621.988 137.851 624.457 140.573 625.737C142.564 626.674 145.055 626.282 145.747 623.625C147.052 618.614 139.987 613.861 136.189 613.94" fill="url(#paint50_linear)"/>
<path fill-rule="evenodd" clip-rule="evenodd" d="M107.896 637.941C101.984 641.7 111.711 649.756 115.084 650.764C120.175 652.284 130.421 649.446 131.628 642.699C132.108 640.014 130.56 637.582 127.828 638.062C125.579 638.459 124.137 641.519 122.054 642.615C119.242 644.095 116.742 643.994 114.353 641.767C112.406 639.953 111.364 635.747 107.896 637.941" fill="url(#paint51_linear)"/>
<path fill-rule="evenodd" clip-rule="evenodd" d="M112.181 693.476C106.899 694.698 101.529 693.878 96.2218 695.027C90.8097 696.199 87.5753 698.417 82.5471 696.182C82.3105 696.074 82.0746 695.966 81.8386 695.857C77.9468 694.039 73.8679 693.5 69.7942 696.399C67.3835 698.114 60.0653 704.046 60.9474 707.666C62.8588 715.514 71.0934 703.208 73.1933 702.009C77.1974 699.722 79.9427 702.644 84.065 703.468C89.0029 704.456 92.9761 701.625 97.6274 700.498C103.067 699.179 109.187 698.72 114.722 698.014C116.909 697.735 125.191 699.611 125.939 696.659C127.223 691.588 114.257 692.998 112.181 693.476" fill="#333333"/>
<path fill-rule="evenodd" clip-rule="evenodd" d="M150.289 709.281C150.634 709.565 150.357 709.337 150.289 709.281ZM165.082 693.169C169.604 692.671 184.071 689.167 187.042 694.236C188.976 697.538 185.906 709.724 182.977 711.3C180.636 712.559 175.183 711.167 172.614 711.068C167.834 710.886 163.044 710.805 158.27 710.481C156.669 710.373 151.516 710.692 150.261 709.155C148.779 707.339 148.845 697.661 148.496 695.261C152.653 696.721 160.735 693.648 165.082 693.169M174.738 688.199C168.946 688.471 163.156 688.943 157.408 689.786C154.204 690.256 150.958 691.505 147.999 692.096C147.045 692.287 145.497 691.758 144.327 692.371C140.909 694.162 143.902 706.275 144.726 709.511C145.992 714.482 149.179 715.287 153.643 715.755C159.523 716.373 165.524 716.179 171.423 716.101C177.109 716.025 184.776 717.392 187.967 711.203C190.029 707.201 192.241 697.881 190.478 693.421C188.159 687.552 179.5 687.982 174.738 688.199" fill="url(#paint52_linear)"/>
<path fill-rule="evenodd" clip-rule="evenodd" d="M239.589 712.61C239.28 713.041 239.28 713.041 239.589 712.61ZM240.859 710.95C240.763 711.108 240.318 711.617 240.859 710.95ZM227.048 710.494C229.6 709.973 232.154 709.458 234.71 708.952C232.29 712.627 229.741 711.108 225.607 710.788C226.087 710.69 226.567 710.593 227.048 710.494M214.868 709.194C215.516 708.959 216.162 708.724 216.809 708.489C216.79 709.024 216.896 709.524 217.127 709.99C216.019 709.86 214.912 709.721 213.807 709.573C214.16 709.447 214.515 709.32 214.868 709.194M209.224 704.672C209.188 703.708 210.525 704.37 211.291 704.305C209.814 705.716 209.125 705.838 209.224 704.672M229.409 693.735C229.603 693.466 229.86 693.48 230.181 693.776C229.831 693.903 228.485 694.522 229.409 693.735M242.499 692.065C242.533 692.065 243.26 693.129 242.499 692.065ZM242.131 691.716C242.321 691.874 242.321 691.874 242.131 691.716ZM240.498 691.509C243.174 691.999 242.971 695.407 240.498 691.509ZM209.054 691.277C208.51 691.767 208.696 691.292 209.054 691.277ZM219.289 684.022C214.745 684.309 206.404 684.02 202.61 686.647C197.657 690.075 200.263 701.876 200.706 707.05C201.361 714.697 204.678 716.874 211.316 717.677C219.238 718.635 227.378 718.814 235.341 718.586C242.512 718.382 246.597 715.706 247.91 707.514C248.312 705.008 249.334 701.13 249.301 698.73C249.279 697.065 248.515 696.305 248.225 694.889C246.578 686.827 243.824 685.871 236.207 685.52C230.602 685.261 224.789 683.71 219.289 684.022" fill="url(#paint53_linear)"/>
</g>
<g opacity="0.5">
<path fill-rule="evenodd" clip-rule="evenodd" d="M321.833 731.738C338.033 732.059 356.413 740.396 353.851 758.057C351.975 770.994 339.928 781.497 325.975 782.403C310.979 783.376 295.124 772.674 293.087 758.478C290.795 742.509 305.991 731.419 321.833 731.738M313.888 724.549C307.321 725.46 301.045 728.667 295.262 731.539C293.055 732.636 281.863 739.324 290.641 740.985C269.492 772.7 319.265 802.157 347.249 781.546C359.815 772.29 366.431 754.741 358.308 741.005C349.907 726.798 329.983 722.301 313.888 724.549" fill="url(#paint54_linear)"/>
<path fill-rule="evenodd" clip-rule="evenodd" d="M310.018 751.543C310.018 757.467 319.905 757.467 319.905 751.543C319.905 745.62 310.018 745.62 310.018 751.543" fill="url(#paint55_linear)"/>
<path fill-rule="evenodd" clip-rule="evenodd" d="M328.351 752.492C328.351 758.914 339.071 758.914 339.071 752.492C339.071 746.07 328.351 746.07 328.351 752.492" fill="url(#paint56_linear)"/>
<path fill-rule="evenodd" clip-rule="evenodd" d="M315.979 765.191C314.536 770.063 330.986 772.562 331.533 766.923C331.794 764.229 316.982 761.792 315.979 765.191" fill="url(#paint57_linear)"/>
<path fill-rule="evenodd" clip-rule="evenodd" d="M364.199 762.18C383.127 760.069 402.643 761.045 421.663 761.551C426.423 761.679 431.182 761.803 435.943 761.877C438.969 761.924 445.506 763.274 448.147 761.957C458.964 756.564 437.745 753.956 434.741 753.707C415.822 752.26 386.626 751.744 367.651 752.427C362.04 752.629 360.827 762.556 364.199 762.18" fill="url(#paint58_linear)"/>
<path fill-rule="evenodd" clip-rule="evenodd" d="M449.374 849.67C449.536 831.23 450.247 812.665 451.772 794.28C452.393 786.786 453.137 779.303 453.755 771.809C454.046 768.279 455.395 763.335 453.163 760.238C450.864 757.047 445.819 756.383 442.78 759.211C439.141 763.591 440.199 770.941 439.746 776.239C439.051 784.385 438.21 792.524 437.792 800.687C436.985 816.487 436.796 832.562 438.161 848.34C438.806 855.785 440.205 863.049 442.064 870.311C442.912 873.616 449.648 888.339 448.232 890.369C446.037 893.518 429.813 892.328 426.294 892.415C417.263 892.641 408.229 892.787 399.196 892.948C391.462 893.085 383.728 893.184 375.994 893.247C372.923 893.273 354.878 892.764 358.881 896.998C314.12 899.898 268.504 895.057 224.016 893.396C221.769 893.312 218.092 892.718 214.698 892.548C214.291 891.024 213.957 889.662 213.875 888.715C213.29 882.067 213.137 875.396 212.503 868.75C211.344 856.59 209.095 844.552 207.757 832.412C206.422 820.286 206.556 808.122 205.779 795.966C205.645 793.883 205.33 776.82 200.699 772.675C202.895 773.449 206.435 773.549 208.474 773.397C224.977 772.158 241.36 769.492 257.721 767.204C262.402 766.549 273.025 767.013 276.907 764.837C280.268 762.954 281.598 756.35 275.752 756.885C259.437 758.51 243.21 761.032 227.024 763.515C222.694 764.178 218.376 764.889 214.058 765.614C211.174 766.099 203.563 766.062 201.327 767.678C198.611 769.64 198.322 770.975 199.243 771.863C197.963 771.536 196.429 772.05 194.587 773.764C191.104 777.979 194.379 788.36 194.794 793.303C195.293 799.231 195.538 805.17 195.828 811.109C196.389 822.603 197.683 833.937 199.672 845.292C201.901 858.013 203.796 870.786 206.031 883.503C206.613 886.814 207.371 890.043 208.339 893.242C202.319 896.105 206.412 900.657 211.186 901.465C211.22 901.471 211.256 901.475 211.29 901.481C212.778 904.856 214.86 907.982 216.485 903.46C216.609 903.113 216.668 902.686 216.683 902.206C229.013 903.504 242.567 902.698 254.707 903.159C281.003 904.159 307.461 905.658 333.784 904.898C344.204 904.597 354.657 903.737 364.99 902.444C371.044 901.686 377.122 900.783 383.079 899.527C383.506 899.438 384.155 899.343 384.904 899.229C385.026 899.225 385.151 899.222 385.266 899.221C394.388 899.093 403.503 898.866 412.617 898.513C420.268 898.218 427.952 898.066 435.579 897.395C440.315 896.978 450.326 897.055 453.234 892.626C455.879 888.599 451.458 878.225 450.83 873.701C449.726 865.736 449.303 857.696 449.374 849.67" fill="url(#paint59_linear)"/>
<path fill-rule="evenodd" clip-rule="evenodd" d="M356.93 796.426C349.641 797.006 342.901 800.189 335.545 800.229C329.371 800.261 323.292 798.545 317.084 798.799C309.801 799.094 305.795 803.473 299.416 804.938C294.337 806.104 291.138 802.489 286.671 800.891C281.031 798.871 276.865 799.914 272.031 802.968C268.479 805.212 260.195 810.248 260.259 814.788C260.449 828.536 277.701 809.544 281.179 809.313C285.8 809.008 290.963 813.905 295.879 814.184C302.38 814.554 306.548 810.658 312.533 809.238C318.587 807.802 325.13 809.561 331.198 810.107C338.122 810.73 344.181 809.295 350.879 807.758C357.371 806.269 362.902 806.348 369.498 807.598C373.95 808.443 385.04 813.35 386.987 807.04C389.639 798.447 362.026 796.023 356.93 796.426" fill="#333333"/>
<path fill-rule="evenodd" clip-rule="evenodd" d="M359.149 822.649C344.214 823.996 329.188 825.178 314.184 825.557C307.686 825.721 282.705 823.132 284.92 830.809C286.819 837.392 320.814 833.248 327.738 832.746C335.382 832.194 343.014 831.422 350.62 830.527C353.316 830.21 359.825 830.538 361.728 828.436C363.541 826.43 362.647 822.323 359.149 822.649" fill="#333333"/>
<path fill-rule="evenodd" clip-rule="evenodd" d="M256.116 857.613C255.777 857.747 255.777 857.747 256.116 857.613ZM259.267 857.573C262.991 857.464 262.193 855.638 265.907 856.59C267.62 857.028 267.796 856.377 269.124 857.9C271.715 860.87 269.275 867.338 266.72 869.731C257.263 878.594 245.913 857.967 259.267 857.573M259.267 848.879C233.375 849.687 244.208 886.876 266.743 879.285C276.05 876.149 281.9 862.025 276.426 854.088C273.763 850.227 270.368 849.54 265.907 849.273C264.871 849.211 263.568 850.61 262.921 850.546C261.385 850.395 261.528 848.8 259.267 848.879" fill="url(#paint60_linear)"/>
<path fill-rule="evenodd" clip-rule="evenodd" d="M321.184 858.888C320.722 858.756 329.359 861.091 328.414 860.177C330.431 862.127 327.719 866.738 325.438 867.543C319.914 869.493 316.814 861.506 321.184 858.888M325.017 848.804C316.91 849.872 310.653 853.011 309.545 861.394C308.523 869.131 314.145 876.966 323.014 877.117C342.344 877.446 342.933 846.48 325.017 848.804" fill="url(#paint61_linear)"/>
<path fill-rule="evenodd" clip-rule="evenodd" d="M413.264 859.226C414.396 872.965 399.074 860.389 413.264 859.226ZM406.688 844.526C405.348 846.657 406.49 848.917 408.513 850.155C390.439 853.706 394.532 878.995 412.924 875.259C422.277 873.359 423.997 864.215 422.603 856.664C421.94 853.074 412.317 835.578 406.688 844.526" fill="url(#paint62_linear)"/>
</g>
<g opacity="0.5">
<path fill-rule="evenodd" clip-rule="evenodd" d="M429.819 503.604C429.814 514.687 429.37 525.999 430.99 536.949C431.481 540.263 431.868 546.613 434.643 548.333C437.43 550.061 440.132 548.12 440.825 544.519C441.633 540.329 439.861 534.06 439.681 529.661C439.435 523.653 439.418 517.637 439.416 511.622C439.415 507.277 440.549 500.289 436.48 498.054C433.454 496.391 429.819 499.482 429.819 503.604" fill="url(#paint63_linear)"/>
<path fill-rule="evenodd" clip-rule="evenodd" d="M568.835 486.075C539.701 489.761 510.148 490.527 480.908 492.449C467.393 493.337 451.058 492.204 438.325 498.798C435.961 500.022 427.492 506.838 434.368 509.613C436.511 510.478 438.687 507.568 440.447 506.593C443.378 504.972 446.77 504.47 449.895 503.837C476.464 498.46 504.254 499.396 531.096 496.883C537.973 496.239 544.854 495.576 551.718 494.725C556.621 494.117 566.928 489.663 571.453 491.941C579.186 495.834 579.005 521.128 579.158 529.827C579.237 534.326 575.772 550.476 582.66 548.839C588.172 547.528 586.176 530.751 585.747 526.162C584.62 514.132 582.696 484.305 568.835 486.075" fill="url(#paint64_linear)"/>
<path fill-rule="evenodd" clip-rule="evenodd" d="M579.578 548.255C554.272 551.135 528.383 548.309 502.973 549.441C489.654 550.037 476.348 550.982 463.027 551.536C457.266 551.777 451.5 551.787 445.736 551.838C442.979 551.862 430.433 553.968 438.194 560.857C441.631 563.907 452.582 561.45 456.525 561.39C462.447 561.303 468.367 560.992 474.285 560.7C487.994 560.025 501.695 559.089 515.411 558.621C528.531 558.173 541.658 558.077 554.778 557.63C561.306 557.406 567.923 557.154 574.393 555.953C575.853 555.681 580.595 555.466 581.609 553.414C582.568 551.474 581.895 547.973 579.578 548.255" fill="url(#paint65_linear)"/>
<path fill-rule="evenodd" clip-rule="evenodd" d="M455.204 524.31C455.068 524.716 455.068 524.716 455.204 524.31ZM466.163 520.111C466.563 520.325 466.563 520.325 466.163 520.111ZM465.65 519.995C471.555 527.581 462.473 536.637 456.941 529.233C451.069 521.375 461.848 520.02 465.65 519.995M459.386 508.517C439.044 513.079 446.246 547.248 465.245 542.309C473.586 540.142 478.356 529.552 475.486 519.379C474.364 515.405 471.919 511.043 468.515 509.79C466.817 509.166 465.315 510.148 463.698 509.918C462.156 509.699 461.3 508.082 459.386 508.517" fill="url(#paint66_linear)"/>
<path fill-rule="evenodd" clip-rule="evenodd" d="M537.236 518.134C524.97 518.183 512.701 518.84 500.436 519.133C496.674 519.222 487.005 517.101 486.99 524.575C486.974 532.562 497.744 529.612 501.328 529.504C513.494 529.138 525.691 528.466 537.808 527.006C540.868 526.637 551.464 527.274 551.453 522.028C551.442 516.47 539.708 518.134 537.236 518.134" fill="#333333"/>
<path fill-rule="evenodd" clip-rule="evenodd" d="M566.534 570.262C536.196 571.288 505.905 571.645 475.591 573.603C464.253 574.334 452.93 574.879 441.575 574.879C439.388 574.879 434.984 573.812 432.926 575.547C427.34 580.255 433.701 584.296 437.341 584.55C462.244 586.292 487.507 581.957 512.395 580.979C526.965 580.406 541.539 580.237 556.1 579.303C560.073 579.048 564.046 578.752 568.012 578.364C570.293 578.141 576.325 578.752 578.168 577.07C586.217 569.728 569.248 570.17 566.534 570.262" fill="url(#paint67_linear)"/>
<path fill-rule="evenodd" clip-rule="evenodd" d="M427.34 588.958C427.055 598.871 427.025 608.611 428.054 618.47C428.459 622.349 428.645 626.751 432.253 627.737C435.53 628.632 437.191 625.509 437.87 622.045C439.527 613.589 438.069 601.417 438.05 592.632C438.041 588.289 438.037 583.427 433.779 582.445C430.53 581.695 427.464 584.654 427.34 588.958" fill="url(#paint68_linear)"/>
<path fill-rule="evenodd" clip-rule="evenodd" d="M598.691 612.857C549.582 616.118 500.537 618.966 451.393 621.584C447.56 621.788 417.787 621.38 428.195 634.466C431.411 638.507 439.694 635.77 443.851 635.513C450.1 635.126 456.351 634.83 462.599 634.429C487.372 632.84 512.209 632.411 536.963 630.628C550.585 629.646 564.177 628.111 577.728 626.111C584.174 625.16 592.175 625.259 598.212 622.075C601.318 620.437 604.669 612.457 598.691 612.857" fill="url(#paint69_linear)"/>
<path fill-rule="evenodd" clip-rule="evenodd" d="M576.374 562.623C574.119 567.275 575.279 576.451 575.449 582.2C575.682 590.112 575.967 598.029 576.443 605.897C576.754 611.008 576.59 618.963 577.906 623.378C579.448 628.548 582.843 627.976 584.237 622.981C585.47 618.564 584.846 609.269 584.814 604.373C584.77 597.603 584.566 590.823 584.372 584.067C584.21 578.42 584.828 569.371 583.328 564.538C581.804 559.627 578.488 558.27 576.374 562.623" fill="url(#paint70_linear)"/>
<path fill-rule="evenodd" clip-rule="evenodd" d="M458.206 598.948C457.768 599.374 457.768 599.374 458.206 598.948ZM466.929 597.57C475.068 599.634 461.907 611.61 457.748 603.39C457.099 602.105 456.761 600.527 457.804 599.411C458.756 598.392 459.354 600.196 460.253 599.711C461.802 598.876 465.277 597.493 466.929 597.57M465.806 587.739C460.25 588.293 452.61 588.725 449.859 595.746C446.164 605.175 452.484 614.41 459.794 615.844C466.829 617.225 477.333 612.314 477.896 601.973C478.35 593.636 472.057 587.099 465.806 587.739" fill="url(#paint71_linear)"/>
<path fill-rule="evenodd" clip-rule="evenodd" d="M512.197 592.725C506.445 592.842 495.138 590.698 490.127 594.232C485.168 597.728 487.379 603.955 491.903 605.445C494.893 606.429 499.78 604.84 502.894 604.68C506.989 604.47 511.088 604.425 515.186 604.354C522.077 604.237 528.966 604.336 535.858 604.336C542.898 604.336 550.057 604.578 557.084 603.926C565.976 603.101 565.736 594.71 557.041 593.661C542.269 591.879 527.017 592.431 512.197 592.725" fill="#333333"/>
<path fill-rule="evenodd" clip-rule="evenodd" d="M434.017 654.609C434.198 666.197 434.317 677.796 434.71 689.375C434.834 693.037 434.002 700.187 437.524 702.053C441.443 704.131 442.661 698.952 443.113 695.443C444.543 684.325 443.141 671.631 443.004 660.381C442.958 656.604 443.606 651.345 440.202 649.462C437.426 647.925 433.961 650.778 434.017 654.609" fill="url(#paint72_linear)"/>
<path fill-rule="evenodd" clip-rule="evenodd" d="M585.221 654.791C585.453 655.482 585.453 655.482 585.221 654.791ZM585.55 654.673C585.738 654.773 586.499 655.175 585.55 654.673ZM511.272 645.307C497.157 645.586 483.033 645.797 468.926 646.559C462.906 646.884 456.816 647.147 450.817 647.862C446.567 648.369 436.011 648.579 433.255 652.956C427.567 661.99 439.628 659.526 442.226 658.793C446.954 657.457 451.779 657.029 456.61 656.708C467.09 656.011 477.574 655.639 488.067 655.373C516.522 654.651 544.998 654.761 573.459 654.599C576.214 654.583 581.194 653.187 583.74 654.591C586.289 656 586.145 659.461 586.41 663.481C586.762 668.828 583.964 679.018 586.096 683.516C589.404 690.493 594.214 684.569 594.95 679.482C595.965 672.454 594.355 664.014 592.779 657.296C590.555 647.817 587.467 647.44 580.192 646.699C571.693 645.833 563.224 645.309 554.697 645.209C540.225 645.042 525.743 645.024 511.272 645.307" fill="url(#paint73_linear)"/>
<path fill-rule="evenodd" clip-rule="evenodd" d="M567.099 693.209C536.484 697.69 504.998 695.05 474.219 695.208C466.734 695.247 459.243 695.322 451.765 695.78C447.816 696.02 438.454 694.648 435.748 698.488C430.045 706.583 440.319 707.76 444.07 707.425C451.653 706.746 459.254 706.435 466.857 706.361C493.637 706.101 520.568 707.675 547.326 706.01C558.536 705.313 569.496 702.896 580.499 700.195C582.936 699.597 599.623 695.599 590.108 690.807C584.484 687.975 573.007 692.34 567.099 693.209" fill="url(#paint74_linear)"/>
<path fill-rule="evenodd" clip-rule="evenodd" d="M477.711 678.391C477.498 678.737 477.498 678.737 477.711 678.391ZM477.505 678.331C477.432 678.579 477.207 679.192 477.505 678.331ZM475.574 675.192C475.619 675.265 475.801 675.559 475.574 675.192ZM475.5 675.169C476.238 676.278 476.734 677.515 476.989 678.88C470.646 681.045 468.202 674.578 475.5 675.169M475.099 674.865C475.101 674.867 475.993 675.34 475.099 674.865ZM464.678 665.23C460.573 671.673 457.184 679.182 462.302 686.542C466.879 693.122 476.086 693.971 481.894 689.578C487.877 685.051 487.361 675.522 483.187 669.302C480.5 665.297 478.322 665.408 474.423 664.754C471.768 664.309 466.931 661.708 464.678 665.23" fill="url(#paint75_linear)"/>
<path fill-rule="evenodd" clip-rule="evenodd" d="M507.116 677.156C507.116 685.736 536.511 682.043 541.74 682.034C546.121 682.026 572.608 685.071 570.707 676.242C569.145 668.987 543.054 672.593 537.498 672.582C532.695 672.574 507.116 668.418 507.116 677.156" fill="#333333"/>
</g>
<g opacity="0.5">
<path fill-rule="evenodd" clip-rule="evenodd" d="M142.69 379.311C152.196 380.691 162.084 385.162 162.001 396.227C161.932 405.53 154.129 415.431 144.11 414.875C135.093 414.376 126.603 404.515 125.474 396.065C124.889 391.687 125.983 386.974 128.558 383.372C131.933 378.654 137.287 378.661 142.69 379.311ZM138.2 373.297C131.325 373.334 126.294 375.821 122.039 381.071C120.513 382.953 118.738 384.979 117.576 387.112C116.491 389.104 116.682 394.169 120.405 391.794C119.488 401.6 125.219 411.117 133.457 416.142C142.412 421.604 152.534 420.539 159.987 412.883C166.81 405.875 169.211 394.038 164.219 385.371C159.231 376.709 147.673 373.204 138.2 373.297Z" fill="#333333"/>
<path fill-rule="evenodd" clip-rule="evenodd" d="M158.816 370.669C154.415 373.895 150.395 378.143 147.057 382.452C143.794 386.664 141.637 391.922 137.717 395.595C135.738 393.439 133.419 387.616 129.47 389.926C126.194 391.843 128.303 395.14 129.899 397.304C134.02 402.894 138.596 405.143 143.881 399.621C148.681 394.606 151.407 387.915 155.895 382.612C157.864 380.285 160.905 377.975 162.472 375.406C163.894 373.077 162.136 368.229 158.816 370.669Z" fill="#333333"/>
</g>
<g opacity="0.5">
<path fill-rule="evenodd" clip-rule="evenodd" d="M346.192 193.925C346.2 194.586 346.208 195.209 346.219 195.781C346.468 208.272 346.324 221.404 345.505 233.867C345.223 238.169 342.698 243.623 339.818 237.692C338.552 235.084 338.729 229.728 338.859 225.788C338.894 224.732 338.926 223.777 338.926 223.005C338.923 218.609 339.109 214.168 339.296 209.715C339.661 201.01 340.028 192.259 338.989 183.709C338.968 183.536 338.948 183.37 338.929 183.21C338.477 179.45 338.446 179.19 335.111 179.276C333.721 179.311 332.331 179.358 330.941 179.405C329.574 179.45 328.206 179.496 326.839 179.532C325.481 179.567 324.123 179.599 322.765 179.632C318.507 179.733 314.248 179.835 309.992 180.028C309.281 180.061 307.955 180.267 306.283 180.527C302.939 181.047 298.207 181.783 294.224 181.779C294.225 181.8 294.227 181.821 294.228 181.842C294.23 181.88 294.233 181.919 294.233 181.957C294.278 184.683 293.712 187.726 293.143 190.782C292.667 193.342 292.189 195.912 292.066 198.313C291.774 204.028 291.771 209.803 291.767 215.578C291.763 222.61 291.76 229.642 291.234 236.565C291.209 236.903 291.193 237.26 291.178 237.621C291.175 237.669 291.173 237.717 291.171 237.765C291.351 237.731 291.527 237.707 291.695 237.694C294.565 237.468 297.459 237.448 300.349 237.428C301.943 237.417 303.535 237.406 305.121 237.36C307.969 237.278 310.853 237.282 313.748 237.286C320.138 237.294 326.585 237.303 332.836 236.39C334.682 236.094 335.328 239.03 334.5 240.552C333.758 241.914 331.717 242.135 330.222 242.296C329.842 242.337 329.497 242.375 329.218 242.426C325.187 243.166 321.101 243.424 317.034 243.648C312.761 243.883 308.486 244.058 304.21 244.206C303.193 244.24 301.835 244.411 300.329 244.599C296.354 245.097 291.349 245.725 288.865 244.331C286.195 242.833 286.258 241.171 287.348 239.882C286.87 238.58 286.795 236.676 286.736 235.187C286.713 234.619 286.693 234.111 286.654 233.72C286.061 227.791 285.704 221.938 285.696 215.959C285.679 204.247 285.698 192.082 288.311 180.745C287.265 180.177 286.633 179.34 286.636 178.132C286.648 172.05 301.917 172.359 309.176 172.506C310.473 172.533 311.515 172.554 312.168 172.532C317.455 172.361 322.744 172.339 328.032 172.374C329.15 172.382 330.393 172.291 331.682 172.197C334.422 171.997 337.366 171.783 339.734 172.465C345.953 174.255 346.102 186.535 346.192 193.925Z" fill="url(#paint76_linear)"/>
<path fill-rule="evenodd" clip-rule="evenodd" d="M385.088 173.798C390.862 173.419 396.64 173.332 402.421 173.306C408.542 173.267 414.672 173.404 420.79 173.637L420.932 173.642C423.643 173.743 438.711 174.305 431.788 178.96C431.384 179.232 430.93 179.459 430.434 179.647C430.727 181.803 430.763 184.029 430.715 185.101C430.537 189.167 430.419 193.237 430.301 197.307L430.301 197.308C430.221 200.067 430.141 202.825 430.042 205.582C429.77 213.201 429.51 220.819 429.299 228.44C429.273 229.376 429.313 230.6 429.357 231.963C429.504 236.472 429.701 242.514 427.727 244.747C425.993 246.708 424.809 246.315 424.011 244.983C419.051 246.769 408.865 246.188 403.743 245.896C402.509 245.826 401.568 245.772 401.066 245.773C400.168 245.773 398.5 245.912 396.393 246.087C387.622 246.818 371.25 248.181 371.217 242.821C371.213 242.305 371.349 241.842 371.603 241.428C370.908 240.549 370.283 239.258 369.881 237.648C368.44 231.866 368.304 225.627 368.197 219.632C368.046 211.166 368.045 202.69 368.043 194.216V194.216C368.042 189.864 368.041 185.513 368.02 181.163C367.083 179.602 367.64 177.817 368.809 176.571C371.3 173.921 377.482 173.889 381.954 173.866C383.158 173.859 384.238 173.854 385.088 173.798ZM375.693 239.077C381.258 237.604 390.635 238.078 395.659 238.332C396.974 238.399 397.992 238.45 398.563 238.447C403.694 238.422 408.827 238.511 413.954 238.765C414.485 238.791 415.272 238.767 416.199 238.738C418.06 238.679 420.487 238.604 422.548 238.887C422.521 238.541 422.502 238.224 422.491 237.951C422.26 232.292 422.427 226.585 422.593 220.91V220.91C422.628 219.704 422.663 218.499 422.695 217.296C422.805 213.053 422.951 208.812 423.097 204.57C423.189 201.899 423.281 199.229 423.364 196.558C423.4 195.386 423.346 193.794 423.285 192.003C423.161 188.359 423.009 183.892 423.535 180.46C421.637 180.416 419.692 180.249 417.907 180.096C416.188 179.948 414.619 179.814 413.385 179.814C411.82 179.813 410.255 179.807 408.691 179.801C404.356 179.785 400.021 179.768 395.685 179.875C395.274 179.885 394.863 179.895 394.451 179.905L394.451 179.905L394.451 179.905C388.481 180.047 382.462 180.191 376.542 181.166C376.195 181.224 375.779 181.334 375.317 181.468C375.966 184.831 375.648 189.57 375.37 193.721L375.37 193.721C375.235 195.737 375.109 197.614 375.107 199.127C375.099 208.537 375.299 217.91 375.499 227.274C375.575 230.816 375.651 234.357 375.715 237.898C375.723 238.321 375.715 238.713 375.693 239.077Z" fill="url(#paint77_linear)"/>
<path fill-rule="evenodd" clip-rule="evenodd" d="M312.353 243.933C308.558 246.681 310.605 257.674 311.919 261.476C314.08 267.728 318.465 272.62 323.196 275.865C332.76 282.424 346.544 280.682 353.777 292.053C353.852 292.171 356.352 295.239 356.921 291.266C357.388 288.004 352.721 283.024 350.912 281.389C345.77 276.741 339.174 275.242 333.225 272.92C326.881 270.444 319.919 265.878 317.26 257.77C316.318 254.898 318.113 239.741 312.353 243.933" fill="#333333"/>
<path fill-rule="evenodd" clip-rule="evenodd" d="M399.095 249.218C395.618 250.407 397.918 256.339 397.912 259.309C397.905 263.014 396.95 266.892 395.108 269.849C390.437 277.349 381.29 278.472 374.433 280.623C369.454 282.185 357.541 285.535 357.074 293.883C356.554 303.207 367.071 291.861 367.959 291.396C377.79 286.925 390.507 286.062 398.095 276.221C401.227 272.159 403.078 266.737 403.372 261.141C403.538 257.991 403.566 247.704 399.095 249.218" fill="#333333"/>
<path fill-rule="evenodd" clip-rule="evenodd" d="M327.248 331.917C327.167 314.667 340.482 304.232 352.523 300.307C366.996 295.58 380.476 308.152 382.182 326.238C383.983 345.324 372.38 360.69 357.079 361.532C343.619 362.273 327.334 350.325 327.248 331.917ZM359.576 308.601C360.359 309.92 361.065 312.026 359.488 313.173C357.972 314.269 357.214 312.951 356.451 311.625C355.969 310.787 355.486 309.945 354.807 309.708C353.048 309.094 350.22 311.388 348.755 312.726C348.16 313.269 347.314 314.438 346.324 315.804C343.174 320.154 338.575 326.504 336.033 321.04C325.895 342.744 351.17 358.987 365.542 350.773C381.326 341.752 378.254 308.773 359.576 308.601Z" fill="url(#paint78_linear)"/>
<path fill-rule="evenodd" clip-rule="evenodd" d="M346.33 326.143C346.33 330.102 351.373 330.102 351.373 326.143C351.373 322.228 346.33 322.06 346.33 326.143" fill="url(#paint79_linear)"/>
<path fill-rule="evenodd" clip-rule="evenodd" d="M355.203 325.4C355.203 330.25 361.384 330.25 361.384 325.4C361.384 320.604 355.203 320.4 355.203 325.4" fill="url(#paint80_linear)"/>
<path fill-rule="evenodd" clip-rule="evenodd" d="M348.853 336.702C343.799 340.388 358.253 347.711 358.824 340.227C359.07 336.998 356.548 337.869 354.867 337.632C353.258 337.404 350.379 335.6 348.853 336.702" fill="url(#paint81_linear)"/>
<path fill-rule="evenodd" clip-rule="evenodd" d="M346.661 362.852C346.881 372.267 346.775 381.676 348.215 390.96C348.489 392.723 348.679 399.118 349.803 400.428C352.568 403.65 352.614 397.475 352.721 395.108C353.105 386.631 352.387 377.89 352.229 369.396C352.194 367.568 352.585 363.781 351.889 362.011C350.785 359.202 346.554 358.367 346.661 362.852" fill="#333333"/>
<path fill-rule="evenodd" clip-rule="evenodd" d="M341.255 355.219C330.174 370.638 314.915 369.502 299.543 370.852C291.421 371.566 283.209 373.031 276.673 379.544C273.633 382.574 271.012 386.37 269.251 390.695C268.481 392.586 264.83 403.496 270.314 400.907C272.259 399.99 274.173 392.774 275.431 390.64C277.827 386.576 280.893 383.22 284.571 381.039C291.665 376.832 300.135 376.903 307.827 376.369C315.867 375.812 324.498 375.29 331.889 370.955C335.365 368.916 338.627 366.372 341.425 363.095C342.425 361.923 344.569 359.934 344.729 358.142C344.912 356.094 343.324 352.346 341.255 355.219" fill="#333333"/>
<path fill-rule="evenodd" clip-rule="evenodd" d="M285.317 402.545C274.908 402.976 264.513 403.498 254.118 404.314C251.988 404.481 244.886 403.948 246.695 409.359C248.145 413.697 256.806 410.828 259.671 410.617C270.502 409.82 281.378 409.543 292.186 408.335C294.614 408.064 305.588 408.172 301.057 402.837C298.901 400.298 288.295 402.419 285.317 402.545" fill="url(#paint82_linear)"/>
<path fill-rule="evenodd" clip-rule="evenodd" d="M240.086 408.769C236.805 414.112 238.313 427.096 238.561 433.518C238.801 439.742 237.826 451.122 244.378 452.087C242.298 451.748 245.958 452.243 246.553 452.283C247.884 452.371 249.22 452.4 250.552 452.418C253.63 452.46 256.709 452.409 259.786 452.332C266.756 452.16 273.745 451.908 280.706 451.431C283.632 451.23 299.507 451.397 300.135 447.629C300.938 442.813 285.718 445.537 282.994 445.691C276.358 446.068 269.712 446.148 263.07 446.256C259.779 446.309 256.484 446.35 253.192 446.269C251.833 446.237 246.45 446.929 245.624 445.804C244.919 444.847 245.469 436.048 245.454 434.702C245.406 430.314 245.41 425.916 245.535 421.53C245.62 418.577 246.908 412.959 245.859 410.186C244.838 407.489 241.864 406.569 240.086 408.769" fill="url(#paint83_linear)"/>
<path fill-rule="evenodd" clip-rule="evenodd" d="M293.682 409.019C293.872 418.792 293.931 428.763 295.793 438.321C296.413 441.503 297.281 448.062 299.858 449.709C302.564 451.437 304.899 448.97 305.076 445.647C305.299 441.469 303.494 435.983 303.124 431.697C302.692 426.695 302.44 421.688 302.293 416.662C302.181 412.882 303.107 407.214 300.201 404.777C297.59 402.587 293.597 404.792 293.682 409.019" fill="url(#paint84_linear)"/>
<path fill-rule="evenodd" clip-rule="evenodd" d="M314.396 406.633C311.159 410.631 312.606 423.289 313.011 428.426C313.307 432.188 316.628 450.697 321.605 441.045C323.807 436.776 321.01 425.487 321.03 420.509C321.042 417.338 321.948 413.329 321.511 410.283C320.933 406.257 317.332 402.997 314.396 406.633" fill="url(#paint85_linear)"/>
<path fill-rule="evenodd" clip-rule="evenodd" d="M336.81 403.332C346.534 402.089 356.269 401.156 366.046 401.04C366.515 401.036 367.008 401.028 367.521 401.02C374.223 400.915 384.293 400.756 388.802 406.995C391.259 410.394 392.372 415.647 393.342 420.227C393.523 421.081 393.699 421.912 393.878 422.703C394.031 423.379 394.229 424.149 394.444 424.983C395.456 428.914 396.827 434.235 395.438 437.528C394.676 439.334 393.449 440.874 391.587 440.234C391.152 440.085 390.81 439.894 390.543 439.668C391.257 440.625 391.573 441.988 391.11 443.322C390.214 445.901 387.386 445.955 385.156 445.998C384.616 446.009 384.111 446.019 383.677 446.063C376.254 446.831 368.796 447.342 361.346 447.423C357.799 447.462 354.251 447.426 350.704 447.39C347.052 447.353 343.401 447.316 339.75 447.361C337.1 447.393 334.401 447.705 331.701 448.018C328.292 448.412 324.882 448.807 321.567 448.638C319.086 448.512 316.438 447.505 317.066 443.531C317.579 440.287 320.042 440.004 322.249 439.75C322.441 439.728 322.631 439.706 322.818 439.682C329.846 438.795 336.878 438.481 343.941 438.513C358.781 438.577 373.608 438.481 388.447 438.385C389.057 438.448 389.631 438.737 390.105 439.177C389.57 438.373 389.58 437.303 389.591 436.162C389.596 435.647 389.602 435.117 389.556 434.591C389.466 433.533 389.383 432.48 389.3 431.43C389.025 427.957 388.753 424.509 388.219 421.015C388.138 420.488 388.06 419.908 387.978 419.294C387.492 415.666 386.849 410.861 384.523 408.902C382.184 406.934 377.598 407.028 374.023 407.102C373.058 407.122 372.167 407.14 371.414 407.116C361.876 406.811 352.284 407.651 342.789 408.721C342.06 408.803 341.33 408.882 340.599 408.961C336.987 409.351 333.356 409.743 329.796 410.544C329.144 410.691 328.149 411.122 327.007 411.615C323.97 412.929 319.898 414.691 318.514 412.751C313.93 406.322 334.075 403.683 336.81 403.332Z" fill="url(#paint86_linear)"/>
<path fill-rule="evenodd" clip-rule="evenodd" d="M440.258 388.697C440.681 389.371 440.681 389.371 440.258 388.697ZM374.458 348.871C368.553 353.174 379.483 365.802 382.267 367.755C388.533 372.15 397.142 372.813 404.138 374.049C412.992 375.614 422.629 376.19 431.137 379.787C434.764 381.32 437.068 383.712 439.442 387.388C440.644 389.251 443.541 397.279 446.179 395.378C451.49 391.551 437.179 375.489 434.025 373.763C426.857 369.836 418.384 368.737 410.72 367.213C403.593 365.795 396.313 364.741 389.362 362.241C385.54 360.867 382.823 358.65 380.62 354.407C379.247 351.762 378.121 346.214 374.458 348.871" fill="#333333"/>
<path fill-rule="evenodd" clip-rule="evenodd" d="M464.988 398.202C458.18 398.389 451.384 399.038 444.59 399.688C440.778 400.052 436.967 400.416 433.155 400.698C431.962 400.787 430.769 400.867 429.574 400.946L429.574 400.946C426.215 401.171 422.852 401.395 419.51 401.814C419.002 401.877 418.413 401.937 417.773 402.003L417.773 402.003C414.934 402.292 411.063 402.686 408.589 403.97C406.321 401.844 402.822 403.651 402.767 407.442C402.674 414.346 402.725 421.128 403.404 427.99C403.562 429.583 404.374 437.648 406.14 441.846C405.512 445.81 408.238 446.921 410.775 447.225C420.601 448.401 430.906 447.488 441.071 446.588C446.242 446.13 451.376 445.675 456.393 445.5C458.061 445.441 459.751 445.418 461.451 445.394C466.997 445.317 472.651 445.239 478.022 443.938C478.238 443.886 478.469 443.834 478.711 443.781C480.834 443.308 483.763 442.657 483.985 439.761C484.119 438.022 483.328 436.43 482.004 436.207C482.095 434.758 481.948 433.177 481.84 432.015C481.815 431.745 481.792 431.497 481.774 431.279C481.453 427.25 480.643 423.248 479.844 419.296L479.844 419.296C479.664 418.408 479.485 417.522 479.312 416.639C479.121 415.661 478.943 414.498 478.752 413.244L478.752 413.244C478.077 408.818 477.228 403.256 474.972 400.674C472.605 397.966 468.753 398.086 465.667 398.182C465.436 398.189 465.21 398.196 464.988 398.202ZM476.969 436.639C476.162 434.02 475.926 430.476 475.701 427.109C475.56 424.995 475.424 422.95 475.154 421.246C474.951 419.967 474.785 418.619 474.616 417.249L474.616 417.248C474.206 413.92 473.779 410.461 472.772 407.545C471.423 403.639 470.221 403.788 467.38 404.141C466.851 404.207 466.266 404.28 465.613 404.335C462.717 404.579 459.823 404.889 456.931 405.2L456.931 405.2L456.93 405.2C455.542 405.349 454.155 405.497 452.767 405.639C446.827 406.245 440.884 406.71 434.94 407.175L434.94 407.175C431.467 407.447 427.994 407.719 424.521 408.019C421.796 408.254 419.136 408.896 416.487 409.536L416.487 409.536C414.389 410.043 412.298 410.547 410.187 410.847C410.156 411.742 410.096 412.641 410.038 413.496C409.959 414.662 409.886 415.747 409.902 416.637C409.971 420.58 410.252 424.5 410.533 428.425C410.576 429.028 410.619 429.632 410.662 430.236C410.713 430.96 410.838 431.89 410.978 432.922C411.193 434.517 411.441 436.355 411.497 438.048C411.754 438.046 412.009 438.047 412.261 438.048C412.586 438.049 412.905 438.051 413.211 438.044C420.695 437.882 428.174 437.601 435.653 437.244C436.608 437.199 437.563 437.153 438.517 437.107C445.19 436.785 451.864 436.463 458.542 436.368C461.196 436.33 463.884 436.433 466.58 436.537C470.049 436.67 473.531 436.803 476.969 436.639Z" fill="url(#paint87_linear)"/>
</g>
<defs>
<linearGradient id="paint0_linear" x1="43.8887" y1="73.996" x2="51.7126" y2="73.996" gradientUnits="userSpaceOnUse">
<stop stop-color="#F9E794"/>
<stop offset="1" stop-color="#F6BED4"/>
</linearGradient>
<linearGradient id="paint1_linear" x1="43.1025" y1="78.7747" x2="248" y2="78.7747" gradientUnits="userSpaceOnUse">
<stop stop-color="#F9E794"/>
<stop offset="1" stop-color="#F6BED4"/>
</linearGradient>
<linearGradient id="paint2_linear" x1="43" y1="110.718" x2="245.549" y2="110.718" gradientUnits="userSpaceOnUse">
<stop stop-color="#F9E794"/>
<stop offset="1" stop-color="#F6BED4"/>
</linearGradient>
<linearGradient id="paint3_linear" x1="60.3296" y1="79.7799" x2="105.97" y2="79.7799" gradientUnits="userSpaceOnUse">
<stop stop-color="#E0F787"/>
<stop offset="1" stop-color="#4EE3FA"/>
</linearGradient>
<linearGradient id="paint4_linear" x1="72.7988" y1="78.2614" x2="80.1228" y2="78.2614" gradientUnits="userSpaceOnUse">
<stop stop-color="#E0F787"/>
<stop offset="1" stop-color="#4EE3FA"/>
</linearGradient>
<linearGradient id="paint5_linear" x1="81.9619" y1="77.3553" x2="87.7814" y2="77.3553" gradientUnits="userSpaceOnUse">
<stop stop-color="#E0F787"/>
<stop offset="1" stop-color="#4EE3FA"/>
</linearGradient>
<linearGradient id="paint6_linear" x1="76.8516" y1="86.8712" x2="85.6267" y2="86.8712" gradientUnits="userSpaceOnUse">
<stop stop-color="#E0F787"/>
<stop offset="1" stop-color="#4EE3FA"/>
</linearGradient>
<linearGradient id="paint7_linear" x1="50.8721" y1="138.032" x2="240.262" y2="138.032" gradientUnits="userSpaceOnUse">
<stop stop-color="#F9E794"/>
<stop offset="1" stop-color="#F6BED4"/>
</linearGradient>
<linearGradient id="paint8_linear" x1="43.5557" y1="167.732" x2="54.6321" y2="167.732" gradientUnits="userSpaceOnUse">
<stop stop-color="#F9E794"/>
<stop offset="1" stop-color="#F6BED4"/>
</linearGradient>
<linearGradient id="paint9_linear" x1="50.2842" y1="199.688" x2="238.713" y2="199.688" gradientUnits="userSpaceOnUse">
<stop stop-color="#F9E794"/>
<stop offset="1" stop-color="#F6BED4"/>
</linearGradient>
<linearGradient id="paint10_linear" x1="233.845" y1="162.489" x2="244.552" y2="162.489" gradientUnits="userSpaceOnUse">
<stop stop-color="#F9E794"/>
<stop offset="1" stop-color="#F6BED4"/>
</linearGradient>
<linearGradient id="paint11_linear" x1="61.6089" y1="170.107" x2="109.159" y2="170.107" gradientUnits="userSpaceOnUse">
<stop stop-color="#E0F787"/>
<stop offset="1" stop-color="#4EE3FA"/>
</linearGradient>
<linearGradient id="paint12_linear" x1="70.8486" y1="167" x2="76.7363" y2="167" gradientUnits="userSpaceOnUse">
<stop stop-color="#E0F787"/>
<stop offset="1" stop-color="#4EE3FA"/>
</linearGradient>
<linearGradient id="paint13_linear" x1="83.1982" y1="165.442" x2="89.1327" y2="165.442" gradientUnits="userSpaceOnUse">
<stop stop-color="#E0F787"/>
<stop offset="1" stop-color="#4EE3FA"/>
</linearGradient>
<linearGradient id="paint14_linear" x1="75.7095" y1="176.761" x2="89.8676" y2="176.761" gradientUnits="userSpaceOnUse">
<stop stop-color="#E0F787"/>
<stop offset="1" stop-color="#4EE3FA"/>
</linearGradient>
<linearGradient id="paint15_linear" x1="203.671" y1="166.425" x2="220.741" y2="166.425" gradientUnits="userSpaceOnUse">
<stop stop-color="#E0F787"/>
<stop offset="1" stop-color="#4EE3FA"/>
</linearGradient>
<linearGradient id="paint16_linear" x1="49.4478" y1="229.289" x2="234.789" y2="229.289" gradientUnits="userSpaceOnUse">
<stop stop-color="#F9E794"/>
<stop offset="1" stop-color="#F6BED4"/>
</linearGradient>
<linearGradient id="paint17_linear" x1="47.3389" y1="254.425" x2="54.4128" y2="254.425" gradientUnits="userSpaceOnUse">
<stop stop-color="#F9E794"/>
<stop offset="1" stop-color="#F6BED4"/>
</linearGradient>
<linearGradient id="paint18_linear" x1="47.0493" y1="284.609" x2="238.812" y2="284.609" gradientUnits="userSpaceOnUse">
<stop stop-color="#F9E794"/>
<stop offset="1" stop-color="#F6BED4"/>
</linearGradient>
<linearGradient id="paint19_linear" x1="232.528" y1="251.94" x2="242.964" y2="251.94" gradientUnits="userSpaceOnUse">
<stop stop-color="#F9E794"/>
<stop offset="1" stop-color="#F6BED4"/>
</linearGradient>
<linearGradient id="paint20_linear" x1="199.837" y1="255.904" x2="218.277" y2="255.904" gradientUnits="userSpaceOnUse">
<stop stop-color="#E0F787"/>
<stop offset="1" stop-color="#4EE3FA"/>
</linearGradient>
<linearGradient id="paint21_linear" x1="59.7856" y1="253.13" x2="98.0056" y2="253.13" gradientUnits="userSpaceOnUse">
<stop stop-color="#E0F787"/>
<stop offset="1" stop-color="#4EE3FA"/>
</linearGradient>
<linearGradient id="paint22_linear" x1="70.7524" y1="249.612" x2="74.608" y2="249.612" gradientUnits="userSpaceOnUse">
<stop stop-color="#E0F787"/>
<stop offset="1" stop-color="#4EE3FA"/>
</linearGradient>
<linearGradient id="paint23_linear" x1="77.3325" y1="250.017" x2="81.2503" y2="250.017" gradientUnits="userSpaceOnUse">
<stop stop-color="#E0F787"/>
<stop offset="1" stop-color="#4EE3FA"/>
</linearGradient>
<linearGradient id="paint24_linear" x1="69.9702" y1="260.515" x2="82.0121" y2="260.515" gradientUnits="userSpaceOnUse">
<stop stop-color="#E0F787"/>
<stop offset="1" stop-color="#4EE3FA"/>
</linearGradient>
<linearGradient id="paint25_linear" x1="463" y1="74.5786" x2="607.87" y2="74.5786" gradientUnits="userSpaceOnUse">
<stop stop-color="#F8C6D7"/>
<stop offset="1" stop-color="#AFE9F9"/>
</linearGradient>
<linearGradient id="paint26_linear" x1="564.822" y1="51.0633" x2="569.454" y2="51.0633" gradientUnits="userSpaceOnUse">
<stop stop-color="#F8C6D7"/>
<stop offset="1" stop-color="#AFE9F9"/>
</linearGradient>
<linearGradient id="paint27_linear" x1="557.722" y1="50.3544" x2="574.004" y2="50.3544" gradientUnits="userSpaceOnUse">
<stop stop-color="#F8C6D7"/>
<stop offset="1" stop-color="#AFE9F9"/>
</linearGradient>
<linearGradient id="paint28_linear" x1="467.327" y1="132.968" x2="491.49" y2="132.968" gradientUnits="userSpaceOnUse">
<stop stop-color="#E0F787"/>
<stop offset="1" stop-color="#4EE3FA"/>
</linearGradient>
<linearGradient id="paint29_linear" x1="584.915" y1="129.606" x2="601.894" y2="129.606" gradientUnits="userSpaceOnUse">
<stop stop-color="#E0F787"/>
<stop offset="1" stop-color="#4EE3FA"/>
</linearGradient>
<linearGradient id="paint30_linear" x1="464.902" y1="190.23" x2="602.148" y2="190.23" gradientUnits="userSpaceOnUse">
<stop stop-color="#FFE2A0"/>
<stop offset="1" stop-color="#FF739C"/>
</linearGradient>
<linearGradient id="paint31_linear" x1="487.454" y1="189.952" x2="579.044" y2="189.952" gradientUnits="userSpaceOnUse">
<stop stop-color="#FFE2A0"/>
<stop offset="1" stop-color="#FF739C"/>
</linearGradient>
<linearGradient id="paint32_linear" x1="468.517" y1="240.881" x2="491.939" y2="240.881" gradientUnits="userSpaceOnUse">
<stop stop-color="#E0F787"/>
<stop offset="1" stop-color="#4EE3FA"/>
</linearGradient>
<linearGradient id="paint33_linear" x1="578.813" y1="238.824" x2="596.097" y2="238.824" gradientUnits="userSpaceOnUse">
<stop stop-color="#E0F787"/>
<stop offset="1" stop-color="#4EE3FA"/>
</linearGradient>
<linearGradient id="paint34_linear" x1="46.1353" y1="531.414" x2="147.184" y2="531.414" gradientUnits="userSpaceOnUse">
<stop stop-color="#F8C6D7"/>
<stop offset="1" stop-color="#AFE9F9"/>
</linearGradient>
<linearGradient id="paint35_linear" x1="44" y1="532.783" x2="53.2149" y2="532.783" gradientUnits="userSpaceOnUse">
<stop stop-color="#F8C6D7"/>
<stop offset="1" stop-color="#AFE9F9"/>
</linearGradient>
<linearGradient id="paint36_linear" x1="46.897" y1="562.086" x2="148.496" y2="562.086" gradientUnits="userSpaceOnUse">
<stop stop-color="#F8C6D7"/>
<stop offset="1" stop-color="#AFE9F9"/>
</linearGradient>
<linearGradient id="paint37_linear" x1="162.488" y1="534.689" x2="169.887" y2="534.689" gradientUnits="userSpaceOnUse">
<stop stop-color="#F8C6D7"/>
<stop offset="1" stop-color="#AFE9F9"/>
</linearGradient>
<linearGradient id="paint38_linear" x1="160.619" y1="532.376" x2="260.694" y2="532.376" gradientUnits="userSpaceOnUse">
<stop stop-color="#F8C6D7"/>
<stop offset="1" stop-color="#AFE9F9"/>
</linearGradient>
<linearGradient id="paint39_linear" x1="167.68" y1="562.22" x2="261" y2="562.22" gradientUnits="userSpaceOnUse">
<stop stop-color="#F8C6D7"/>
<stop offset="1" stop-color="#AFE9F9"/>
</linearGradient>
<linearGradient id="paint40_linear" x1="44.9551" y1="639.366" x2="55.0526" y2="639.366" gradientUnits="userSpaceOnUse">
<stop stop-color="#F8C6D7"/>
<stop offset="1" stop-color="#AFE9F9"/>
</linearGradient>
<linearGradient id="paint41_linear" x1="47.2061" y1="604.82" x2="200.091" y2="604.82" gradientUnits="userSpaceOnUse">
<stop stop-color="#F8C6D7"/>
<stop offset="1" stop-color="#AFE9F9"/>
</linearGradient>
<linearGradient id="paint42_linear" x1="50.209" y1="638.761" x2="206.777" y2="638.761" gradientUnits="userSpaceOnUse">
<stop stop-color="#F8C6D7"/>
<stop offset="1" stop-color="#AFE9F9"/>
</linearGradient>
<linearGradient id="paint43_linear" x1="74.6392" y1="522.916" x2="85.5971" y2="522.916" gradientUnits="userSpaceOnUse">
<stop stop-color="#F8C6D7"/>
<stop offset="1" stop-color="#AFE9F9"/>
</linearGradient>
<linearGradient id="paint44_linear" x1="95.4243" y1="523.018" x2="107.906" y2="523.018" gradientUnits="userSpaceOnUse">
<stop stop-color="#F8C6D7"/>
<stop offset="1" stop-color="#AFE9F9"/>
</linearGradient>
<linearGradient id="paint45_linear" x1="80.1333" y1="539.954" x2="102.682" y2="539.954" gradientUnits="userSpaceOnUse">
<stop stop-color="#F8C6D7"/>
<stop offset="1" stop-color="#AFE9F9"/>
</linearGradient>
<linearGradient id="paint46_linear" x1="192.901" y1="523.363" x2="200.27" y2="523.363" gradientUnits="userSpaceOnUse">
<stop stop-color="#F8C6D7"/>
<stop offset="1" stop-color="#AFE9F9"/>
</linearGradient>
<linearGradient id="paint47_linear" x1="209.197" y1="524.147" x2="217.383" y2="524.147" gradientUnits="userSpaceOnUse">
<stop stop-color="#F8C6D7"/>
<stop offset="1" stop-color="#AFE9F9"/>
</linearGradient>
<linearGradient id="paint48_linear" x1="191.098" y1="542.536" x2="223.119" y2="542.536" gradientUnits="userSpaceOnUse">
<stop stop-color="#F8C6D7"/>
<stop offset="1" stop-color="#AFE9F9"/>
</linearGradient>
<linearGradient id="paint49_linear" x1="94.8281" y1="624.506" x2="110.663" y2="624.506" gradientUnits="userSpaceOnUse">
<stop stop-color="#F8C6D7"/>
<stop offset="1" stop-color="#AFE9F9"/>
</linearGradient>
<linearGradient id="paint50_linear" x1="124.092" y1="621.516" x2="145.906" y2="621.516" gradientUnits="userSpaceOnUse">
<stop stop-color="#F8C6D7"/>
<stop offset="1" stop-color="#AFE9F9"/>
</linearGradient>
<linearGradient id="paint51_linear" x1="106.03" y1="644.397" x2="131.715" y2="644.397" gradientUnits="userSpaceOnUse">
<stop stop-color="#F8C6D7"/>
<stop offset="1" stop-color="#AFE9F9"/>
</linearGradient>
<linearGradient id="paint52_linear" x1="142.726" y1="702.456" x2="191.12" y2="702.456" gradientUnits="userSpaceOnUse">
<stop stop-color="#FFE2A0"/>
<stop offset="1" stop-color="#FF739C"/>
</linearGradient>
<linearGradient id="paint53_linear" x1="199.626" y1="701.713" x2="249.302" y2="701.713" gradientUnits="userSpaceOnUse">
<stop stop-color="#FFE2A0"/>
<stop offset="1" stop-color="#FF739C"/>
</linearGradient>
<linearGradient id="paint54_linear" x1="285.547" y1="751.372" x2="361.877" y2="751.372" gradientUnits="userSpaceOnUse">
<stop stop-color="#F9E794"/>
<stop offset="1" stop-color="#F6BED4"/>
</linearGradient>
<linearGradient id="paint55_linear" x1="310.018" y1="750.877" x2="319.905" y2="750.877" gradientUnits="userSpaceOnUse">
<stop stop-color="#F9E794"/>
<stop offset="1" stop-color="#F6BED4"/>
</linearGradient>
<linearGradient id="paint56_linear" x1="328.351" y1="751.77" x2="339.071" y2="751.77" gradientUnits="userSpaceOnUse">
<stop stop-color="#F9E794"/>
<stop offset="1" stop-color="#F6BED4"/>
</linearGradient>
<linearGradient id="paint57_linear" x1="315.889" y1="766.343" x2="331.536" y2="766.343" gradientUnits="userSpaceOnUse">
<stop stop-color="#F9E794"/>
<stop offset="1" stop-color="#F6BED4"/>
</linearGradient>
<linearGradient id="paint58_linear" x1="362.33" y1="757.446" x2="451.195" y2="757.446" gradientUnits="userSpaceOnUse">
<stop stop-color="#F8C6D7"/>
<stop offset="1" stop-color="#AFE9F9"/>
</linearGradient>
<linearGradient id="paint59_linear" x1="193" y1="832.939" x2="454.425" y2="832.939" gradientUnits="userSpaceOnUse">
<stop stop-color="#F8C6D7"/>
<stop offset="1" stop-color="#AFE9F9"/>
</linearGradient>
<linearGradient id="paint60_linear" x1="244.216" y1="864.94" x2="278.539" y2="864.94" gradientUnits="userSpaceOnUse">
<stop stop-color="#E0F787"/>
<stop offset="1" stop-color="#4EE3FA"/>
</linearGradient>
<linearGradient id="paint61_linear" x1="309.425" y1="863.215" x2="338" y2="863.215" gradientUnits="userSpaceOnUse">
<stop stop-color="#E0F787"/>
<stop offset="1" stop-color="#4EE3FA"/>
</linearGradient>
<linearGradient id="paint62_linear" x1="396.859" y1="859.195" x2="423.03" y2="859.195" gradientUnits="userSpaceOnUse">
<stop stop-color="#E0F787"/>
<stop offset="1" stop-color="#4EE3FA"/>
</linearGradient>
<linearGradient id="paint63_linear" x1="429.76" y1="523.855" x2="441.035" y2="523.855" gradientUnits="userSpaceOnUse">
<stop stop-color="#F8C6D7"/>
<stop offset="1" stop-color="#AFE9F9"/>
</linearGradient>
<linearGradient id="paint64_linear" x1="431.73" y1="518.177" x2="586.451" y2="518.177" gradientUnits="userSpaceOnUse">
<stop stop-color="#F8C6D7"/>
<stop offset="1" stop-color="#AFE9F9"/>
</linearGradient>
<linearGradient id="paint65_linear" x1="435.695" y1="555.467" x2="582.031" y2="555.467" gradientUnits="userSpaceOnUse">
<stop stop-color="#F8C6D7"/>
<stop offset="1" stop-color="#AFE9F9"/>
</linearGradient>
<linearGradient id="paint66_linear" x1="447.165" y1="526.001" x2="476.324" y2="526.001" gradientUnits="userSpaceOnUse">
<stop stop-color="#E0F787"/>
<stop offset="1" stop-color="#4EE3FA"/>
</linearGradient>
<linearGradient id="paint67_linear" x1="430.722" y1="577.755" x2="580.316" y2="577.755" gradientUnits="userSpaceOnUse">
<stop stop-color="#F8C6D7"/>
<stop offset="1" stop-color="#AFE9F9"/>
</linearGradient>
<linearGradient id="paint68_linear" x1="427.169" y1="605.617" x2="438.661" y2="605.617" gradientUnits="userSpaceOnUse">
<stop stop-color="#F8C6D7"/>
<stop offset="1" stop-color="#AFE9F9"/>
</linearGradient>
<linearGradient id="paint69_linear" x1="426" y1="625.014" x2="602" y2="625.014" gradientUnits="userSpaceOnUse">
<stop stop-color="#F8C6D7"/>
<stop offset="1" stop-color="#AFE9F9"/>
</linearGradient>
<linearGradient id="paint70_linear" x1="575" y1="594.244" x2="585" y2="594.244" gradientUnits="userSpaceOnUse">
<stop stop-color="#F8C6D7"/>
<stop offset="1" stop-color="#AFE9F9"/>
</linearGradient>
<linearGradient id="paint71_linear" x1="448.771" y1="602.199" x2="477.919" y2="602.199" gradientUnits="userSpaceOnUse">
<stop stop-color="#E0F787"/>
<stop offset="1" stop-color="#4EE3FA"/>
</linearGradient>
<linearGradient id="paint72_linear" x1="434.017" y1="676.378" x2="443.751" y2="676.378" gradientUnits="userSpaceOnUse">
<stop stop-color="#F8C6D7"/>
<stop offset="1" stop-color="#AFE9F9"/>
</linearGradient>
<linearGradient id="paint73_linear" x1="431.748" y1="666.358" x2="595.267" y2="666.358" gradientUnits="userSpaceOnUse">
<stop stop-color="#F8C6D7"/>
<stop offset="1" stop-color="#AFE9F9"/>
</linearGradient>
<linearGradient id="paint74_linear" x1="434.061" y1="698.865" x2="593.014" y2="698.865" gradientUnits="userSpaceOnUse">
<stop stop-color="#F8C6D7"/>
<stop offset="1" stop-color="#AFE9F9"/>
</linearGradient>
<linearGradient id="paint75_linear" x1="459.719" y1="678.179" x2="486.355" y2="678.179" gradientUnits="userSpaceOnUse">
<stop stop-color="#E0F787"/>
<stop offset="1" stop-color="#4EE3FA"/>
</linearGradient>
<linearGradient id="paint76_linear" x1="285.694" y1="209.403" x2="346.33" y2="209.403" gradientUnits="userSpaceOnUse">
<stop stop-color="#FFE2A0"/>
<stop offset="1" stop-color="#FF739C"/>
</linearGradient>
<linearGradient id="paint77_linear" x1="367.547" y1="210.865" x2="433.59" y2="210.865" gradientUnits="userSpaceOnUse">
<stop stop-color="#FFE2A0"/>
<stop offset="1" stop-color="#FF739C"/>
</linearGradient>
<linearGradient id="paint78_linear" x1="327.248" y1="331.127" x2="382.367" y2="331.127" gradientUnits="userSpaceOnUse">
<stop stop-color="#E0F787"/>
<stop offset="1" stop-color="#4EE3FA"/>
</linearGradient>
<linearGradient id="paint79_linear" x1="346.33" y1="326.194" x2="351.373" y2="326.194" gradientUnits="userSpaceOnUse">
<stop stop-color="#E0F787"/>
<stop offset="1" stop-color="#4EE3FA"/>
</linearGradient>
<linearGradient id="paint80_linear" x1="355.203" y1="325.463" x2="361.384" y2="325.463" gradientUnits="userSpaceOnUse">
<stop stop-color="#E0F787"/>
<stop offset="1" stop-color="#4EE3FA"/>
</linearGradient>
<linearGradient id="paint81_linear" x1="347.783" y1="339.987" x2="358.841" y2="339.987" gradientUnits="userSpaceOnUse">
<stop stop-color="#E0F787"/>
<stop offset="1" stop-color="#4EE3FA"/>
</linearGradient>
<linearGradient id="paint82_linear" x1="246.403" y1="406.782" x2="302.142" y2="406.782" gradientUnits="userSpaceOnUse">
<stop stop-color="#FFE2A0"/>
<stop offset="1" stop-color="#FF739C"/>
</linearGradient>
<linearGradient id="paint83_linear" x1="238" y1="430.485" x2="300.166" y2="430.485" gradientUnits="userSpaceOnUse">
<stop stop-color="#FFE2A0"/>
<stop offset="1" stop-color="#FF739C"/>
</linearGradient>
<linearGradient id="paint84_linear" x1="293.681" y1="427.612" x2="305.095" y2="427.612" gradientUnits="userSpaceOnUse">
<stop stop-color="#FFE2A0"/>
<stop offset="1" stop-color="#FF739C"/>
</linearGradient>
<linearGradient id="paint85_linear" x1="312.337" y1="424.859" x2="322.451" y2="424.859" gradientUnits="userSpaceOnUse">
<stop stop-color="#FFE2A0"/>
<stop offset="1" stop-color="#FF739C"/>
</linearGradient>
<linearGradient id="paint86_linear" x1="316.973" y1="425.364" x2="396.027" y2="425.364" gradientUnits="userSpaceOnUse">
<stop stop-color="#FFE2A0"/>
<stop offset="1" stop-color="#FF739C"/>
</linearGradient>
<linearGradient id="paint87_linear" x1="402.731" y1="423.515" x2="484" y2="423.515" gradientUnits="userSpaceOnUse">
<stop stop-color="#FFE2A0"/>
<stop offset="1" stop-color="#FF739C"/>
</linearGradient>
</defs>
</svg>
